ISO-10303-21;
HEADER;
/* Generated by software containing ST-Developer
 * from STEP Tools, Inc. (www.steptools.com) 
 */
/* OPTION: using custom renumber hook */

FILE_DESCRIPTION(
/* description */ ('STEP AP242 Edition 2',
'CAx-IF Rec.Pracs.---Representation and Presentation of Product Manufa
cturing Information (PMI)---4.0---2014-10-13',
'CAx-IF Rec.Pracs.---3D Tessellated Geometry---0.4---2014-09-14','2;1',
'CAx-IF Rec.Pracs.---User Defined Attributes---1.5---2016-08-15'),
/* implementation_level */ '2;1');

FILE_NAME(
/* name */ 'abduction joint holder',
/* time_stamp */ '2026-07-24T19:17:43Z',
/* author */ (''),
/* organization */ (''),
/* preprocessor_version */ 'ST-DEVELOPER v20',
/* originating_system */ 'ONSHAPE BY PTC INC, 1.218',
/* authorisation */ '  ');

FILE_SCHEMA (('AP242_MANAGED_MODEL_BASED_3D_ENGINEERING_MIM_LF { 1 0 10303 442 3 1 4 }'));
ENDSEC;

DATA;
#10=SHAPE_REPRESENTATION_RELATIONSHIP('','',#973,#11);
#11=ADVANCED_BREP_SHAPE_REPRESENTATION('',(#971),#1643);
#12=SPHERICAL_SURFACE('',#1026,0.002);
#13=SPHERICAL_SURFACE('',#1032,0.002);
#14=SPHERICAL_SURFACE('',#1045,0.002);
#15=SPHERICAL_SURFACE('',#1051,0.002);
#16=TOROIDAL_SURFACE('',#1009,0.004,0.002);
#17=TOROIDAL_SURFACE('',#1012,0.004,0.002);
#18=TOROIDAL_SURFACE('',#1061,0.004,0.002);
#19=TOROIDAL_SURFACE('',#1063,0.004,0.002);
#20=CYLINDRICAL_SURFACE('',#1006,0.002);
#21=CYLINDRICAL_SURFACE('',#1015,0.002);
#22=CYLINDRICAL_SURFACE('',#1017,0.002);
#23=CYLINDRICAL_SURFACE('',#1019,0.002);
#24=CYLINDRICAL_SURFACE('',#1021,0.002);
#25=CYLINDRICAL_SURFACE('',#1023,0.002);
#26=CYLINDRICAL_SURFACE('',#1028,0.002);
#27=CYLINDRICAL_SURFACE('',#1030,0.002);
#28=CYLINDRICAL_SURFACE('',#1034,0.002);
#29=CYLINDRICAL_SURFACE('',#1036,0.002);
#30=CYLINDRICAL_SURFACE('',#1038,0.002);
#31=CYLINDRICAL_SURFACE('',#1040,0.002);
#32=CYLINDRICAL_SURFACE('',#1042,0.002);
#33=CYLINDRICAL_SURFACE('',#1047,0.002);
#34=CYLINDRICAL_SURFACE('',#1049,0.002);
#35=CYLINDRICAL_SURFACE('',#1053,0.002);
#36=CYLINDRICAL_SURFACE('',#1055,0.002);
#37=CYLINDRICAL_SURFACE('',#1057,0.002);
#38=CYLINDRICAL_SURFACE('',#1059,0.002);
#39=CYLINDRICAL_SURFACE('',#1065,0.002);
#40=ELLIPSE('',#991,0.00282842712474619,0.002);
#41=ELLIPSE('',#992,0.00282842712474619,0.002);
#42=ELLIPSE('',#995,0.00282842712474619,0.002);
#43=ELLIPSE('',#996,0.00282842712474619,0.002);
#44=ELLIPSE('',#999,0.00282842712474619,0.002);
#45=ELLIPSE('',#1000,0.00282842712474619,0.002);
#46=ELLIPSE('',#1003,0.00282842712474619,0.002);
#47=ELLIPSE('',#1004,0.00282842712474619,0.002);
#48=ELLIPSE('',#1018,0.00282842712474619,0.002);
#49=ELLIPSE('',#1020,0.00282842712474619,0.002);
#50=ELLIPSE('',#1029,0.00282842712474619,0.002);
#51=ELLIPSE('',#1031,0.00282842712474619,0.002);
#52=ELLIPSE('',#1037,0.00282842712474619,0.002);
#53=ELLIPSE('',#1039,0.00282842712474619,0.002);
#54=ELLIPSE('',#1048,0.00282842712474619,0.002);
#55=ELLIPSE('',#1050,0.00282842712474619,0.002);
#56=CIRCLE('',#980,0.004);
#57=CIRCLE('',#981,0.004);
#58=CIRCLE('',#983,0.004);
#59=CIRCLE('',#984,0.004);
#60=CIRCLE('',#1007,0.002);
#61=CIRCLE('',#1008,0.002);
#62=CIRCLE('',#1010,0.002);
#63=CIRCLE('',#1011,0.002);
#64=CIRCLE('',#1013,0.002);
#65=CIRCLE('',#1014,0.002);
#66=CIRCLE('',#1016,0.002);
#67=CIRCLE('',#1022,0.002);
#68=CIRCLE('',#1024,0.002);
#69=CIRCLE('',#1025,0.002);
#70=CIRCLE('',#1027,0.002);
#71=CIRCLE('',#1033,0.002);
#72=CIRCLE('',#1035,0.002);
#73=CIRCLE('',#1041,0.002);
#74=CIRCLE('',#1043,0.002);
#75=CIRCLE('',#1044,0.002);
#76=CIRCLE('',#1046,0.002);
#77=CIRCLE('',#1052,0.002);
#78=CIRCLE('',#1054,0.002);
#79=CIRCLE('',#1056,0.002);
#80=CIRCLE('',#1058,0.002);
#81=CIRCLE('',#1060,0.002);
#82=CIRCLE('',#1062,0.002);
#83=CIRCLE('',#1064,0.002);
#84=ORIENTED_EDGE('',*,*,#356,.T.);
#85=ORIENTED_EDGE('',*,*,#357,.T.);
#86=ORIENTED_EDGE('',*,*,#358,.T.);
#87=ORIENTED_EDGE('',*,*,#359,.T.);
#88=ORIENTED_EDGE('',*,*,#360,.T.);
#89=ORIENTED_EDGE('',*,*,#361,.T.);
#90=ORIENTED_EDGE('',*,*,#362,.F.);
#91=ORIENTED_EDGE('',*,*,#363,.T.);
#92=ORIENTED_EDGE('',*,*,#364,.T.);
#93=ORIENTED_EDGE('',*,*,#365,.T.);
#94=ORIENTED_EDGE('',*,*,#366,.F.);
#95=ORIENTED_EDGE('',*,*,#367,.F.);
#96=ORIENTED_EDGE('',*,*,#368,.F.);
#97=ORIENTED_EDGE('',*,*,#369,.F.);
#98=ORIENTED_EDGE('',*,*,#370,.F.);
#99=ORIENTED_EDGE('',*,*,#371,.T.);
#100=ORIENTED_EDGE('',*,*,#372,.T.);
#101=ORIENTED_EDGE('',*,*,#373,.F.);
#102=ORIENTED_EDGE('',*,*,#374,.F.);
#103=ORIENTED_EDGE('',*,*,#375,.T.);
#104=ORIENTED_EDGE('',*,*,#376,.F.);
#105=ORIENTED_EDGE('',*,*,#377,.F.);
#106=ORIENTED_EDGE('',*,*,#378,.T.);
#107=ORIENTED_EDGE('',*,*,#379,.T.);
#108=ORIENTED_EDGE('',*,*,#380,.T.);
#109=ORIENTED_EDGE('',*,*,#381,.T.);
#110=ORIENTED_EDGE('',*,*,#382,.T.);
#111=ORIENTED_EDGE('',*,*,#383,.T.);
#112=ORIENTED_EDGE('',*,*,#384,.F.);
#113=ORIENTED_EDGE('',*,*,#385,.T.);
#114=ORIENTED_EDGE('',*,*,#386,.T.);
#115=ORIENTED_EDGE('',*,*,#387,.F.);
#116=ORIENTED_EDGE('',*,*,#388,.F.);
#117=ORIENTED_EDGE('',*,*,#389,.T.);
#118=ORIENTED_EDGE('',*,*,#390,.F.);
#119=ORIENTED_EDGE('',*,*,#391,.T.);
#120=ORIENTED_EDGE('',*,*,#372,.F.);
#121=ORIENTED_EDGE('',*,*,#392,.F.);
#122=ORIENTED_EDGE('',*,*,#393,.F.);
#123=ORIENTED_EDGE('',*,*,#394,.T.);
#124=ORIENTED_EDGE('',*,*,#395,.F.);
#125=ORIENTED_EDGE('',*,*,#396,.T.);
#126=ORIENTED_EDGE('',*,*,#397,.T.);
#127=ORIENTED_EDGE('',*,*,#398,.T.);
#128=ORIENTED_EDGE('',*,*,#399,.T.);
#129=ORIENTED_EDGE('',*,*,#400,.T.);
#130=ORIENTED_EDGE('',*,*,#401,.F.);
#131=ORIENTED_EDGE('',*,*,#402,.T.);
#132=ORIENTED_EDGE('',*,*,#403,.T.);
#133=ORIENTED_EDGE('',*,*,#404,.T.);
#134=ORIENTED_EDGE('',*,*,#405,.T.);
#135=ORIENTED_EDGE('',*,*,#406,.T.);
#136=ORIENTED_EDGE('',*,*,#407,.T.);
#137=ORIENTED_EDGE('',*,*,#408,.F.);
#138=ORIENTED_EDGE('',*,*,#409,.T.);
#139=ORIENTED_EDGE('',*,*,#410,.T.);
#140=ORIENTED_EDGE('',*,*,#411,.T.);
#141=ORIENTED_EDGE('',*,*,#412,.F.);
#142=ORIENTED_EDGE('',*,*,#413,.T.);
#143=ORIENTED_EDGE('',*,*,#414,.T.);
#144=ORIENTED_EDGE('',*,*,#415,.T.);
#145=ORIENTED_EDGE('',*,*,#416,.T.);
#146=ORIENTED_EDGE('',*,*,#417,.T.);
#147=ORIENTED_EDGE('',*,*,#418,.T.);
#148=ORIENTED_EDGE('',*,*,#392,.T.);
#149=ORIENTED_EDGE('',*,*,#375,.F.);
#150=ORIENTED_EDGE('',*,*,#419,.F.);
#151=ORIENTED_EDGE('',*,*,#420,.T.);
#152=ORIENTED_EDGE('',*,*,#393,.T.);
#153=ORIENTED_EDGE('',*,*,#420,.F.);
#154=ORIENTED_EDGE('',*,*,#421,.F.);
#155=ORIENTED_EDGE('',*,*,#422,.T.);
#156=ORIENTED_EDGE('',*,*,#394,.F.);
#157=ORIENTED_EDGE('',*,*,#422,.F.);
#158=ORIENTED_EDGE('',*,*,#423,.T.);
#159=ORIENTED_EDGE('',*,*,#373,.T.);
#160=ORIENTED_EDGE('',*,*,#374,.T.);
#161=ORIENTED_EDGE('',*,*,#423,.F.);
#162=ORIENTED_EDGE('',*,*,#421,.T.);
#163=ORIENTED_EDGE('',*,*,#419,.T.);
#164=ORIENTED_EDGE('',*,*,#424,.T.);
#165=ORIENTED_EDGE('',*,*,#425,.T.);
#166=ORIENTED_EDGE('',*,*,#388,.T.);
#167=ORIENTED_EDGE('',*,*,#426,.F.);
#168=ORIENTED_EDGE('',*,*,#427,.F.);
#169=ORIENTED_EDGE('',*,*,#428,.T.);
#170=ORIENTED_EDGE('',*,*,#387,.T.);
#171=ORIENTED_EDGE('',*,*,#429,.F.);
#172=ORIENTED_EDGE('',*,*,#430,.F.);
#173=ORIENTED_EDGE('',*,*,#426,.T.);
#174=ORIENTED_EDGE('',*,*,#386,.F.);
#175=ORIENTED_EDGE('',*,*,#431,.T.);
#176=ORIENTED_EDGE('',*,*,#432,.T.);
#177=ORIENTED_EDGE('',*,*,#433,.T.);
#178=ORIENTED_EDGE('',*,*,#434,.T.);
#179=ORIENTED_EDGE('',*,*,#429,.T.);
#180=ORIENTED_EDGE('',*,*,#434,.F.);
#181=ORIENTED_EDGE('',*,*,#435,.T.);
#182=ORIENTED_EDGE('',*,*,#436,.T.);
#183=ORIENTED_EDGE('',*,*,#437,.T.);
#184=ORIENTED_EDGE('',*,*,#427,.T.);
#185=ORIENTED_EDGE('',*,*,#430,.T.);
#186=ORIENTED_EDGE('',*,*,#438,.T.);
#187=ORIENTED_EDGE('',*,*,#439,.T.);
#188=ORIENTED_EDGE('',*,*,#384,.T.);
#189=ORIENTED_EDGE('',*,*,#440,.F.);
#190=ORIENTED_EDGE('',*,*,#441,.F.);
#191=ORIENTED_EDGE('',*,*,#442,.T.);
#192=ORIENTED_EDGE('',*,*,#391,.F.);
#193=ORIENTED_EDGE('',*,*,#443,.F.);
#194=ORIENTED_EDGE('',*,*,#444,.T.);
#195=ORIENTED_EDGE('',*,*,#440,.T.);
#196=ORIENTED_EDGE('',*,*,#390,.T.);
#197=ORIENTED_EDGE('',*,*,#445,.T.);
#198=ORIENTED_EDGE('',*,*,#446,.T.);
#199=ORIENTED_EDGE('',*,*,#447,.T.);
#200=ORIENTED_EDGE('',*,*,#448,.F.);
#201=ORIENTED_EDGE('',*,*,#443,.T.);
#202=ORIENTED_EDGE('',*,*,#449,.T.);
#203=ORIENTED_EDGE('',*,*,#450,.T.);
#204=ORIENTED_EDGE('',*,*,#441,.T.);
#205=ORIENTED_EDGE('',*,*,#444,.F.);
#206=ORIENTED_EDGE('',*,*,#448,.T.);
#207=ORIENTED_EDGE('',*,*,#451,.T.);
#208=ORIENTED_EDGE('',*,*,#452,.F.);
#209=ORIENTED_EDGE('',*,*,#436,.F.);
#210=ORIENTED_EDGE('',*,*,#453,.F.);
#211=ORIENTED_EDGE('',*,*,#382,.F.);
#212=ORIENTED_EDGE('',*,*,#454,.F.);
#213=ORIENTED_EDGE('',*,*,#452,.T.);
#214=ORIENTED_EDGE('',*,*,#455,.F.);
#215=ORIENTED_EDGE('',*,*,#401,.T.);
#216=ORIENTED_EDGE('',*,*,#456,.F.);
#217=ORIENTED_EDGE('',*,*,#453,.T.);
#218=ORIENTED_EDGE('',*,*,#457,.F.);
#219=ORIENTED_EDGE('',*,*,#412,.T.);
#220=ORIENTED_EDGE('',*,*,#455,.T.);
#221=ORIENTED_EDGE('',*,*,#381,.F.);
#222=ORIENTED_EDGE('',*,*,#458,.F.);
#223=ORIENTED_EDGE('',*,*,#402,.F.);
#224=ORIENTED_EDGE('',*,*,#454,.T.);
#225=ORIENTED_EDGE('',*,*,#400,.F.);
#226=ORIENTED_EDGE('',*,*,#459,.F.);
#227=ORIENTED_EDGE('',*,*,#428,.F.);
#228=ORIENTED_EDGE('',*,*,#437,.F.);
#229=ORIENTED_EDGE('',*,*,#435,.F.);
#230=ORIENTED_EDGE('',*,*,#433,.F.);
#231=ORIENTED_EDGE('',*,*,#460,.F.);
#232=ORIENTED_EDGE('',*,*,#413,.F.);
#233=ORIENTED_EDGE('',*,*,#457,.T.);
#234=ORIENTED_EDGE('',*,*,#456,.T.);
#235=ORIENTED_EDGE('',*,*,#411,.F.);
#236=ORIENTED_EDGE('',*,*,#461,.F.);
#237=ORIENTED_EDGE('',*,*,#383,.F.);
#238=ORIENTED_EDGE('',*,*,#462,.F.);
#239=ORIENTED_EDGE('',*,*,#380,.F.);
#240=ORIENTED_EDGE('',*,*,#463,.F.);
#241=ORIENTED_EDGE('',*,*,#418,.F.);
#242=ORIENTED_EDGE('',*,*,#458,.T.);
#243=ORIENTED_EDGE('',*,*,#462,.T.);
#244=ORIENTED_EDGE('',*,*,#464,.F.);
#245=ORIENTED_EDGE('',*,*,#459,.T.);
#246=ORIENTED_EDGE('',*,*,#399,.F.);
#247=ORIENTED_EDGE('',*,*,#465,.F.);
#248=ORIENTED_EDGE('',*,*,#424,.F.);
#249=ORIENTED_EDGE('',*,*,#460,.T.);
#250=ORIENTED_EDGE('',*,*,#432,.F.);
#251=ORIENTED_EDGE('',*,*,#466,.F.);
#252=ORIENTED_EDGE('',*,*,#414,.F.);
#253=ORIENTED_EDGE('',*,*,#463,.T.);
#254=ORIENTED_EDGE('',*,*,#461,.T.);
#255=ORIENTED_EDGE('',*,*,#467,.F.);
#256=ORIENTED_EDGE('',*,*,#464,.T.);
#257=ORIENTED_EDGE('',*,*,#417,.F.);
#258=ORIENTED_EDGE('',*,*,#468,.F.);
#259=ORIENTED_EDGE('',*,*,#403,.F.);
#260=ORIENTED_EDGE('',*,*,#465,.T.);
#261=ORIENTED_EDGE('',*,*,#398,.F.);
#262=ORIENTED_EDGE('',*,*,#469,.F.);
#263=ORIENTED_EDGE('',*,*,#445,.F.);
#264=ORIENTED_EDGE('',*,*,#389,.F.);
#265=ORIENTED_EDGE('',*,*,#425,.F.);
#266=ORIENTED_EDGE('',*,*,#385,.F.);
#267=ORIENTED_EDGE('',*,*,#439,.F.);
#268=ORIENTED_EDGE('',*,*,#470,.F.);
#269=ORIENTED_EDGE('',*,*,#405,.F.);
#270=ORIENTED_EDGE('',*,*,#466,.T.);
#271=ORIENTED_EDGE('',*,*,#431,.F.);
#272=ORIENTED_EDGE('',*,*,#467,.T.);
#273=ORIENTED_EDGE('',*,*,#410,.F.);
#274=ORIENTED_EDGE('',*,*,#471,.F.);
#275=ORIENTED_EDGE('',*,*,#415,.F.);
#276=ORIENTED_EDGE('',*,*,#472,.F.);
#277=ORIENTED_EDGE('',*,*,#416,.F.);
#278=ORIENTED_EDGE('',*,*,#473,.F.);
#279=ORIENTED_EDGE('',*,*,#359,.F.);
#280=ORIENTED_EDGE('',*,*,#468,.T.);
#281=ORIENTED_EDGE('',*,*,#472,.T.);
#282=ORIENTED_EDGE('',*,*,#474,.F.);
#283=ORIENTED_EDGE('',*,*,#469,.T.);
#284=ORIENTED_EDGE('',*,*,#397,.F.);
#285=ORIENTED_EDGE('',*,*,#475,.F.);
#286=ORIENTED_EDGE('',*,*,#446,.F.);
#287=ORIENTED_EDGE('',*,*,#470,.T.);
#288=ORIENTED_EDGE('',*,*,#438,.F.);
#289=ORIENTED_EDGE('',*,*,#476,.F.);
#290=ORIENTED_EDGE('',*,*,#406,.F.);
#291=ORIENTED_EDGE('',*,*,#473,.T.);
#292=ORIENTED_EDGE('',*,*,#471,.T.);
#293=ORIENTED_EDGE('',*,*,#477,.F.);
#294=ORIENTED_EDGE('',*,*,#474,.T.);
#295=ORIENTED_EDGE('',*,*,#358,.F.);
#296=ORIENTED_EDGE('',*,*,#478,.F.);
#297=ORIENTED_EDGE('',*,*,#404,.F.);
#298=ORIENTED_EDGE('',*,*,#475,.T.);
#299=ORIENTED_EDGE('',*,*,#396,.F.);
#300=ORIENTED_EDGE('',*,*,#479,.F.);
#301=ORIENTED_EDGE('',*,*,#451,.F.);
#302=ORIENTED_EDGE('',*,*,#447,.F.);
#303=ORIENTED_EDGE('',*,*,#442,.F.);
#304=ORIENTED_EDGE('',*,*,#450,.F.);
#305=ORIENTED_EDGE('',*,*,#480,.F.);
#306=ORIENTED_EDGE('',*,*,#407,.F.);
#307=ORIENTED_EDGE('',*,*,#476,.T.);
#308=ORIENTED_EDGE('',*,*,#477,.T.);
#309=ORIENTED_EDGE('',*,*,#409,.F.);
#310=ORIENTED_EDGE('',*,*,#481,.F.);
#311=ORIENTED_EDGE('',*,*,#356,.F.);
#312=ORIENTED_EDGE('',*,*,#395,.T.);
#313=ORIENTED_EDGE('',*,*,#478,.T.);
#314=ORIENTED_EDGE('',*,*,#482,.F.);
#315=ORIENTED_EDGE('',*,*,#479,.T.);
#316=ORIENTED_EDGE('',*,*,#408,.T.);
#317=ORIENTED_EDGE('',*,*,#480,.T.);
#318=ORIENTED_EDGE('',*,*,#483,.F.);
#319=ORIENTED_EDGE('',*,*,#481,.T.);
#320=ORIENTED_EDGE('',*,*,#482,.T.);
#321=ORIENTED_EDGE('',*,*,#357,.F.);
#322=ORIENTED_EDGE('',*,*,#483,.T.);
#323=ORIENTED_EDGE('',*,*,#449,.F.);
#324=ORIENTED_EDGE('',*,*,#368,.T.);
#325=ORIENTED_EDGE('',*,*,#484,.T.);
#326=ORIENTED_EDGE('',*,*,#361,.F.);
#327=ORIENTED_EDGE('',*,*,#485,.F.);
#328=ORIENTED_EDGE('',*,*,#369,.T.);
#329=ORIENTED_EDGE('',*,*,#485,.T.);
#330=ORIENTED_EDGE('',*,*,#360,.F.);
#331=ORIENTED_EDGE('',*,*,#486,.F.);
#332=ORIENTED_EDGE('',*,*,#370,.T.);
#333=ORIENTED_EDGE('',*,*,#486,.T.);
#334=ORIENTED_EDGE('',*,*,#363,.F.);
#335=ORIENTED_EDGE('',*,*,#487,.F.);
#336=ORIENTED_EDGE('',*,*,#487,.T.);
#337=ORIENTED_EDGE('',*,*,#362,.T.);
#338=ORIENTED_EDGE('',*,*,#484,.F.);
#339=ORIENTED_EDGE('',*,*,#371,.F.);
#340=ORIENTED_EDGE('',*,*,#376,.T.);
#341=ORIENTED_EDGE('',*,*,#488,.T.);
#342=ORIENTED_EDGE('',*,*,#365,.F.);
#343=ORIENTED_EDGE('',*,*,#489,.F.);
#344=ORIENTED_EDGE('',*,*,#377,.T.);
#345=ORIENTED_EDGE('',*,*,#489,.T.);
#346=ORIENTED_EDGE('',*,*,#364,.F.);
#347=ORIENTED_EDGE('',*,*,#490,.F.);
#348=ORIENTED_EDGE('',*,*,#490,.T.);
#349=ORIENTED_EDGE('',*,*,#367,.T.);
#350=ORIENTED_EDGE('',*,*,#491,.F.);
#351=ORIENTED_EDGE('',*,*,#378,.F.);
#352=ORIENTED_EDGE('',*,*,#491,.T.);
#353=ORIENTED_EDGE('',*,*,#366,.T.);
#354=ORIENTED_EDGE('',*,*,#488,.F.);
#355=ORIENTED_EDGE('',*,*,#379,.F.);
#356=EDGE_CURVE('',#492,#493,#576,.T.);
#357=EDGE_CURVE('',#493,#494,#577,.F.);
#358=EDGE_CURVE('',#494,#495,#578,.F.);
#359=EDGE_CURVE('',#495,#492,#579,.T.);
#360=EDGE_CURVE('',#496,#497,#580,.T.);
#361=EDGE_CURVE('',#497,#498,#581,.T.);
#362=EDGE_CURVE('',#499,#498,#582,.T.);
#363=EDGE_CURVE('',#499,#496,#583,.T.);
#364=EDGE_CURVE('',#500,#501,#584,.T.);
#365=EDGE_CURVE('',#501,#502,#585,.T.);
#366=EDGE_CURVE('',#503,#502,#586,.T.);
#367=EDGE_CURVE('',#500,#503,#587,.T.);
#368=EDGE_CURVE('',#504,#505,#588,.T.);
#369=EDGE_CURVE('',#506,#504,#589,.T.);
#370=EDGE_CURVE('',#507,#506,#590,.T.);
#371=EDGE_CURVE('',#507,#505,#591,.T.);
#372=EDGE_CURVE('',#508,#509,#592,.T.);
#373=EDGE_CURVE('',#510,#509,#593,.T.);
#374=EDGE_CURVE('',#511,#510,#594,.T.);
#375=EDGE_CURVE('',#511,#508,#595,.T.);
#376=EDGE_CURVE('',#512,#513,#596,.T.);
#377=EDGE_CURVE('',#514,#512,#597,.T.);
#378=EDGE_CURVE('',#514,#515,#598,.T.);
#379=EDGE_CURVE('',#515,#513,#599,.T.);
#380=EDGE_CURVE('',#516,#517,#600,.T.);
#381=EDGE_CURVE('',#517,#518,#601,.T.);
#382=EDGE_CURVE('',#518,#519,#602,.T.);
#383=EDGE_CURVE('',#519,#516,#603,.F.);
#384=EDGE_CURVE('',#520,#521,#604,.T.);
#385=EDGE_CURVE('',#520,#522,#605,.F.);
#386=EDGE_CURVE('',#522,#523,#606,.T.);
#387=EDGE_CURVE('',#524,#523,#607,.T.);
#388=EDGE_CURVE('',#525,#524,#608,.T.);
#389=EDGE_CURVE('',#525,#526,#609,.T.);
#390=EDGE_CURVE('',#527,#526,#610,.T.);
#391=EDGE_CURVE('',#527,#521,#611,.T.);
#392=EDGE_CURVE('',#528,#508,#612,.T.);
#393=EDGE_CURVE('',#529,#528,#613,.T.);
#394=EDGE_CURVE('',#529,#509,#614,.T.);
#395=EDGE_CURVE('',#530,#531,#56,.T.);
#396=EDGE_CURVE('',#530,#532,#615,.T.);
#397=EDGE_CURVE('',#532,#533,#616,.T.);
#398=EDGE_CURVE('',#533,#534,#617,.F.);
#399=EDGE_CURVE('',#534,#535,#618,.F.);
#400=EDGE_CURVE('',#535,#536,#619,.T.);
#401=EDGE_CURVE('',#537,#536,#57,.T.);
#402=EDGE_CURVE('',#537,#538,#620,.F.);
#403=EDGE_CURVE('',#538,#539,#621,.T.);
#404=EDGE_CURVE('',#539,#531,#622,.T.);
#405=EDGE_CURVE('',#540,#541,#623,.T.);
#406=EDGE_CURVE('',#541,#542,#624,.F.);
#407=EDGE_CURVE('',#542,#543,#625,.F.);
#408=EDGE_CURVE('',#544,#543,#58,.F.);
#409=EDGE_CURVE('',#544,#545,#626,.F.);
#410=EDGE_CURVE('',#545,#546,#627,.F.);
#411=EDGE_CURVE('',#546,#547,#628,.T.);
#412=EDGE_CURVE('',#548,#547,#59,.F.);
#413=EDGE_CURVE('',#548,#549,#629,.F.);
#414=EDGE_CURVE('',#549,#540,#630,.T.);
#415=EDGE_CURVE('',#550,#551,#631,.T.);
#416=EDGE_CURVE('',#551,#552,#632,.F.);
#417=EDGE_CURVE('',#552,#553,#633,.F.);
#418=EDGE_CURVE('',#553,#550,#634,.F.);
#419=EDGE_CURVE('',#554,#511,#635,.T.);
#420=EDGE_CURVE('',#554,#528,#636,.T.);
#421=EDGE_CURVE('',#555,#554,#637,.T.);
#422=EDGE_CURVE('',#555,#529,#638,.T.);
#423=EDGE_CURVE('',#555,#510,#639,.T.);
#424=EDGE_CURVE('',#556,#557,#640,.T.);
#425=EDGE_CURVE('',#557,#525,#40,.F.);
#426=EDGE_CURVE('',#558,#524,#641,.T.);
#427=EDGE_CURVE('',#559,#558,#642,.T.);
#428=EDGE_CURVE('',#559,#556,#41,.F.);
#429=EDGE_CURVE('',#560,#523,#643,.T.);
#430=EDGE_CURVE('',#558,#560,#644,.T.);
#431=EDGE_CURVE('',#522,#561,#42,.T.);
#432=EDGE_CURVE('',#561,#562,#645,.F.);
#433=EDGE_CURVE('',#562,#563,#43,.T.);
#434=EDGE_CURVE('',#563,#560,#646,.T.);
#435=EDGE_CURVE('',#563,#564,#647,.T.);
#436=EDGE_CURVE('',#564,#565,#648,.F.);
#437=EDGE_CURVE('',#565,#559,#649,.F.);
#438=EDGE_CURVE('',#566,#567,#650,.T.);
#439=EDGE_CURVE('',#567,#520,#44,.F.);
#440=EDGE_CURVE('',#568,#521,#651,.T.);
#441=EDGE_CURVE('',#569,#568,#652,.T.);
#442=EDGE_CURVE('',#569,#566,#45,.F.);
#443=EDGE_CURVE('',#570,#527,#653,.T.);
#444=EDGE_CURVE('',#570,#568,#654,.T.);
#445=EDGE_CURVE('',#526,#571,#46,.F.);
#446=EDGE_CURVE('',#571,#572,#655,.F.);
#447=EDGE_CURVE('',#572,#573,#47,.F.);
#448=EDGE_CURVE('',#570,#573,#656,.T.);
#449=EDGE_CURVE('',#574,#575,#657,.T.);
#450=EDGE_CURVE('',#575,#569,#658,.T.);
#451=EDGE_CURVE('',#573,#574,#659,.F.);
#452=EDGE_CURVE('',#565,#518,#60,.F.);
#453=EDGE_CURVE('',#519,#564,#61,.T.);
#454=EDGE_CURVE('',#565,#536,#62,.F.);
#455=EDGE_CURVE('',#537,#518,#63,.F.);
#456=EDGE_CURVE('',#519,#547,#64,.F.);
#457=EDGE_CURVE('',#548,#564,#65,.F.);
#458=EDGE_CURVE('',#538,#517,#66,.T.);
#459=EDGE_CURVE('',#556,#535,#48,.F.);
#460=EDGE_CURVE('',#549,#562,#49,.F.);
#461=EDGE_CURVE('',#516,#546,#67,.T.);
#462=EDGE_CURVE('',#517,#553,#68,.T.);
#463=EDGE_CURVE('',#550,#516,#69,.T.);
#464=EDGE_CURVE('',#538,#553,#70,.F.);
#465=EDGE_CURVE('',#557,#534,#50,.F.);
#466=EDGE_CURVE('',#540,#561,#51,.F.);
#467=EDGE_CURVE('',#550,#546,#71,.F.);
#468=EDGE_CURVE('',#539,#552,#72,.T.);
#469=EDGE_CURVE('',#571,#533,#52,.T.);
#470=EDGE_CURVE('',#541,#567,#53,.F.);
#471=EDGE_CURVE('',#551,#545,#73,.T.);
#472=EDGE_CURVE('',#552,#495,#74,.T.);
#473=EDGE_CURVE('',#492,#551,#75,.T.);
#474=EDGE_CURVE('',#539,#495,#76,.F.);
#475=EDGE_CURVE('',#572,#532,#54,.T.);
#476=EDGE_CURVE('',#542,#566,#55,.F.);
#477=EDGE_CURVE('',#492,#545,#77,.F.);
#478=EDGE_CURVE('',#531,#494,#78,.T.);
#479=EDGE_CURVE('',#574,#530,#79,.T.);
#480=EDGE_CURVE('',#543,#575,#80,.T.);
#481=EDGE_CURVE('',#493,#544,#81,.T.);
#482=EDGE_CURVE('',#574,#494,#82,.T.);
#483=EDGE_CURVE('',#493,#575,#83,.F.);
#484=EDGE_CURVE('',#505,#498,#660,.T.);
#485=EDGE_CURVE('',#504,#497,#661,.T.);
#486=EDGE_CURVE('',#506,#496,#662,.T.);
#487=EDGE_CURVE('',#507,#499,#663,.T.);
#488=EDGE_CURVE('',#513,#502,#664,.T.);
#489=EDGE_CURVE('',#512,#501,#665,.T.);
#490=EDGE_CURVE('',#514,#500,#666,.T.);
#491=EDGE_CURVE('',#515,#503,#667,.T.);
#492=VERTEX_POINT('',#1369);
#493=VERTEX_POINT('',#1370);
#494=VERTEX_POINT('',#1372);
#495=VERTEX_POINT('',#1374);
#496=VERTEX_POINT('',#1377);
#497=VERTEX_POINT('',#1378);
#498=VERTEX_POINT('',#1380);
#499=VERTEX_POINT('',#1382);
#500=VERTEX_POINT('',#1385);
#501=VERTEX_POINT('',#1386);
#502=VERTEX_POINT('',#1388);
#503=VERTEX_POINT('',#1390);
#504=VERTEX_POINT('',#1394);
#505=VERTEX_POINT('',#1395);
#506=VERTEX_POINT('',#1397);
#507=VERTEX_POINT('',#1399);
#508=VERTEX_POINT('',#1402);
#509=VERTEX_POINT('',#1403);
#510=VERTEX_POINT('',#1405);
#511=VERTEX_POINT('',#1407);
#512=VERTEX_POINT('',#1410);
#513=VERTEX_POINT('',#1411);
#514=VERTEX_POINT('',#1413);
#515=VERTEX_POINT('',#1415);
#516=VERTEX_POINT('',#1419);
#517=VERTEX_POINT('',#1420);
#518=VERTEX_POINT('',#1422);
#519=VERTEX_POINT('',#1424);
#520=VERTEX_POINT('',#1428);
#521=VERTEX_POINT('',#1429);
#522=VERTEX_POINT('',#1431);
#523=VERTEX_POINT('',#1433);
#524=VERTEX_POINT('',#1435);
#525=VERTEX_POINT('',#1437);
#526=VERTEX_POINT('',#1439);
#527=VERTEX_POINT('',#1441);
#528=VERTEX_POINT('',#1444);
#529=VERTEX_POINT('',#1446);
#530=VERTEX_POINT('',#1450);
#531=VERTEX_POINT('',#1451);
#532=VERTEX_POINT('',#1453);
#533=VERTEX_POINT('',#1455);
#534=VERTEX_POINT('',#1457);
#535=VERTEX_POINT('',#1459);
#536=VERTEX_POINT('',#1461);
#537=VERTEX_POINT('',#1463);
#538=VERTEX_POINT('',#1465);
#539=VERTEX_POINT('',#1467);
#540=VERTEX_POINT('',#1471);
#541=VERTEX_POINT('',#1472);
#542=VERTEX_POINT('',#1474);
#543=VERTEX_POINT('',#1476);
#544=VERTEX_POINT('',#1478);
#545=VERTEX_POINT('',#1480);
#546=VERTEX_POINT('',#1482);
#547=VERTEX_POINT('',#1484);
#548=VERTEX_POINT('',#1486);
#549=VERTEX_POINT('',#1488);
#550=VERTEX_POINT('',#1492);
#551=VERTEX_POINT('',#1493);
#552=VERTEX_POINT('',#1495);
#553=VERTEX_POINT('',#1497);
#554=VERTEX_POINT('',#1501);
#555=VERTEX_POINT('',#1505);
#556=VERTEX_POINT('',#1512);
#557=VERTEX_POINT('',#1513);
#558=VERTEX_POINT('',#1516);
#559=VERTEX_POINT('',#1518);
#560=VERTEX_POINT('',#1522);
#561=VERTEX_POINT('',#1526);
#562=VERTEX_POINT('',#1528);
#563=VERTEX_POINT('',#1530);
#564=VERTEX_POINT('',#1534);
#565=VERTEX_POINT('',#1536);
#566=VERTEX_POINT('',#1540);
#567=VERTEX_POINT('',#1541);
#568=VERTEX_POINT('',#1544);
#569=VERTEX_POINT('',#1546);
#570=VERTEX_POINT('',#1550);
#571=VERTEX_POINT('',#1554);
#572=VERTEX_POINT('',#1556);
#573=VERTEX_POINT('',#1558);
#574=VERTEX_POINT('',#1562);
#575=VERTEX_POINT('',#1563);
#576=LINE('',#1368,#668);
#577=LINE('',#1371,#669);
#578=LINE('',#1373,#670);
#579=LINE('',#1375,#671);
#580=LINE('',#1376,#672);
#581=LINE('',#1379,#673);
#582=LINE('',#1381,#674);
#583=LINE('',#1383,#675);
#584=LINE('',#1384,#676);
#585=LINE('',#1387,#677);
#586=LINE('',#1389,#678);
#587=LINE('',#1391,#679);
#588=LINE('',#1393,#680);
#589=LINE('',#1396,#681);
#590=LINE('',#1398,#682);
#591=LINE('',#1400,#683);
#592=LINE('',#1401,#684);
#593=LINE('',#1404,#685);
#594=LINE('',#1406,#686);
#595=LINE('',#1408,#687);
#596=LINE('',#1409,#688);
#597=LINE('',#1412,#689);
#598=LINE('',#1414,#690);
#599=LINE('',#1416,#691);
#600=LINE('',#1418,#692);
#601=LINE('',#1421,#693);
#602=LINE('',#1423,#694);
#603=LINE('',#1425,#695);
#604=LINE('',#1427,#696);
#605=LINE('',#1430,#697);
#606=LINE('',#1432,#698);
#607=LINE('',#1434,#699);
#608=LINE('',#1436,#700);
#609=LINE('',#1438,#701);
#610=LINE('',#1440,#702);
#611=LINE('',#1442,#703);
#612=LINE('',#1443,#704);
#613=LINE('',#1445,#705);
#614=LINE('',#1447,#706);
#615=LINE('',#1452,#707);
#616=LINE('',#1454,#708);
#617=LINE('',#1456,#709);
#618=LINE('',#1458,#710);
#619=LINE('',#1460,#711);
#620=LINE('',#1464,#712);
#621=LINE('',#1466,#713);
#622=LINE('',#1468,#714);
#623=LINE('',#1470,#715);
#624=LINE('',#1473,#716);
#625=LINE('',#1475,#717);
#626=LINE('',#1479,#718);
#627=LINE('',#1481,#719);
#628=LINE('',#1483,#720);
#629=LINE('',#1487,#721);
#630=LINE('',#1489,#722);
#631=LINE('',#1491,#723);
#632=LINE('',#1494,#724);
#633=LINE('',#1496,#725);
#634=LINE('',#1498,#726);
#635=LINE('',#1500,#727);
#636=LINE('',#1502,#728);
#637=LINE('',#1504,#729);
#638=LINE('',#1506,#730);
#639=LINE('',#1508,#731);
#640=LINE('',#1511,#732);
#641=LINE('',#1515,#733);
#642=LINE('',#1517,#734);
#643=LINE('',#1521,#735);
#644=LINE('',#1523,#736);
#645=LINE('',#1527,#737);
#646=LINE('',#1531,#738);
#647=LINE('',#1533,#739);
#648=LINE('',#1535,#740);
#649=LINE('',#1537,#741);
#650=LINE('',#1539,#742);
#651=LINE('',#1543,#743);
#652=LINE('',#1545,#744);
#653=LINE('',#1549,#745);
#654=LINE('',#1551,#746);
#655=LINE('',#1555,#747);
#656=LINE('',#1559,#748);
#657=LINE('',#1561,#749);
#658=LINE('',#1564,#750);
#659=LINE('',#1565,#751);
#660=LINE('',#1627,#752);
#661=LINE('',#1628,#753);
#662=LINE('',#1630,#754);
#663=LINE('',#1632,#755);
#664=LINE('',#1635,#756);
#665=LINE('',#1636,#757);
#666=LINE('',#1638,#758);
#667=LINE('',#1640,#759);
#668=VECTOR('',#1078,1.);
#669=VECTOR('',#1079,1.);
#670=VECTOR('',#1080,1.);
#671=VECTOR('',#1081,1.);
#672=VECTOR('',#1082,1.);
#673=VECTOR('',#1083,1.);
#674=VECTOR('',#1084,1.);
#675=VECTOR('',#1085,1.);
#676=VECTOR('',#1086,1.);
#677=VECTOR('',#1087,1.);
#678=VECTOR('',#1088,1.);
#679=VECTOR('',#1089,1.);
#680=VECTOR('',#1092,1.);
#681=VECTOR('',#1093,1.);
#682=VECTOR('',#1094,1.);
#683=VECTOR('',#1095,1.);
#684=VECTOR('',#1096,1.);
#685=VECTOR('',#1097,1.);
#686=VECTOR('',#1098,1.);
#687=VECTOR('',#1099,1.);
#688=VECTOR('',#1100,1.);
#689=VECTOR('',#1101,1.);
#690=VECTOR('',#1102,1.);
#691=VECTOR('',#1103,1.);
#692=VECTOR('',#1106,1.);
#693=VECTOR('',#1107,1.);
#694=VECTOR('',#1108,1.);
#695=VECTOR('',#1109,1.);
#696=VECTOR('',#1112,1.);
#697=VECTOR('',#1113,1.);
#698=VECTOR('',#1114,1.);
#699=VECTOR('',#1115,1.);
#700=VECTOR('',#1116,1.);
#701=VECTOR('',#1117,1.);
#702=VECTOR('',#1118,1.);
#703=VECTOR('',#1119,1.);
#704=VECTOR('',#1120,1.);
#705=VECTOR('',#1121,1.);
#706=VECTOR('',#1122,1.);
#707=VECTOR('',#1127,1.);
#708=VECTOR('',#1128,1.);
#709=VECTOR('',#1129,1.);
#710=VECTOR('',#1130,1.);
#711=VECTOR('',#1131,1.);
#712=VECTOR('',#1134,1.);
#713=VECTOR('',#1135,1.);
#714=VECTOR('',#1136,1.);
#715=VECTOR('',#1139,1.);
#716=VECTOR('',#1140,1.);
#717=VECTOR('',#1141,1.);
#718=VECTOR('',#1144,1.);
#719=VECTOR('',#1145,1.);
#720=VECTOR('',#1146,1.);
#721=VECTOR('',#1149,1.);
#722=VECTOR('',#1150,1.);
#723=VECTOR('',#1153,1.);
#724=VECTOR('',#1154,1.);
#725=VECTOR('',#1155,1.);
#726=VECTOR('',#1156,1.);
#727=VECTOR('',#1159,1.);
#728=VECTOR('',#1160,1.);
#729=VECTOR('',#1163,1.);
#730=VECTOR('',#1164,1.);
#731=VECTOR('',#1167,1.);
#732=VECTOR('',#1172,1.);
#733=VECTOR('',#1175,1.);
#734=VECTOR('',#1176,1.);
#735=VECTOR('',#1181,1.);
#736=VECTOR('',#1182,1.);
#737=VECTOR('',#1187,1.);
#738=VECTOR('',#1190,1.);
#739=VECTOR('',#1193,1.);
#740=VECTOR('',#1194,1.);
#741=VECTOR('',#1195,1.);
#742=VECTOR('',#1198,1.);
#743=VECTOR('',#1201,1.);
#744=VECTOR('',#1202,1.);
#745=VECTOR('',#1207,1.);
#746=VECTOR('',#1208,1.);
#747=VECTOR('',#1213,1.);
#748=VECTOR('',#1216,1.);
#749=VECTOR('',#1219,1.);
#750=VECTOR('',#1220,1.);
#751=VECTOR('',#1221,1.);
#752=VECTOR('',#1344,1.);
#753=VECTOR('',#1345,1.);
#754=VECTOR('',#1348,1.);
#755=VECTOR('',#1351,1.);
#756=VECTOR('',#1356,1.);
#757=VECTOR('',#1357,1.);
#758=VECTOR('',#1360,1.);
#759=VECTOR('',#1363,1.);
#760=EDGE_LOOP('',(#84,#85,#86,#87));
#761=EDGE_LOOP('',(#88,#89,#90,#91));
#762=EDGE_LOOP('',(#92,#93,#94,#95));
#763=EDGE_LOOP('',(#96,#97,#98,#99));
#764=EDGE_LOOP('',(#100,#101,#102,#103));
#765=EDGE_LOOP('',(#104,#105,#106,#107));
#766=EDGE_LOOP('',(#108,#109,#110,#111));
#767=EDGE_LOOP('',(#112,#113,#114,#115,#116,#117,#118,#119));
#768=EDGE_LOOP('',(#120,#121,#122,#123));
#769=EDGE_LOOP('',(#124,#125,#126,#127,#128,#129,#130,#131,#132,#133));
#770=EDGE_LOOP('',(#134,#135,#136,#137,#138,#139,#140,#141,#142,#143));
#771=EDGE_LOOP('',(#144,#145,#146,#147));
#772=EDGE_LOOP('',(#148,#149,#150,#151));
#773=EDGE_LOOP('',(#152,#153,#154,#155));
#774=EDGE_LOOP('',(#156,#157,#158,#159));
#775=EDGE_LOOP('',(#160,#161,#162,#163));
#776=EDGE_LOOP('',(#164,#165,#166,#167,#168,#169));
#777=EDGE_LOOP('',(#170,#171,#172,#173));
#778=EDGE_LOOP('',(#174,#175,#176,#177,#178,#179));
#779=EDGE_LOOP('',(#180,#181,#182,#183,#184,#185));
#780=EDGE_LOOP('',(#186,#187,#188,#189,#190,#191));
#781=EDGE_LOOP('',(#192,#193,#194,#195));
#782=EDGE_LOOP('',(#196,#197,#198,#199,#200,#201));
#783=EDGE_LOOP('',(#202,#203,#204,#205,#206,#207));
#784=EDGE_LOOP('',(#208,#209,#210,#211));
#785=EDGE_LOOP('',(#212,#213,#214,#215));
#786=EDGE_LOOP('',(#216,#217,#218,#219));
#787=EDGE_LOOP('',(#220,#221,#222,#223));
#788=EDGE_LOOP('',(#224,#225,#226,#227,#228));
#789=EDGE_LOOP('',(#229,#230,#231,#232,#233));
#790=EDGE_LOOP('',(#234,#235,#236,#237));
#791=EDGE_LOOP('',(#238,#239,#240,#241));
#792=EDGE_LOOP('',(#242,#243,#244));
#793=EDGE_LOOP('',(#245,#246,#247,#248));
#794=EDGE_LOOP('',(#249,#250,#251,#252));
#795=EDGE_LOOP('',(#253,#254,#255));
#796=EDGE_LOOP('',(#256,#257,#258,#259));
#797=EDGE_LOOP('',(#260,#261,#262,#263,#264,#265));
#798=EDGE_LOOP('',(#266,#267,#268,#269,#270,#271));
#799=EDGE_LOOP('',(#272,#273,#274,#275));
#800=EDGE_LOOP('',(#276,#277,#278,#279));
#801=EDGE_LOOP('',(#280,#281,#282));
#802=EDGE_LOOP('',(#283,#284,#285,#286));
#803=EDGE_LOOP('',(#287,#288,#289,#290));
#804=EDGE_LOOP('',(#291,#292,#293));
#805=EDGE_LOOP('',(#294,#295,#296,#297));
#806=EDGE_LOOP('',(#298,#299,#300,#301,#302));
#807=EDGE_LOOP('',(#303,#304,#305,#306,#307));
#808=EDGE_LOOP('',(#308,#309,#310,#311));
#809=EDGE_LOOP('',(#312,#313,#314,#315));
#810=EDGE_LOOP('',(#316,#317,#318,#319));
#811=EDGE_LOOP('',(#320,#321,#322,#323));
#812=EDGE_LOOP('',(#324,#325,#326,#327));
#813=EDGE_LOOP('',(#328,#329,#330,#331));
#814=EDGE_LOOP('',(#332,#333,#334,#335));
#815=EDGE_LOOP('',(#336,#337,#338,#339));
#816=EDGE_LOOP('',(#340,#341,#342,#343));
#817=EDGE_LOOP('',(#344,#345,#346,#347));
#818=EDGE_LOOP('',(#348,#349,#350,#351));
#819=EDGE_LOOP('',(#352,#353,#354,#355));
#820=FACE_BOUND('',#760,.T.);
#821=FACE_BOUND('',#761,.T.);
#822=FACE_BOUND('',#762,.T.);
#823=FACE_BOUND('',#763,.T.);
#824=FACE_BOUND('',#764,.T.);
#825=FACE_BOUND('',#765,.T.);
#826=FACE_BOUND('',#766,.T.);
#827=FACE_BOUND('',#767,.T.);
#828=FACE_BOUND('',#768,.T.);
#829=FACE_BOUND('',#769,.T.);
#830=FACE_BOUND('',#770,.T.);
#831=FACE_BOUND('',#771,.T.);
#832=FACE_BOUND('',#772,.T.);
#833=FACE_BOUND('',#773,.T.);
#834=FACE_BOUND('',#774,.T.);
#835=FACE_BOUND('',#775,.T.);
#836=FACE_BOUND('',#776,.T.);
#837=FACE_BOUND('',#777,.T.);
#838=FACE_BOUND('',#778,.T.);
#839=FACE_BOUND('',#779,.T.);
#840=FACE_BOUND('',#780,.T.);
#841=FACE_BOUND('',#781,.T.);
#842=FACE_BOUND('',#782,.T.);
#843=FACE_BOUND('',#783,.T.);
#844=FACE_BOUND('',#784,.T.);
#845=FACE_BOUND('',#785,.T.);
#846=FACE_BOUND('',#786,.T.);
#847=FACE_BOUND('',#787,.T.);
#848=FACE_BOUND('',#788,.T.);
#849=FACE_BOUND('',#789,.T.);
#850=FACE_BOUND('',#790,.T.);
#851=FACE_BOUND('',#791,.T.);
#852=FACE_BOUND('',#792,.T.);
#853=FACE_BOUND('',#793,.T.);
#854=FACE_BOUND('',#794,.T.);
#855=FACE_BOUND('',#795,.T.);
#856=FACE_BOUND('',#796,.T.);
#857=FACE_BOUND('',#797,.T.);
#858=FACE_BOUND('',#798,.T.);
#859=FACE_BOUND('',#799,.T.);
#860=FACE_BOUND('',#800,.T.);
#861=FACE_BOUND('',#801,.T.);
#862=FACE_BOUND('',#802,.T.);
#863=FACE_BOUND('',#803,.T.);
#864=FACE_BOUND('',#804,.T.);
#865=FACE_BOUND('',#805,.T.);
#866=FACE_BOUND('',#806,.T.);
#867=FACE_BOUND('',#807,.T.);
#868=FACE_BOUND('',#808,.T.);
#869=FACE_BOUND('',#809,.T.);
#870=FACE_BOUND('',#810,.T.);
#871=FACE_BOUND('',#811,.T.);
#872=FACE_BOUND('',#812,.T.);
#873=FACE_BOUND('',#813,.T.);
#874=FACE_BOUND('',#814,.T.);
#875=FACE_BOUND('',#815,.T.);
#876=FACE_BOUND('',#816,.T.);
#877=FACE_BOUND('',#817,.T.);
#878=FACE_BOUND('',#818,.T.);
#879=FACE_BOUND('',#819,.T.);
#880=PLANE('',#975);
#881=PLANE('',#976);
#882=PLANE('',#977);
#883=PLANE('',#978);
#884=PLANE('',#979);
#885=PLANE('',#982);
#886=PLANE('',#985);
#887=PLANE('',#986);
#888=PLANE('',#987);
#889=PLANE('',#988);
#890=PLANE('',#989);
#891=PLANE('',#990);
#892=PLANE('',#993);
#893=PLANE('',#994);
#894=PLANE('',#997);
#895=PLANE('',#998);
#896=PLANE('',#1001);
#897=PLANE('',#1002);
#898=PLANE('',#1005);
#899=PLANE('',#1066);
#900=PLANE('',#1067);
#901=PLANE('',#1068);
#902=PLANE('',#1069);
#903=PLANE('',#1070);
#904=PLANE('',#1071);
#905=PLANE('',#1072);
#906=PLANE('',#1073);
#907=ADVANCED_FACE('',(#820,#821,#822),#880,.T.);
#908=ADVANCED_FACE('',(#823,#824,#825),#881,.F.);
#909=ADVANCED_FACE('',(#826),#882,.T.);
#910=ADVANCED_FACE('',(#827,#828),#883,.F.);
#911=ADVANCED_FACE('',(#829),#884,.T.);
#912=ADVANCED_FACE('',(#830),#885,.F.);
#913=ADVANCED_FACE('',(#831),#886,.T.);
#914=ADVANCED_FACE('',(#832),#887,.F.);
#915=ADVANCED_FACE('',(#833),#888,.F.);
#916=ADVANCED_FACE('',(#834),#889,.T.);
#917=ADVANCED_FACE('',(#835),#890,.F.);
#918=ADVANCED_FACE('',(#836),#891,.F.);
#919=ADVANCED_FACE('',(#837),#892,.F.);
#920=ADVANCED_FACE('',(#838),#893,.T.);
#921=ADVANCED_FACE('',(#839),#894,.T.);
#922=ADVANCED_FACE('',(#840),#895,.F.);
#923=ADVANCED_FACE('',(#841),#896,.T.);
#924=ADVANCED_FACE('',(#842),#897,.F.);
#925=ADVANCED_FACE('',(#843),#898,.T.);
#926=ADVANCED_FACE('',(#844),#20,.F.);
#927=ADVANCED_FACE('',(#845),#16,.T.);
#928=ADVANCED_FACE('',(#846),#17,.T.);
#929=ADVANCED_FACE('',(#847),#21,.T.);
#930=ADVANCED_FACE('',(#848),#22,.T.);
#931=ADVANCED_FACE('',(#849),#23,.T.);
#932=ADVANCED_FACE('',(#850),#24,.T.);
#933=ADVANCED_FACE('',(#851),#25,.T.);
#934=ADVANCED_FACE('',(#852),#12,.T.);
#935=ADVANCED_FACE('',(#853),#26,.T.);
#936=ADVANCED_FACE('',(#854),#27,.T.);
#937=ADVANCED_FACE('',(#855),#13,.T.);
#938=ADVANCED_FACE('',(#856),#28,.T.);
#939=ADVANCED_FACE('',(#857),#29,.T.);
#940=ADVANCED_FACE('',(#858),#30,.T.);
#941=ADVANCED_FACE('',(#859),#31,.T.);
#942=ADVANCED_FACE('',(#860),#32,.T.);
#943=ADVANCED_FACE('',(#861),#14,.T.);
#944=ADVANCED_FACE('',(#862),#33,.T.);
#945=ADVANCED_FACE('',(#863),#34,.T.);
#946=ADVANCED_FACE('',(#864),#15,.T.);
#947=ADVANCED_FACE('',(#865),#35,.T.);
#948=ADVANCED_FACE('',(#866),#36,.T.);
#949=ADVANCED_FACE('',(#867),#37,.T.);
#950=ADVANCED_FACE('',(#868),#38,.T.);
#951=ADVANCED_FACE('',(#869),#18,.T.);
#952=ADVANCED_FACE('',(#870),#19,.T.);
#953=ADVANCED_FACE('',(#871),#39,.F.);
#954=ADVANCED_FACE('',(#872),#899,.T.);
#955=ADVANCED_FACE('',(#873),#900,.T.);
#956=ADVANCED_FACE('',(#874),#901,.T.);
#957=ADVANCED_FACE('',(#875),#902,.F.);
#958=ADVANCED_FACE('',(#876),#903,.T.);
#959=ADVANCED_FACE('',(#877),#904,.T.);
#960=ADVANCED_FACE('',(#878),#905,.F.);
#961=ADVANCED_FACE('',(#879),#906,.F.);
#962=CLOSED_SHELL('',(#907,#908,#909,#910,#911,#912,#913,#914,#915,#916,
#917,#918,#919,#920,#921,#922,#923,#924,#925,#926,#927,#928,#929,#930,#931,
#932,#933,#934,#935,#936,#937,#938,#939,#940,#941,#942,#943,#944,#945,#946,
#947,#948,#949,#950,#951,#952,#953,#954,#955,#956,#957,#958,#959,#960,#961));
#963=STYLED_ITEM('',(#964),#971);
#964=PRESENTATION_STYLE_ASSIGNMENT((#965));
#965=SURFACE_STYLE_USAGE(.BOTH.,#966);
#966=SURFACE_SIDE_STYLE('',(#967));
#967=SURFACE_STYLE_FILL_AREA(#968);
#968=FILL_AREA_STYLE('',(#969));
#969=FILL_AREA_STYLE_COLOUR('',#970);
#970=COLOUR_RGB('',0.615686274509804,0.811764705882353,0.929411764705882);
#971=MANIFOLD_SOLID_BREP('Part 1',#962);
#972=SHAPE_DEFINITION_REPRESENTATION(#1648,#973);
#973=SHAPE_REPRESENTATION('Part 1',(#974),#1643);
#974=AXIS2_PLACEMENT_3D('',#1366,#1074,#1075);
#975=AXIS2_PLACEMENT_3D('',#1367,#1076,#1077);
#976=AXIS2_PLACEMENT_3D('',#1392,#1090,#1091);
#977=AXIS2_PLACEMENT_3D('',#1417,#1104,#1105);
#978=AXIS2_PLACEMENT_3D('',#1426,#1110,#1111);
#979=AXIS2_PLACEMENT_3D('',#1448,#1123,#1124);
#980=AXIS2_PLACEMENT_3D('',#1449,#1125,#1126);
#981=AXIS2_PLACEMENT_3D('',#1462,#1132,#1133);
#982=AXIS2_PLACEMENT_3D('',#1469,#1137,#1138);
#983=AXIS2_PLACEMENT_3D('',#1477,#1142,#1143);
#984=AXIS2_PLACEMENT_3D('',#1485,#1147,#1148);
#985=AXIS2_PLACEMENT_3D('',#1490,#1151,#1152);
#986=AXIS2_PLACEMENT_3D('',#1499,#1157,#1158);
#987=AXIS2_PLACEMENT_3D('',#1503,#1161,#1162);
#988=AXIS2_PLACEMENT_3D('',#1507,#1165,#1166);
#989=AXIS2_PLACEMENT_3D('',#1509,#1168,#1169);
#990=AXIS2_PLACEMENT_3D('',#1510,#1170,#1171);
#991=AXIS2_PLACEMENT_3D('',#1514,#1173,#1174);
#992=AXIS2_PLACEMENT_3D('',#1519,#1177,#1178);
#993=AXIS2_PLACEMENT_3D('',#1520,#1179,#1180);
#994=AXIS2_PLACEMENT_3D('',#1524,#1183,#1184);
#995=AXIS2_PLACEMENT_3D('',#1525,#1185,#1186);
#996=AXIS2_PLACEMENT_3D('',#1529,#1188,#1189);
#997=AXIS2_PLACEMENT_3D('',#1532,#1191,#1192);
#998=AXIS2_PLACEMENT_3D('',#1538,#1196,#1197);
#999=AXIS2_PLACEMENT_3D('',#1542,#1199,#1200);
#1000=AXIS2_PLACEMENT_3D('',#1547,#1203,#1204);
#1001=AXIS2_PLACEMENT_3D('',#1548,#1205,#1206);
#1002=AXIS2_PLACEMENT_3D('',#1552,#1209,#1210);
#1003=AXIS2_PLACEMENT_3D('',#1553,#1211,#1212);
#1004=AXIS2_PLACEMENT_3D('',#1557,#1214,#1215);
#1005=AXIS2_PLACEMENT_3D('',#1560,#1217,#1218);
#1006=AXIS2_PLACEMENT_3D('',#1566,#1222,#1223);
#1007=AXIS2_PLACEMENT_3D('',#1567,#1224,#1225);
#1008=AXIS2_PLACEMENT_3D('',#1568,#1226,#1227);
#1009=AXIS2_PLACEMENT_3D('',#1569,#1228,#1229);
#1010=AXIS2_PLACEMENT_3D('',#1570,#1230,#1231);
#1011=AXIS2_PLACEMENT_3D('',#1571,#1232,#1233);
#1012=AXIS2_PLACEMENT_3D('',#1572,#1234,#1235);
#1013=AXIS2_PLACEMENT_3D('',#1573,#1236,#1237);
#1014=AXIS2_PLACEMENT_3D('',#1574,#1238,#1239);
#1015=AXIS2_PLACEMENT_3D('',#1575,#1240,#1241);
#1016=AXIS2_PLACEMENT_3D('',#1576,#1242,#1243);
#1017=AXIS2_PLACEMENT_3D('',#1577,#1244,#1245);
#1018=AXIS2_PLACEMENT_3D('',#1578,#1246,#1247);
#1019=AXIS2_PLACEMENT_3D('',#1579,#1248,#1249);
#1020=AXIS2_PLACEMENT_3D('',#1580,#1250,#1251);
#1021=AXIS2_PLACEMENT_3D('',#1581,#1252,#1253);
#1022=AXIS2_PLACEMENT_3D('',#1582,#1254,#1255);
#1023=AXIS2_PLACEMENT_3D('',#1583,#1256,#1257);
#1024=AXIS2_PLACEMENT_3D('',#1584,#1258,#1259);
#1025=AXIS2_PLACEMENT_3D('',#1585,#1260,#1261);
#1026=AXIS2_PLACEMENT_3D('',#1586,#1262,#1263);
#1027=AXIS2_PLACEMENT_3D('',#1587,#1264,#1265);
#1028=AXIS2_PLACEMENT_3D('',#1588,#1266,#1267);
#1029=AXIS2_PLACEMENT_3D('',#1589,#1268,#1269);
#1030=AXIS2_PLACEMENT_3D('',#1590,#1270,#1271);
#1031=AXIS2_PLACEMENT_3D('',#1591,#1272,#1273);
#1032=AXIS2_PLACEMENT_3D('',#1592,#1274,#1275);
#1033=AXIS2_PLACEMENT_3D('',#1593,#1276,#1277);
#1034=AXIS2_PLACEMENT_3D('',#1594,#1278,#1279);
#1035=AXIS2_PLACEMENT_3D('',#1595,#1280,#1281);
#1036=AXIS2_PLACEMENT_3D('',#1596,#1282,#1283);
#1037=AXIS2_PLACEMENT_3D('',#1597,#1284,#1285);
#1038=AXIS2_PLACEMENT_3D('',#1598,#1286,#1287);
#1039=AXIS2_PLACEMENT_3D('',#1599,#1288,#1289);
#1040=AXIS2_PLACEMENT_3D('',#1600,#1290,#1291);
#1041=AXIS2_PLACEMENT_3D('',#1601,#1292,#1293);
#1042=AXIS2_PLACEMENT_3D('',#1602,#1294,#1295);
#1043=AXIS2_PLACEMENT_3D('',#1603,#1296,#1297);
#1044=AXIS2_PLACEMENT_3D('',#1604,#1298,#1299);
#1045=AXIS2_PLACEMENT_3D('',#1605,#1300,#1301);
#1046=AXIS2_PLACEMENT_3D('',#1606,#1302,#1303);
#1047=AXIS2_PLACEMENT_3D('',#1607,#1304,#1305);
#1048=AXIS2_PLACEMENT_3D('',#1608,#1306,#1307);
#1049=AXIS2_PLACEMENT_3D('',#1609,#1308,#1309);
#1050=AXIS2_PLACEMENT_3D('',#1610,#1310,#1311);
#1051=AXIS2_PLACEMENT_3D('',#1611,#1312,#1313);
#1052=AXIS2_PLACEMENT_3D('',#1612,#1314,#1315);
#1053=AXIS2_PLACEMENT_3D('',#1613,#1316,#1317);
#1054=AXIS2_PLACEMENT_3D('',#1614,#1318,#1319);
#1055=AXIS2_PLACEMENT_3D('',#1615,#1320,#1321);
#1056=AXIS2_PLACEMENT_3D('',#1616,#1322,#1323);
#1057=AXIS2_PLACEMENT_3D('',#1617,#1324,#1325);
#1058=AXIS2_PLACEMENT_3D('',#1618,#1326,#1327);
#1059=AXIS2_PLACEMENT_3D('',#1619,#1328,#1329);
#1060=AXIS2_PLACEMENT_3D('',#1620,#1330,#1331);
#1061=AXIS2_PLACEMENT_3D('',#1621,#1332,#1333);
#1062=AXIS2_PLACEMENT_3D('',#1622,#1334,#1335);
#1063=AXIS2_PLACEMENT_3D('',#1623,#1336,#1337);
#1064=AXIS2_PLACEMENT_3D('',#1624,#1338,#1339);
#1065=AXIS2_PLACEMENT_3D('',#1625,#1340,#1341);
#1066=AXIS2_PLACEMENT_3D('',#1626,#1342,#1343);
#1067=AXIS2_PLACEMENT_3D('',#1629,#1346,#1347);
#1068=AXIS2_PLACEMENT_3D('',#1631,#1349,#1350);
#1069=AXIS2_PLACEMENT_3D('',#1633,#1352,#1353);
#1070=AXIS2_PLACEMENT_3D('',#1634,#1354,#1355);
#1071=AXIS2_PLACEMENT_3D('',#1637,#1358,#1359);
#1072=AXIS2_PLACEMENT_3D('',#1639,#1361,#1362);
#1073=AXIS2_PLACEMENT_3D('',#1641,#1364,#1365);
#1074=DIRECTION('',(0.,0.,1.));
#1075=DIRECTION('',(1.,0.,0.));
#1076=DIRECTION('',(1.,0.,0.));
#1077=DIRECTION('',(0.,0.,-1.));
#1078=DIRECTION('',(0.,1.,0.));
#1079=DIRECTION('',(0.,0.,-1.));
#1080=DIRECTION('',(0.,1.,0.));
#1081=DIRECTION('',(0.,0.,-1.));
#1082=DIRECTION('',(0.,1.,0.));
#1083=DIRECTION('',(0.,0.,-1.));
#1084=DIRECTION('',(0.,1.,0.));
#1085=DIRECTION('',(0.,0.,1.));
#1086=DIRECTION('',(0.,0.,1.));
#1087=DIRECTION('',(0.,1.,0.));
#1088=DIRECTION('',(0.,0.,1.));
#1089=DIRECTION('',(0.,1.,0.));
#1090=DIRECTION('',(1.,0.,0.));
#1091=DIRECTION('',(0.,0.,-1.));
#1092=DIRECTION('',(0.,0.,-1.));
#1093=DIRECTION('',(0.,1.,0.));
#1094=DIRECTION('',(0.,0.,1.));
#1095=DIRECTION('',(0.,1.,0.));
#1096=DIRECTION('',(0.,0.,-1.));
#1097=DIRECTION('',(0.,1.,0.));
#1098=DIRECTION('',(0.,0.,-1.));
#1099=DIRECTION('',(0.,1.,0.));
#1100=DIRECTION('',(0.,1.,0.));
#1101=DIRECTION('',(0.,0.,1.));
#1102=DIRECTION('',(0.,1.,0.));
#1103=DIRECTION('',(0.,0.,1.));
#1104=DIRECTION('',(-1.,0.,0.));
#1105=DIRECTION('',(0.,0.,1.));
#1106=DIRECTION('',(0.,0.,1.));
#1107=DIRECTION('',(0.,1.,0.));
#1108=DIRECTION('',(0.,0.,-1.));
#1109=DIRECTION('',(0.,1.,0.));
#1110=DIRECTION('',(0.,-1.,0.));
#1111=DIRECTION('',(1.,0.,0.));
#1112=DIRECTION('',(0.707106781186548,0.,0.707106781186547));
#1113=DIRECTION('',(1.,0.,0.));
#1114=DIRECTION('',(-0.707106781186548,0.,0.707106781186547));
#1115=DIRECTION('',(0.,0.,-1.));
#1116=DIRECTION('',(-0.707106781186548,0.,-0.707106781186548));
#1117=DIRECTION('',(1.,0.,0.));
#1118=DIRECTION('',(-0.707106781186547,0.,0.707106781186549));
#1119=DIRECTION('',(0.,0.,-1.));
#1120=DIRECTION('',(1.,0.,0.));
#1121=DIRECTION('',(0.,0.,1.));
#1122=DIRECTION('',(1.,0.,0.));
#1123=DIRECTION('',(0.,0.,1.));
#1124=DIRECTION('',(1.,0.,0.));
#1125=DIRECTION('',(0.,0.,1.));
#1126=DIRECTION('',(1.,0.,0.));
#1127=DIRECTION('',(1.,0.,0.));
#1128=DIRECTION('',(0.,1.,0.));
#1129=DIRECTION('',(1.,0.,0.));
#1130=DIRECTION('',(0.,1.,0.));
#1131=DIRECTION('',(1.,0.,0.));
#1132=DIRECTION('',(0.,0.,1.));
#1133=DIRECTION('',(1.,0.,0.));
#1134=DIRECTION('',(0.,1.,0.));
#1135=DIRECTION('',(1.,0.,0.));
#1136=DIRECTION('',(0.,1.,0.));
#1137=DIRECTION('',(0.,0.,1.));
#1138=DIRECTION('',(1.,0.,0.));
#1139=DIRECTION('',(1.,0.,0.));
#1140=DIRECTION('',(0.,1.,0.));
#1141=DIRECTION('',(1.,0.,0.));
#1142=DIRECTION('',(0.,0.,1.));
#1143=DIRECTION('',(1.,0.,0.));
#1144=DIRECTION('',(0.,1.,0.));
#1145=DIRECTION('',(1.,0.,0.));
#1146=DIRECTION('',(0.,1.,0.));
#1147=DIRECTION('',(0.,0.,1.));
#1148=DIRECTION('',(1.,0.,0.));
#1149=DIRECTION('',(1.,0.,0.));
#1150=DIRECTION('',(0.,1.,0.));
#1151=DIRECTION('',(0.,-1.,0.));
#1152=DIRECTION('',(1.,0.,0.));
#1153=DIRECTION('',(1.,0.,0.));
#1154=DIRECTION('',(0.,0.,-1.));
#1155=DIRECTION('',(1.,0.,0.));
#1156=DIRECTION('',(0.,0.,1.));
#1157=DIRECTION('',(0.,0.,1.));
#1158=DIRECTION('',(1.,0.,0.));
#1159=DIRECTION('',(1.,0.,0.));
#1160=DIRECTION('',(0.,1.,0.));
#1161=DIRECTION('',(-1.,0.,0.));
#1162=DIRECTION('',(0.,0.,1.));
#1163=DIRECTION('',(0.,0.,1.));
#1164=DIRECTION('',(0.,1.,0.));
#1165=DIRECTION('',(0.,0.,1.));
#1166=DIRECTION('',(1.,0.,0.));
#1167=DIRECTION('',(1.,0.,0.));
#1168=DIRECTION('',(0.,-1.,0.));
#1169=DIRECTION('',(1.,0.,0.));
#1170=DIRECTION('',(0.707106781186548,0.,-0.707106781186548));
#1171=DIRECTION('',(-0.707106781186548,0.,-0.707106781186548));
#1172=DIRECTION('',(0.,1.,0.));
#1173=DIRECTION('',(0.707106781186548,0.,-0.707106781186548));
#1174=DIRECTION('',(-0.707106781186548,0.,-0.707106781186548));
#1175=DIRECTION('',(0.,1.,0.));
#1176=DIRECTION('',(-0.707106781186548,0.,-0.707106781186548));
#1177=DIRECTION('',(0.707106781186548,0.,-0.707106781186548));
#1178=DIRECTION('',(0.707106781186548,0.,0.707106781186548));
#1179=DIRECTION('',(1.,0.,0.));
#1180=DIRECTION('',(0.,0.,-1.));
#1181=DIRECTION('',(0.,1.,0.));
#1182=DIRECTION('',(0.,0.,-1.));
#1183=DIRECTION('',(-0.707106781186547,0.,-0.707106781186548));
#1184=DIRECTION('',(-0.707106781186548,0.,0.707106781186547));
#1185=DIRECTION('',(-0.707106781186547,0.,-0.707106781186548));
#1186=DIRECTION('',(0.707106781186548,0.,-0.707106781186547));
#1187=DIRECTION('',(0.,1.,0.));
#1188=DIRECTION('',(-0.707106781186547,0.,-0.707106781186548));
#1189=DIRECTION('',(-0.707106781186548,0.,0.707106781186547));
#1190=DIRECTION('',(-0.707106781186548,0.,0.707106781186547));
#1191=DIRECTION('',(0.,-1.,0.));
#1192=DIRECTION('',(1.,0.,0.));
#1193=DIRECTION('',(1.,0.,0.));
#1194=DIRECTION('',(0.,0.,-1.));
#1195=DIRECTION('',(1.,0.,0.));
#1196=DIRECTION('',(-0.707106781186547,0.,0.707106781186548));
#1197=DIRECTION('',(0.707106781186548,0.,0.707106781186547));
#1198=DIRECTION('',(0.,1.,0.));
#1199=DIRECTION('',(-0.707106781186547,0.,0.707106781186548));
#1200=DIRECTION('',(0.707106781186548,0.,0.707106781186547));
#1201=DIRECTION('',(0.,1.,0.));
#1202=DIRECTION('',(0.707106781186548,0.,0.707106781186547));
#1203=DIRECTION('',(-0.707106781186547,0.,0.707106781186548));
#1204=DIRECTION('',(-0.707106781186548,0.,-0.707106781186547));
#1205=DIRECTION('',(1.,0.,0.));
#1206=DIRECTION('',(0.,0.,-1.));
#1207=DIRECTION('',(0.,1.,0.));
#1208=DIRECTION('',(0.,0.,-1.));
#1209=DIRECTION('',(-0.707106781186549,0.,-0.707106781186547));
#1210=DIRECTION('',(-0.707106781186547,0.,0.707106781186549));
#1211=DIRECTION('',(-0.707106781186549,0.,-0.707106781186547));
#1212=DIRECTION('',(-0.707106781186547,0.,0.707106781186549));
#1213=DIRECTION('',(0.,1.,0.));
#1214=DIRECTION('',(-0.707106781186549,0.,-0.707106781186547));
#1215=DIRECTION('',(0.707106781186547,0.,-0.707106781186549));
#1216=DIRECTION('',(-0.707106781186547,0.,0.707106781186549));
#1217=DIRECTION('',(0.,-1.,0.));
#1218=DIRECTION('',(1.,0.,0.));
#1219=DIRECTION('',(0.,0.,-1.));
#1220=DIRECTION('',(1.,0.,0.));
#1221=DIRECTION('',(1.,0.,0.));
#1222=DIRECTION('',(0.,0.,1.));
#1223=DIRECTION('',(1.,0.,0.));
#1224=DIRECTION('',(0.,0.,1.));
#1225=DIRECTION('',(1.,0.,0.));
#1226=DIRECTION('',(0.,0.,1.));
#1227=DIRECTION('',(1.,0.,0.));
#1228=DIRECTION('',(0.,0.,1.));
#1229=DIRECTION('',(1.,0.,0.));
#1230=DIRECTION('',(1.,0.,0.));
#1231=DIRECTION('',(0.,0.,-1.));
#1232=DIRECTION('',(0.,1.,0.));
#1233=DIRECTION('',(0.,0.,1.));
#1234=DIRECTION('',(0.,0.,1.));
#1235=DIRECTION('',(1.,0.,0.));
#1236=DIRECTION('',(0.,1.,0.));
#1237=DIRECTION('',(0.,0.,1.));
#1238=DIRECTION('',(1.,0.,0.));
#1239=DIRECTION('',(0.,0.,-1.));
#1240=DIRECTION('',(0.,1.,0.));
#1241=DIRECTION('',(0.,0.,1.));
#1242=DIRECTION('',(0.,-1.,0.));
#1243=DIRECTION('',(0.,0.,-1.));
#1244=DIRECTION('',(1.,0.,0.));
#1245=DIRECTION('',(0.,0.,-1.));
#1246=DIRECTION('',(0.707106781186548,-0.707106781186548,0.));
#1247=DIRECTION('',(-0.707106781186548,-0.707106781186548,0.));
#1248=DIRECTION('',(-1.,0.,0.));
#1249=DIRECTION('',(0.,0.,1.));
#1250=DIRECTION('',(0.707106781186548,-0.707106781186548,0.));
#1251=DIRECTION('',(-0.707106781186548,-0.707106781186548,0.));
#1252=DIRECTION('',(0.,-1.,0.));
#1253=DIRECTION('',(0.,0.,-1.));
#1254=DIRECTION('',(0.,-1.,0.));
#1255=DIRECTION('',(0.,0.,-1.));
#1256=DIRECTION('',(0.,0.,1.));
#1257=DIRECTION('',(1.,0.,0.));
#1258=DIRECTION('',(0.,0.,1.));
#1259=DIRECTION('',(1.,0.,0.));
#1260=DIRECTION('',(0.,0.,-1.));
#1261=DIRECTION('',(-1.,0.,0.));
#1262=DIRECTION('',(-1.,0.,0.));
#1263=DIRECTION('',(0.,0.,1.));
#1264=DIRECTION('',(-1.,0.,0.));
#1265=DIRECTION('',(0.,0.,1.));
#1266=DIRECTION('',(0.,-1.,0.));
#1267=DIRECTION('',(0.,0.,-1.));
#1268=DIRECTION('',(-0.707106781186548,-0.707106781186548,0.));
#1269=DIRECTION('',(0.707106781186548,-0.707106781186548,0.));
#1270=DIRECTION('',(0.,-1.,0.));
#1271=DIRECTION('',(0.,0.,-1.));
#1272=DIRECTION('',(-0.707106781186548,-0.707106781186548,0.));
#1273=DIRECTION('',(0.707106781186548,-0.707106781186548,0.));
#1274=DIRECTION('',(-1.,0.,0.));
#1275=DIRECTION('',(0.,0.,1.));
#1276=DIRECTION('',(-1.,0.,0.));
#1277=DIRECTION('',(0.,0.,1.));
#1278=DIRECTION('',(1.,0.,0.));
#1279=DIRECTION('',(0.,0.,-1.));
#1280=DIRECTION('',(1.,0.,0.));
#1281=DIRECTION('',(0.,0.,-1.));
#1282=DIRECTION('',(-1.,0.,0.));
#1283=DIRECTION('',(0.,0.,1.));
#1284=DIRECTION('',(0.707106781186548,-0.707106781186548,0.));
#1285=DIRECTION('',(-0.707106781186548,-0.707106781186548,0.));
#1286=DIRECTION('',(1.,0.,0.));
#1287=DIRECTION('',(0.,0.,-1.));
#1288=DIRECTION('',(-0.707106781186548,0.707106781186548,0.));
#1289=DIRECTION('',(0.707106781186548,0.707106781186548,0.));
#1290=DIRECTION('',(-1.,0.,0.));
#1291=DIRECTION('',(0.,0.,1.));
#1292=DIRECTION('',(1.,0.,0.));
#1293=DIRECTION('',(0.,0.,-1.));
#1294=DIRECTION('',(0.,0.,-1.));
#1295=DIRECTION('',(-1.,0.,0.));
#1296=DIRECTION('',(0.,0.,1.));
#1297=DIRECTION('',(1.,0.,0.));
#1298=DIRECTION('',(0.,0.,-1.));
#1299=DIRECTION('',(-1.,0.,0.));
#1300=DIRECTION('',(0.,-1.,0.));
#1301=DIRECTION('',(0.,0.,-1.));
#1302=DIRECTION('',(0.,-1.,0.));
#1303=DIRECTION('',(0.,0.,-1.));
#1304=DIRECTION('',(0.,-1.,0.));
#1305=DIRECTION('',(0.,0.,-1.));
#1306=DIRECTION('',(-0.707106781186548,-0.707106781186548,0.));
#1307=DIRECTION('',(0.707106781186548,-0.707106781186548,0.));
#1308=DIRECTION('',(0.,1.,0.));
#1309=DIRECTION('',(0.,0.,1.));
#1310=DIRECTION('',(0.707106781186548,0.707106781186548,0.));
#1311=DIRECTION('',(-0.707106781186548,0.707106781186548,0.));
#1312=DIRECTION('',(0.,-1.,0.));
#1313=DIRECTION('',(0.,0.,-1.));
#1314=DIRECTION('',(0.,-1.,0.));
#1315=DIRECTION('',(0.,0.,-1.));
#1316=DIRECTION('',(0.,1.,0.));
#1317=DIRECTION('',(0.,0.,1.));
#1318=DIRECTION('',(0.,1.,0.));
#1319=DIRECTION('',(0.,0.,1.));
#1320=DIRECTION('',(1.,0.,0.));
#1321=DIRECTION('',(0.,0.,-1.));
#1322=DIRECTION('',(-1.,0.,0.));
#1323=DIRECTION('',(0.,0.,1.));
#1324=DIRECTION('',(-1.,0.,0.));
#1325=DIRECTION('',(0.,0.,1.));
#1326=DIRECTION('',(-1.,0.,0.));
#1327=DIRECTION('',(0.,0.,1.));
#1328=DIRECTION('',(0.,-1.,0.));
#1329=DIRECTION('',(0.,0.,-1.));
#1330=DIRECTION('',(0.,1.,0.));
#1331=DIRECTION('',(0.,0.,1.));
#1332=DIRECTION('',(0.,0.,1.));
#1333=DIRECTION('',(1.,0.,0.));
#1334=DIRECTION('',(0.,0.,1.));
#1335=DIRECTION('',(1.,0.,0.));
#1336=DIRECTION('',(0.,0.,1.));
#1337=DIRECTION('',(1.,0.,0.));
#1338=DIRECTION('',(0.,0.,1.));
#1339=DIRECTION('',(1.,0.,0.));
#1340=DIRECTION('',(0.,0.,1.));
#1341=DIRECTION('',(1.,0.,0.));
#1342=DIRECTION('',(0.,-1.,0.));
#1343=DIRECTION('',(0.,0.,-1.));
#1344=DIRECTION('',(1.,0.,0.));
#1345=DIRECTION('',(1.,0.,0.));
#1346=DIRECTION('',(0.,0.,-1.));
#1347=DIRECTION('',(-1.,0.,0.));
#1348=DIRECTION('',(1.,0.,0.));
#1349=DIRECTION('',(0.,1.,0.));
#1350=DIRECTION('',(0.,0.,1.));
#1351=DIRECTION('',(1.,0.,0.));
#1352=DIRECTION('',(0.,0.,-1.));
#1353=DIRECTION('',(-1.,0.,0.));
#1354=DIRECTION('',(0.,0.,-1.));
#1355=DIRECTION('',(-1.,0.,0.));
#1356=DIRECTION('',(1.,0.,0.));
#1357=DIRECTION('',(1.,0.,0.));
#1358=DIRECTION('',(0.,1.,0.));
#1359=DIRECTION('',(0.,0.,1.));
#1360=DIRECTION('',(1.,0.,0.));
#1361=DIRECTION('',(0.,0.,-1.));
#1362=DIRECTION('',(-1.,0.,0.));
#1363=DIRECTION('',(1.,0.,0.));
#1364=DIRECTION('',(0.,1.,0.));
#1365=DIRECTION('',(0.,0.,1.));
#1366=CARTESIAN_POINT('',(0.,0.,0.));
#1367=CARTESIAN_POINT('',(0.0303140425115824,-0.04,-0.012973995691288));
#1368=CARTESIAN_POINT('',(0.0303140425115824,-0.005,-0.012223995691288));
#1369=CARTESIAN_POINT('',(0.0303140425115824,-0.038,-0.012223995691288));
#1370=CARTESIAN_POINT('',(0.0303140425115824,-0.007,-0.012223995691288));
#1371=CARTESIAN_POINT('',(0.0303140425115824,-0.007,0.050776004308712));
#1372=CARTESIAN_POINT('',(0.0303140425115824,-0.007,0.048776004308712));
#1373=CARTESIAN_POINT('',(0.0303140425115824,-0.04,0.048776004308712));
#1374=CARTESIAN_POINT('',(0.0303140425115824,-0.038,0.048776004308712));
#1375=CARTESIAN_POINT('',(0.0303140425115824,-0.038,-0.012973995691288));
#1376=CARTESIAN_POINT('',(0.0303140425115824,-0.021085,0.00883600430871198));
#1377=CARTESIAN_POINT('',(0.0303140425115824,-0.025,0.00883600430871198));
#1378=CARTESIAN_POINT('',(0.0303140425115824,-0.02,0.00883600430871198));
#1379=CARTESIAN_POINT('',(0.0303140425115824,-0.02,0.00133600430871198));
#1380=CARTESIAN_POINT('',(0.0303140425115824,-0.02,-0.00116399569128802));
#1381=CARTESIAN_POINT('',(0.0303140425115824,-0.0225,-0.00116399569128802));
#1382=CARTESIAN_POINT('',(0.0303140425115824,-0.025,-0.00116399569128802));
#1383=CARTESIAN_POINT('',(0.0303140425115824,-0.025,0.00623100430871198));
#1384=CARTESIAN_POINT('',(0.0303140425115824,-0.025,0.032776004308712));
#1385=CARTESIAN_POINT('',(0.0303140425115824,-0.025,0.027776004308712));
#1386=CARTESIAN_POINT('',(0.0303140425115824,-0.025,0.037776004308712));
#1387=CARTESIAN_POINT('',(0.0303140425115824,-0.020915,0.037776004308712));
#1388=CARTESIAN_POINT('',(0.0303140425115824,-0.02,0.037776004308712));
#1389=CARTESIAN_POINT('',(0.0303140425115824,-0.02,0.0311631426985325));
#1390=CARTESIAN_POINT('',(0.0303140425115824,-0.02,0.027776004308712));
#1391=CARTESIAN_POINT('',(0.0303140425115824,-0.0225,0.027776004308712));
#1392=CARTESIAN_POINT('',(0.0278140425115824,-0.04,-0.012973995691288));
#1393=CARTESIAN_POINT('',(0.0278140425115824,-0.02,-0.012973995691288));
#1394=CARTESIAN_POINT('',(0.0278140425115824,-0.02,0.00883600430871198));
#1395=CARTESIAN_POINT('',(0.0278140425115824,-0.02,-0.00116399569128802));
#1396=CARTESIAN_POINT('',(0.0278140425115824,-0.04,0.00883600430871198));
#1397=CARTESIAN_POINT('',(0.0278140425115824,-0.025,0.00883600430871198));
#1398=CARTESIAN_POINT('',(0.0278140425115824,-0.025,-0.012973995691288));
#1399=CARTESIAN_POINT('',(0.0278140425115824,-0.025,-0.00116399569128802));
#1400=CARTESIAN_POINT('',(0.0278140425115824,-0.04,-0.00116399569128802));
#1401=CARTESIAN_POINT('',(0.0278140425115824,0.,-0.012973995691288));
#1402=CARTESIAN_POINT('',(0.0278140425115824,0.,0.048276004308712));
#1403=CARTESIAN_POINT('',(0.0278140425115824,0.,-0.011723995691288));
#1404=CARTESIAN_POINT('',(0.0278140425115824,-0.04,-0.011723995691288));
#1405=CARTESIAN_POINT('',(0.0278140425115824,-0.0375,-0.011723995691288));
#1406=CARTESIAN_POINT('',(0.0278140425115824,-0.0375,-0.012973995691288));
#1407=CARTESIAN_POINT('',(0.0278140425115824,-0.0375,0.048276004308712));
#1408=CARTESIAN_POINT('',(0.0278140425115824,-0.04,0.048276004308712));
#1409=CARTESIAN_POINT('',(0.0278140425115824,-0.04,0.037776004308712));
#1410=CARTESIAN_POINT('',(0.0278140425115824,-0.025,0.037776004308712));
#1411=CARTESIAN_POINT('',(0.0278140425115824,-0.02,0.037776004308712));
#1412=CARTESIAN_POINT('',(0.0278140425115824,-0.025,-0.012973995691288));
#1413=CARTESIAN_POINT('',(0.0278140425115824,-0.025,0.027776004308712));
#1414=CARTESIAN_POINT('',(0.0278140425115824,-0.04,0.027776004308712));
#1415=CARTESIAN_POINT('',(0.0278140425115824,-0.02,0.027776004308712));
#1416=CARTESIAN_POINT('',(0.0278140425115824,-0.02,-0.012973995691288));
#1417=CARTESIAN_POINT('',(-0.0407859574884177,-0.04,0.049526004308712));
#1418=CARTESIAN_POINT('',(-0.0407859574884177,-0.038,0.049526004308712));
#1419=CARTESIAN_POINT('',(-0.0407859574884177,-0.038,-0.012223995691288));
#1420=CARTESIAN_POINT('',(-0.0407859574884177,-0.038,0.048776004308712));
#1421=CARTESIAN_POINT('',(-0.0407859574884177,-0.04,0.048776004308712));
#1422=CARTESIAN_POINT('',(-0.0407859574884177,-0.007,0.048776004308712));
#1423=CARTESIAN_POINT('',(-0.0407859574884177,-0.007,-0.014223995691288));
#1424=CARTESIAN_POINT('',(-0.0407859574884177,-0.007,-0.012223995691288));
#1425=CARTESIAN_POINT('',(-0.0407859574884177,-0.04,-0.012223995691288));
#1426=CARTESIAN_POINT('',(-0.00523595748841762,0.,0.018276004308712));
#1427=CARTESIAN_POINT('',(0.0372640425115824,0.,-0.012973995691288));
#1428=CARTESIAN_POINT('',(0.0380140425115824,0.,-0.012223995691288));
#1429=CARTESIAN_POINT('',(0.0385140425115824,0.,-0.011723995691288));
#1430=CARTESIAN_POINT('',(-0.00523595748841762,0.,-0.012223995691288));
#1431=CARTESIAN_POINT('',(-0.0484859574884176,0.,-0.012223995691288));
#1432=CARTESIAN_POINT('',(-0.0477359574884176,0.,-0.012973995691288));
#1433=CARTESIAN_POINT('',(-0.0489859574884176,0.,-0.011723995691288));
#1434=CARTESIAN_POINT('',(-0.0489859574884176,0.,0.018276004308712));
#1435=CARTESIAN_POINT('',(-0.0489859574884176,0.,0.048276004308712));
#1436=CARTESIAN_POINT('',(-0.0477359574884176,0.,0.049526004308712));
#1437=CARTESIAN_POINT('',(-0.0484859574884176,0.,0.048776004308712));
#1438=CARTESIAN_POINT('',(0.0360140425115824,0.,0.048776004308712));
#1439=CARTESIAN_POINT('',(0.0380140425115824,0.,0.048776004308712));
#1440=CARTESIAN_POINT('',(0.0372640425115824,0.,0.049526004308712));
#1441=CARTESIAN_POINT('',(0.0385140425115824,0.,0.048276004308712));
#1442=CARTESIAN_POINT('',(0.0385140425115824,0.,0.018276004308712));
#1443=CARTESIAN_POINT('',(-0.00523595748841763,0.,0.048276004308712));
#1444=CARTESIAN_POINT('',(-0.0382859574884176,0.,0.048276004308712));
#1445=CARTESIAN_POINT('',(-0.0382859574884176,0.,0.049526004308712));
#1446=CARTESIAN_POINT('',(-0.0382859574884176,0.,-0.011723995691288));
#1447=CARTESIAN_POINT('',(-0.00523595748841761,0.,-0.011723995691288));
#1448=CARTESIAN_POINT('',(-0.00523595748841763,-0.04,0.050776004308712));
#1449=CARTESIAN_POINT('',(0.0323140425115824,-0.007,0.050776004308712));
#1450=CARTESIAN_POINT('',(0.0323140425115824,-0.003,0.050776004308712));
#1451=CARTESIAN_POINT('',(0.0283140425115824,-0.007,0.050776004308712));
#1452=CARTESIAN_POINT('',(-0.00523595748841763,-0.003,0.050776004308712));
#1453=CARTESIAN_POINT('',(0.0351856153868362,-0.003,0.050776004308712));
#1454=CARTESIAN_POINT('',(0.0351856153868362,0.,0.050776004308712));
#1455=CARTESIAN_POINT('',(0.0351856153868362,-0.002,0.050776004308712));
#1456=CARTESIAN_POINT('',(-0.0464859574884176,-0.002,0.050776004308712));
#1457=CARTESIAN_POINT('',(-0.0456575303636714,-0.002,0.050776004308712));
#1458=CARTESIAN_POINT('',(-0.0456575303636714,-0.005,0.050776004308712));
#1459=CARTESIAN_POINT('',(-0.0456575303636714,-0.003,0.050776004308712));
#1460=CARTESIAN_POINT('',(-0.00523595748841763,-0.003,0.050776004308712));
#1461=CARTESIAN_POINT('',(-0.0427859574884176,-0.003,0.050776004308712));
#1462=CARTESIAN_POINT('',(-0.0427859574884176,-0.007,0.050776004308712));
#1463=CARTESIAN_POINT('',(-0.0387859574884176,-0.007,0.050776004308712));
#1464=CARTESIAN_POINT('',(-0.0387859574884176,-0.04,0.050776004308712));
#1465=CARTESIAN_POINT('',(-0.0387859574884176,-0.038,0.050776004308712));
#1466=CARTESIAN_POINT('',(-0.00523595748841763,-0.038,0.050776004308712));
#1467=CARTESIAN_POINT('',(0.0283140425115824,-0.038,0.050776004308712));
#1468=CARTESIAN_POINT('',(0.0283140425115824,-0.04,0.050776004308712));
#1469=CARTESIAN_POINT('',(-0.00523595748841761,-0.04,-0.014223995691288));
#1470=CARTESIAN_POINT('',(-0.00523595748841761,-0.002,-0.014223995691288));
#1471=CARTESIAN_POINT('',(-0.0456575303636714,-0.002,-0.014223995691288));
#1472=CARTESIAN_POINT('',(0.0351856153868362,-0.002,-0.014223995691288));
#1473=CARTESIAN_POINT('',(0.0351856153868362,-0.04,-0.014223995691288));
#1474=CARTESIAN_POINT('',(0.0351856153868362,-0.003,-0.014223995691288));
#1475=CARTESIAN_POINT('',(0.0303140425115824,-0.003,-0.014223995691288));
#1476=CARTESIAN_POINT('',(0.0323140425115824,-0.003,-0.014223995691288));
#1477=CARTESIAN_POINT('',(0.0323140425115824,-0.007,-0.014223995691288));
#1478=CARTESIAN_POINT('',(0.0283140425115824,-0.007,-0.014223995691288));
#1479=CARTESIAN_POINT('',(0.0283140425115824,-0.04,-0.014223995691288));
#1480=CARTESIAN_POINT('',(0.0283140425115824,-0.038,-0.014223995691288));
#1481=CARTESIAN_POINT('',(-0.0407859574884177,-0.038,-0.014223995691288));
#1482=CARTESIAN_POINT('',(-0.0387859574884176,-0.038,-0.014223995691288));
#1483=CARTESIAN_POINT('',(-0.0387859574884176,-0.005,-0.014223995691288));
#1484=CARTESIAN_POINT('',(-0.0387859574884176,-0.007,-0.014223995691288));
#1485=CARTESIAN_POINT('',(-0.0427859574884176,-0.007,-0.014223995691288));
#1486=CARTESIAN_POINT('',(-0.0427859574884176,-0.003,-0.014223995691288));
#1487=CARTESIAN_POINT('',(-0.0464859574884176,-0.003,-0.014223995691288));
#1488=CARTESIAN_POINT('',(-0.0456575303636714,-0.003,-0.014223995691288));
#1489=CARTESIAN_POINT('',(-0.0456575303636714,0.,-0.014223995691288));
#1490=CARTESIAN_POINT('',(-0.00523595748841762,-0.04,0.018276004308712));
#1491=CARTESIAN_POINT('',(0.0303140425115824,-0.04,-0.012223995691288));
#1492=CARTESIAN_POINT('',(-0.0387859574884176,-0.04,-0.012223995691288));
#1493=CARTESIAN_POINT('',(0.0283140425115824,-0.04,-0.012223995691288));
#1494=CARTESIAN_POINT('',(0.0283140425115824,-0.04,0.018276004308712));
#1495=CARTESIAN_POINT('',(0.0283140425115824,-0.04,0.048776004308712));
#1496=CARTESIAN_POINT('',(-0.00523595748841762,-0.04,0.048776004308712));
#1497=CARTESIAN_POINT('',(-0.0387859574884176,-0.04,0.048776004308712));
#1498=CARTESIAN_POINT('',(-0.0387859574884176,-0.04,0.018276004308712));
#1499=CARTESIAN_POINT('',(-0.00523595748841763,-0.04,0.048276004308712));
#1500=CARTESIAN_POINT('',(-0.00523595748841763,-0.0375,0.048276004308712));
#1501=CARTESIAN_POINT('',(-0.0382859574884176,-0.0375,0.048276004308712));
#1502=CARTESIAN_POINT('',(-0.0382859574884176,-0.04,0.048276004308712));
#1503=CARTESIAN_POINT('',(-0.0382859574884176,-0.04,0.049526004308712));
#1504=CARTESIAN_POINT('',(-0.0382859574884176,-0.0375,0.049526004308712));
#1505=CARTESIAN_POINT('',(-0.0382859574884176,-0.0375,-0.011723995691288));
#1506=CARTESIAN_POINT('',(-0.0382859574884176,-0.04,-0.011723995691288));
#1507=CARTESIAN_POINT('',(-0.00523595748841761,-0.04,-0.011723995691288));
#1508=CARTESIAN_POINT('',(-0.00523595748841761,-0.0375,-0.011723995691288));
#1509=CARTESIAN_POINT('',(-0.00523595748841762,-0.0375,0.018276004308712));
#1510=CARTESIAN_POINT('',(-0.0477359574884176,-0.005,0.049526004308712));
#1511=CARTESIAN_POINT('',(-0.0470717439260445,0.,0.0501902178710851));
#1512=CARTESIAN_POINT('',(-0.0470717439260445,-0.00441421356237309,0.0501902178710851));
#1513=CARTESIAN_POINT('',(-0.0470717439260445,-0.000585786437626907,0.0501902178710851));
#1514=CARTESIAN_POINT('',(-0.0484859574884176,-0.002,0.048776004308712));
#1515=CARTESIAN_POINT('',(-0.0489859574884176,-0.005,0.048276004308712));
#1516=CARTESIAN_POINT('',(-0.0489859574884176,-0.005,0.048276004308712));
#1517=CARTESIAN_POINT('',(-0.0477359574884176,-0.005,0.049526004308712));
#1518=CARTESIAN_POINT('',(-0.0484859574884176,-0.005,0.048776004308712));
#1519=CARTESIAN_POINT('',(-0.0484859574884176,-0.003,0.048776004308712));
#1520=CARTESIAN_POINT('',(-0.0489859574884176,-0.005,0.018276004308712));
#1521=CARTESIAN_POINT('',(-0.0489859574884176,-0.005,-0.011723995691288));
#1522=CARTESIAN_POINT('',(-0.0489859574884176,-0.005,-0.011723995691288));
#1523=CARTESIAN_POINT('',(-0.0489859574884176,-0.005,0.018276004308712));
#1524=CARTESIAN_POINT('',(-0.0477359574884176,-0.005,-0.012973995691288));
#1525=CARTESIAN_POINT('',(-0.0484859574884176,-0.002,-0.012223995691288));
#1526=CARTESIAN_POINT('',(-0.0470717439260445,-0.000585786437626909,-0.0136382092536611));
#1527=CARTESIAN_POINT('',(-0.0470717439260445,-0.005,-0.0136382092536611));
#1528=CARTESIAN_POINT('',(-0.0470717439260445,-0.00441421356237309,-0.0136382092536611));
#1529=CARTESIAN_POINT('',(-0.0484859574884176,-0.003,-0.012223995691288));
#1530=CARTESIAN_POINT('',(-0.0484859574884176,-0.005,-0.012223995691288));
#1531=CARTESIAN_POINT('',(-0.0477359574884176,-0.005,-0.012973995691288));
#1532=CARTESIAN_POINT('',(-0.00523595748841762,-0.005,0.018276004308712));
#1533=CARTESIAN_POINT('',(-0.0407859574884177,-0.005,-0.012223995691288));
#1534=CARTESIAN_POINT('',(-0.0427859574884176,-0.005,-0.012223995691288));
#1535=CARTESIAN_POINT('',(-0.0427859574884176,-0.005,0.050776004308712));
#1536=CARTESIAN_POINT('',(-0.0427859574884176,-0.005,0.048776004308712));
#1537=CARTESIAN_POINT('',(-0.00523595748841762,-0.005,0.048776004308712));
#1538=CARTESIAN_POINT('',(0.0372640425115824,-0.005,-0.012973995691288));
#1539=CARTESIAN_POINT('',(0.0365998289492093,-0.005,-0.0136382092536611));
#1540=CARTESIAN_POINT('',(0.0365998289492093,-0.00441421356237309,-0.0136382092536611));
#1541=CARTESIAN_POINT('',(0.0365998289492093,-0.000585786437626909,-0.0136382092536611));
#1542=CARTESIAN_POINT('',(0.0380140425115824,-0.002,-0.012223995691288));
#1543=CARTESIAN_POINT('',(0.0385140425115824,-0.005,-0.011723995691288));
#1544=CARTESIAN_POINT('',(0.0385140425115824,-0.005,-0.011723995691288));
#1545=CARTESIAN_POINT('',(0.0372640425115824,-0.005,-0.012973995691288));
#1546=CARTESIAN_POINT('',(0.0380140425115824,-0.005,-0.012223995691288));
#1547=CARTESIAN_POINT('',(0.0380140425115824,-0.003,-0.012223995691288));
#1548=CARTESIAN_POINT('',(0.0385140425115824,-0.005,0.018276004308712));
#1549=CARTESIAN_POINT('',(0.0385140425115824,-0.005,0.048276004308712));
#1550=CARTESIAN_POINT('',(0.0385140425115824,-0.005,0.048276004308712));
#1551=CARTESIAN_POINT('',(0.0385140425115824,-0.005,0.018276004308712));
#1552=CARTESIAN_POINT('',(0.0372640425115824,-0.005,0.049526004308712));
#1553=CARTESIAN_POINT('',(0.0380140425115824,-0.002,0.048776004308712));
#1554=CARTESIAN_POINT('',(0.0365998289492093,-0.000585786437626901,0.0501902178710851));
#1555=CARTESIAN_POINT('',(0.0365998289492093,-0.005,0.0501902178710851));
#1556=CARTESIAN_POINT('',(0.0365998289492093,-0.0044142135623731,0.0501902178710851));
#1557=CARTESIAN_POINT('',(0.0380140425115824,-0.003,0.048776004308712));
#1558=CARTESIAN_POINT('',(0.0380140425115824,-0.005,0.048776004308712));
#1559=CARTESIAN_POINT('',(0.0372640425115824,-0.005,0.049526004308712));
#1560=CARTESIAN_POINT('',(-0.00523595748841762,-0.005,0.018276004308712));
#1561=CARTESIAN_POINT('',(0.0323140425115824,-0.005,-0.014223995691288));
#1562=CARTESIAN_POINT('',(0.0323140425115824,-0.005,0.048776004308712));
#1563=CARTESIAN_POINT('',(0.0323140425115824,-0.005,-0.012223995691288));
#1564=CARTESIAN_POINT('',(0.0360140425115824,-0.005,-0.012223995691288));
#1565=CARTESIAN_POINT('',(-0.00523595748841762,-0.005,0.048776004308712));
#1566=CARTESIAN_POINT('',(-0.0427859574884176,-0.007,0.049526004308712));
#1567=CARTESIAN_POINT('',(-0.0427859574884176,-0.007,0.048776004308712));
#1568=CARTESIAN_POINT('',(-0.0427859574884176,-0.007,-0.012223995691288));
#1569=CARTESIAN_POINT('',(-0.0427859574884176,-0.007,0.048776004308712));
#1570=CARTESIAN_POINT('',(-0.0427859574884176,-0.003,0.048776004308712));
#1571=CARTESIAN_POINT('',(-0.0387859574884176,-0.007,0.048776004308712));
#1572=CARTESIAN_POINT('',(-0.0427859574884176,-0.007,-0.012223995691288));
#1573=CARTESIAN_POINT('',(-0.0387859574884176,-0.007,-0.012223995691288));
#1574=CARTESIAN_POINT('',(-0.0427859574884176,-0.003,-0.012223995691288));
#1575=CARTESIAN_POINT('',(-0.0387859574884176,-0.04,0.048776004308712));
#1576=CARTESIAN_POINT('',(-0.0387859574884176,-0.038,0.048776004308712));
#1577=CARTESIAN_POINT('',(-0.00523595748841763,-0.003,0.048776004308712));
#1578=CARTESIAN_POINT('',(-0.0456575303636714,-0.003,0.048776004308712));
#1579=CARTESIAN_POINT('',(-0.00523595748841762,-0.003,-0.012223995691288));
#1580=CARTESIAN_POINT('',(-0.0456575303636714,-0.003,-0.012223995691288));
#1581=CARTESIAN_POINT('',(-0.0387859574884176,-0.04,-0.012223995691288));
#1582=CARTESIAN_POINT('',(-0.0387859574884176,-0.038,-0.012223995691288));
#1583=CARTESIAN_POINT('',(-0.0387859574884176,-0.038,0.049526004308712));
#1584=CARTESIAN_POINT('',(-0.0387859574884176,-0.038,0.048776004308712));
#1585=CARTESIAN_POINT('',(-0.0387859574884176,-0.038,-0.012223995691288));
#1586=CARTESIAN_POINT('',(-0.0387859574884176,-0.038,0.048776004308712));
#1587=CARTESIAN_POINT('',(-0.0387859574884176,-0.038,0.048776004308712));
#1588=CARTESIAN_POINT('',(-0.0456575303636714,-0.005,0.048776004308712));
#1589=CARTESIAN_POINT('',(-0.0456575303636714,-0.002,0.048776004308712));
#1590=CARTESIAN_POINT('',(-0.0456575303636714,-0.04,-0.012223995691288));
#1591=CARTESIAN_POINT('',(-0.0456575303636714,-0.002,-0.012223995691288));
#1592=CARTESIAN_POINT('',(-0.0387859574884176,-0.038,-0.012223995691288));
#1593=CARTESIAN_POINT('',(-0.0387859574884176,-0.038,-0.012223995691288));
#1594=CARTESIAN_POINT('',(-0.00523595748841763,-0.038,0.048776004308712));
#1595=CARTESIAN_POINT('',(0.0283140425115824,-0.038,0.048776004308712));
#1596=CARTESIAN_POINT('',(-0.00523595748841762,-0.002,0.048776004308712));
#1597=CARTESIAN_POINT('',(0.0351856153868362,-0.002,0.048776004308712));
#1598=CARTESIAN_POINT('',(-0.00523595748841761,-0.002,-0.012223995691288));
#1599=CARTESIAN_POINT('',(0.0351856153868362,-0.002,-0.012223995691288));
#1600=CARTESIAN_POINT('',(-0.00523595748841762,-0.038,-0.012223995691288));
#1601=CARTESIAN_POINT('',(0.0283140425115824,-0.038,-0.012223995691288));
#1602=CARTESIAN_POINT('',(0.0283140425115824,-0.038,-0.012973995691288));
#1603=CARTESIAN_POINT('',(0.0283140425115824,-0.038,0.048776004308712));
#1604=CARTESIAN_POINT('',(0.0283140425115824,-0.038,-0.012223995691288));
#1605=CARTESIAN_POINT('',(0.0283140425115824,-0.038,0.048776004308712));
#1606=CARTESIAN_POINT('',(0.0283140425115824,-0.038,0.048776004308712));
#1607=CARTESIAN_POINT('',(0.0351856153868362,-0.04,0.048776004308712));
#1608=CARTESIAN_POINT('',(0.0351856153868362,-0.003,0.048776004308712));
#1609=CARTESIAN_POINT('',(0.0351856153868362,-0.005,-0.012223995691288));
#1610=CARTESIAN_POINT('',(0.0351856153868362,-0.003,-0.012223995691288));
#1611=CARTESIAN_POINT('',(0.0283140425115824,-0.038,-0.012223995691288));
#1612=CARTESIAN_POINT('',(0.0283140425115824,-0.038,-0.012223995691288));
#1613=CARTESIAN_POINT('',(0.0283140425115824,-0.04,0.048776004308712));
#1614=CARTESIAN_POINT('',(0.0283140425115824,-0.007,0.048776004308712));
#1615=CARTESIAN_POINT('',(-0.00523595748841763,-0.003,0.048776004308712));
#1616=CARTESIAN_POINT('',(0.0323140425115824,-0.003,0.048776004308712));
#1617=CARTESIAN_POINT('',(-0.00523595748841762,-0.003,-0.012223995691288));
#1618=CARTESIAN_POINT('',(0.0323140425115824,-0.003,-0.012223995691288));
#1619=CARTESIAN_POINT('',(0.0283140425115824,-0.04,-0.012223995691288));
#1620=CARTESIAN_POINT('',(0.0283140425115824,-0.007,-0.012223995691288));
#1621=CARTESIAN_POINT('',(0.0323140425115824,-0.007,0.048776004308712));
#1622=CARTESIAN_POINT('',(0.0323140425115824,-0.007,0.048776004308712));
#1623=CARTESIAN_POINT('',(0.0323140425115824,-0.007,-0.012223995691288));
#1624=CARTESIAN_POINT('',(0.0323140425115824,-0.007,-0.012223995691288));
#1625=CARTESIAN_POINT('',(0.0323140425115824,-0.007,0.018276004308712));
#1626=CARTESIAN_POINT('',(0.00531404251158239,-0.02,0.00133600430871198));
#1627=CARTESIAN_POINT('',(0.00531404251158239,-0.02,-0.00116399569128802));
#1628=CARTESIAN_POINT('',(0.00531404251158239,-0.02,0.00883600430871198));
#1629=CARTESIAN_POINT('',(0.00531404251158239,-0.021085,0.00883600430871198));
#1630=CARTESIAN_POINT('',(0.00531404251158239,-0.025,0.00883600430871198));
#1631=CARTESIAN_POINT('',(0.00531404251158239,-0.025,0.00623100430871198));
#1632=CARTESIAN_POINT('',(0.00531404251158239,-0.025,-0.00116399569128802));
#1633=CARTESIAN_POINT('',(0.00531404251158239,-0.0225,-0.00116399569128802));
#1634=CARTESIAN_POINT('',(0.00531404251158239,-0.020915,0.037776004308712));
#1635=CARTESIAN_POINT('',(0.00531404251158239,-0.02,0.037776004308712));
#1636=CARTESIAN_POINT('',(0.00531404251158239,-0.025,0.037776004308712));
#1637=CARTESIAN_POINT('',(0.00531404251158239,-0.025,0.032776004308712));
#1638=CARTESIAN_POINT('',(0.00531404251158239,-0.025,0.027776004308712));
#1639=CARTESIAN_POINT('',(0.00531404251158239,-0.0225,0.027776004308712));
#1640=CARTESIAN_POINT('',(0.00531404251158239,-0.02,0.027776004308712));
#1641=CARTESIAN_POINT('',(0.00531404251158239,-0.02,0.0311631426985325));
#1642=MECHANICAL_DESIGN_GEOMETRIC_PRESENTATION_REPRESENTATION('',(#963),
#1643);
#1643=(
GEOMETRIC_REPRESENTATION_CONTEXT(3)
GLOBAL_UNCERTAINTY_ASSIGNED_CONTEXT((#1644))
GLOBAL_UNIT_ASSIGNED_CONTEXT((#1647,#1646,#1645))
REPRESENTATION_CONTEXT('Part 1','TOP_LEVEL_ASSEMBLY_PART')
);
#1644=UNCERTAINTY_MEASURE_WITH_UNIT(LENGTH_MEASURE(1.E-8),#1647,
'DISTANCE_ACCURACY_VALUE','Maximum Tolerance applied to model');
#1645=(
NAMED_UNIT(*)
SI_UNIT($,.STERADIAN.)
SOLID_ANGLE_UNIT()
);
#1646=(
NAMED_UNIT(*)
PLANE_ANGLE_UNIT()
SI_UNIT($,.RADIAN.)
);
#1647=(
LENGTH_UNIT()
NAMED_UNIT(*)
SI_UNIT($,.METRE.)
);
#1648=PRODUCT_DEFINITION_SHAPE('','',#1649);
#1649=PRODUCT_DEFINITION('','',#1651,#1650);
#1650=PRODUCT_DEFINITION_CONTEXT('',#1657,'design');
#1651=PRODUCT_DEFINITION_FORMATION_WITH_SPECIFIED_SOURCE('','',#1653,
 .NOT_KNOWN.);
#1652=PRODUCT_RELATED_PRODUCT_CATEGORY('','',(#1653));
#1653=PRODUCT('Part 1','Part 1','Part 1',(#1655));
#1654=PRODUCT_CATEGORY('','');
#1655=PRODUCT_CONTEXT('',#1657,'mechanical');
#1656=APPLICATION_PROTOCOL_DEFINITION('international standard',
'ap242_managed_model_based_3d_engineering',2020,#1657);
#1657=APPLICATION_CONTEXT('managed model based 3d engineering');
ENDSEC;
END-ISO-10303-21;
