ISO-10303-21;
HEADER;
/* Generated by software containing ST-Developer
 * from STEP Tools, Inc. (www.steptools.com) 
 */
/* OPTION: using custom renumber hook */

FILE_DESCRIPTION(
/* description */ ('STEP AP242 Edition 2',
'CAx-IF Rec.Pracs.---Representation and Presentation of Product Manufa
cturing Information (PMI)---4.0---2014-10-13',
'CAx-IF Rec.Pracs.---3D Tessellated Geometry---0.4---2014-09-14','2;1',
'CAx-IF Rec.Pracs.---User Defined Attributes---1.5---2016-08-15'),
/* implementation_level */ '2;1');

FILE_NAME(
/* name */ 'linkage',
/* time_stamp */ '2026-07-24T19:17:29Z',
/* author */ (''),
/* organization */ (''),
/* preprocessor_version */ 'ST-DEVELOPER v20',
/* originating_system */ 'ONSHAPE BY PTC INC, 1.218',
/* authorisation */ '  ');

FILE_SCHEMA (('AP242_MANAGED_MODEL_BASED_3D_ENGINEERING_MIM_LF { 1 0 10303 442 3 1 4 }'));
ENDSEC;

DATA;
#10=TOROIDAL_SURFACE('',#874,0.012,0.002);
#11=TOROIDAL_SURFACE('',#882,0.0059,0.002);
#12=SHAPE_REPRESENTATION_RELATIONSHIP('','',#803,#15);
#13=SHAPE_REPRESENTATION_RELATIONSHIP('','',#804,#16);
#14=SHAPE_REPRESENTATION_RELATIONSHIP('','',#805,#17);
#15=ADVANCED_BREP_SHAPE_REPRESENTATION('',(#797),#1422);
#16=ADVANCED_BREP_SHAPE_REPRESENTATION('',(#798),#1423);
#17=ADVANCED_BREP_SHAPE_REPRESENTATION('',(#799),#1424);
#18=B_SPLINE_CURVE_WITH_KNOTS('',4,(#1124,#1125,#1126,#1127,#1128),
 .UNSPECIFIED.,.F.,.F.,(5,5),(0.0162457815914622,0.206722131752268),
 .PIECEWISE_BEZIER_KNOTS.);
#19=B_SPLINE_CURVE_WITH_KNOTS('',4,(#1133,#1134,#1135,#1136,#1137),
 .UNSPECIFIED.,.F.,.F.,(5,5),(0.0162457815914622,0.206722131752268),
 .PIECEWISE_BEZIER_KNOTS.);
#20=B_SPLINE_CURVE_WITH_KNOTS('',4,(#1162,#1163,#1164,#1165,#1166),
 .UNSPECIFIED.,.F.,.F.,(5,5),(0.206722131752268,0.88469751404271),
 .PIECEWISE_BEZIER_KNOTS.);
#21=B_SPLINE_CURVE_WITH_KNOTS('',4,(#1167,#1168,#1169,#1170,#1171),
 .UNSPECIFIED.,.F.,.F.,(5,5),(0.011223315146255,1.),
 .PIECEWISE_BEZIER_KNOTS.);
#22=B_SPLINE_CURVE_WITH_KNOTS('',4,(#1173,#1174,#1175,#1176,#1177),
 .UNSPECIFIED.,.F.,.F.,(5,5),(0.011223315146255,1.),
 .PIECEWISE_BEZIER_KNOTS.);
#23=B_SPLINE_CURVE_WITH_KNOTS('',4,(#1179,#1180,#1181,#1182,#1183),
 .UNSPECIFIED.,.F.,.F.,(5,5),(0.011223315146255,1.),
 .PIECEWISE_BEZIER_KNOTS.);
#24=B_SPLINE_CURVE_WITH_KNOTS('',4,(#1193,#1194,#1195,#1196,#1197),
 .UNSPECIFIED.,.F.,.F.,(5,5),(0.206722131752268,0.88469751404271),
 .PIECEWISE_BEZIER_KNOTS.);
#25=B_SPLINE_CURVE_WITH_KNOTS('',4,(#1201,#1202,#1203,#1204,#1205),
 .UNSPECIFIED.,.F.,.F.,(5,5),(0.011223315146255,1.),
 .PIECEWISE_BEZIER_KNOTS.);
#26=B_SPLINE_CURVE_WITH_KNOTS('',4,(#1282,#1283,#1284,#1285,#1286),
 .UNSPECIFIED.,.F.,.F.,(5,5),(0.206722131752268,0.88469751404271),
 .PIECEWISE_BEZIER_KNOTS.);
#27=B_SPLINE_CURVE_WITH_KNOTS('',4,(#1294,#1295,#1296,#1297,#1298),
 .UNSPECIFIED.,.F.,.F.,(5,5),(0.011223315146255,1.),
 .PIECEWISE_BEZIER_KNOTS.);
#28=B_SPLINE_CURVE_WITH_KNOTS('',4,(#1313,#1314,#1315,#1316,#1317),
 .UNSPECIFIED.,.F.,.F.,(5,5),(0.011223315146255,1.),
 .PIECEWISE_BEZIER_KNOTS.);
#29=B_SPLINE_CURVE_WITH_KNOTS('',4,(#1330,#1331,#1332,#1333,#1334),
 .UNSPECIFIED.,.F.,.F.,(5,5),(0.206722131752268,0.88469751404271),
 .PIECEWISE_BEZIER_KNOTS.);
#30=B_SPLINE_CURVE_WITH_KNOTS('',3,(#1379,#1380,#1381,#1382,#1383),
 .UNSPECIFIED.,.F.,.F.,(4,1,4),(0.,0.00347297915861282,0.00694595831722565),
 .UNSPECIFIED.);
#31=B_SPLINE_CURVE_WITH_KNOTS('',3,(#1392,#1393,#1394,#1395,#1396),
 .UNSPECIFIED.,.F.,.F.,(4,1,4),(0.,0.00347297915861282,0.00694595831722565),
 .UNSPECIFIED.);
#32=B_SPLINE_SURFACE_WITH_KNOTS('',3,1,((#1116,#1117),(#1118,#1119),(#1120,
#1121),(#1122,#1123)),.SURF_OF_LINEAR_EXTRUSION.,.F.,.F.,.F.,(4,4),(2,2),
(0.0162457815914622,0.206722131752268),(0.,1.),.PIECEWISE_BEZIER_KNOTS.);
#33=B_SPLINE_SURFACE_WITH_KNOTS('',3,1,((#1206,#1207),(#1208,#1209),(#1210,
#1211),(#1212,#1213),(#1214,#1215)),.SURF_OF_LINEAR_EXTRUSION.,.F.,.F.,
 .F.,(4,1,4),(2,2),(0.206722131752268,0.398372501710552,0.590022871668837),
(0.,1.),.UNSPECIFIED.);
#34=B_SPLINE_SURFACE_WITH_KNOTS('',3,1,((#1217,#1218),(#1219,#1220),(#1221,
#1222),(#1223,#1224),(#1225,#1226),(#1227,#1228),(#1229,#1230)),
 .SURF_OF_LINEAR_EXTRUSION.,.F.,.F.,.F.,(4,1,1,1,4),(2,2),(0.011223315146255,
0.163070727723513,0.31491814030077,0.466765552878028,0.618612965455286),
(0.,1.),.UNSPECIFIED.);
#35=B_SPLINE_SURFACE_WITH_KNOTS('',3,1,((#1299,#1300),(#1301,#1302),(#1303,
#1304),(#1305,#1306),(#1307,#1308)),.SURF_OF_LINEAR_EXTRUSION.,.F.,.F.,
 .F.,(4,1,4),(2,2),(0.618612965456122,0.809306482728061,1.),(0.,1.),
 .UNSPECIFIED.);
#36=B_SPLINE_SURFACE_WITH_KNOTS('',3,1,((#1318,#1319),(#1320,#1321),(#1322,
#1323),(#1324,#1325),(#1326,#1327)),.SURF_OF_LINEAR_EXTRUSION.,.F.,.F.,
 .F.,(4,1,4),(2,2),(0.590022871668828,0.737360192855769,0.88469751404271),
(0.,1.),.UNSPECIFIED.);
#37=CIRCLE('',#811,0.011125);
#38=CIRCLE('',#812,0.011125);
#39=CIRCLE('',#814,0.608007685529885);
#40=CIRCLE('',#815,0.608007685529885);
#41=CIRCLE('',#817,0.018);
#42=CIRCLE('',#818,0.018);
#43=CIRCLE('',#820,0.185741804597198);
#44=CIRCLE('',#821,0.185741804597198);
#45=CIRCLE('',#823,0.246738279133338);
#46=CIRCLE('',#827,0.246738279133338);
#47=CIRCLE('',#839,0.0039);
#48=CIRCLE('',#840,0.552358171092502);
#49=CIRCLE('',#841,0.556009272267174);
#50=CIRCLE('',#842,0.01);
#51=CIRCLE('',#844,0.01);
#52=CIRCLE('',#845,0.556009272267174);
#53=CIRCLE('',#846,0.552358171092502);
#54=CIRCLE('',#852,0.0039);
#55=CIRCLE('',#857,0.01);
#56=CIRCLE('',#858,0.01);
#57=CIRCLE('',#859,0.01);
#58=CIRCLE('',#861,0.0041);
#59=CIRCLE('',#862,0.0041);
#60=CIRCLE('',#865,0.01);
#61=CIRCLE('',#866,0.01);
#62=CIRCLE('',#869,0.012);
#63=CIRCLE('',#871,0.002);
#64=CIRCLE('',#872,0.002);
#65=CIRCLE('',#877,0.0059);
#66=CIRCLE('',#879,0.0039);
#67=CIRCLE('',#880,0.0039);
#68=CYLINDRICAL_SURFACE('',#810,0.011125);
#69=CYLINDRICAL_SURFACE('',#813,0.608007685529885);
#70=CYLINDRICAL_SURFACE('',#816,0.018);
#71=CYLINDRICAL_SURFACE('',#819,0.185741804597198);
#72=CYLINDRICAL_SURFACE('',#829,0.246738279133338);
#73=CYLINDRICAL_SURFACE('',#847,0.01);
#74=CYLINDRICAL_SURFACE('',#848,0.555870021558978);
#75=CYLINDRICAL_SURFACE('',#849,0.552358171092502);
#76=CYLINDRICAL_SURFACE('',#851,0.0039);
#77=CYLINDRICAL_SURFACE('',#856,0.01);
#78=CYLINDRICAL_SURFACE('',#860,0.0041);
#79=CYLINDRICAL_SURFACE('',#864,0.01);
#80=CYLINDRICAL_SURFACE('',#870,0.002);
#81=CYLINDRICAL_SURFACE('',#878,0.0039);
#82=ORIENTED_EDGE('',*,*,#284,.T.);
#83=ORIENTED_EDGE('',*,*,#285,.T.);
#84=ORIENTED_EDGE('',*,*,#286,.F.);
#85=ORIENTED_EDGE('',*,*,#287,.F.);
#86=ORIENTED_EDGE('',*,*,#288,.F.);
#87=ORIENTED_EDGE('',*,*,#289,.T.);
#88=ORIENTED_EDGE('',*,*,#290,.T.);
#89=ORIENTED_EDGE('',*,*,#287,.T.);
#90=ORIENTED_EDGE('',*,*,#291,.F.);
#91=ORIENTED_EDGE('',*,*,#284,.F.);
#92=ORIENTED_EDGE('',*,*,#290,.F.);
#93=ORIENTED_EDGE('',*,*,#292,.T.);
#94=ORIENTED_EDGE('',*,*,#293,.F.);
#95=ORIENTED_EDGE('',*,*,#294,.F.);
#96=ORIENTED_EDGE('',*,*,#295,.F.);
#97=ORIENTED_EDGE('',*,*,#296,.T.);
#98=ORIENTED_EDGE('',*,*,#297,.T.);
#99=ORIENTED_EDGE('',*,*,#298,.F.);
#100=ORIENTED_EDGE('',*,*,#299,.F.);
#101=ORIENTED_EDGE('',*,*,#300,.T.);
#102=ORIENTED_EDGE('',*,*,#295,.T.);
#103=ORIENTED_EDGE('',*,*,#301,.T.);
#104=ORIENTED_EDGE('',*,*,#302,.F.);
#105=ORIENTED_EDGE('',*,*,#303,.F.);
#106=ORIENTED_EDGE('',*,*,#299,.T.);
#107=ORIENTED_EDGE('',*,*,#304,.T.);
#108=ORIENTED_EDGE('',*,*,#305,.F.);
#109=ORIENTED_EDGE('',*,*,#306,.F.);
#110=ORIENTED_EDGE('',*,*,#302,.T.);
#111=ORIENTED_EDGE('',*,*,#307,.F.);
#112=ORIENTED_EDGE('',*,*,#308,.F.);
#113=ORIENTED_EDGE('',*,*,#296,.F.);
#114=ORIENTED_EDGE('',*,*,#300,.F.);
#115=ORIENTED_EDGE('',*,*,#303,.T.);
#116=ORIENTED_EDGE('',*,*,#306,.T.);
#117=ORIENTED_EDGE('',*,*,#309,.T.);
#118=ORIENTED_EDGE('',*,*,#286,.T.);
#119=ORIENTED_EDGE('',*,*,#310,.T.);
#120=ORIENTED_EDGE('',*,*,#288,.T.);
#121=ORIENTED_EDGE('',*,*,#311,.T.);
#122=ORIENTED_EDGE('',*,*,#312,.T.);
#123=ORIENTED_EDGE('',*,*,#313,.T.);
#124=ORIENTED_EDGE('',*,*,#314,.F.);
#125=ORIENTED_EDGE('',*,*,#315,.F.);
#126=ORIENTED_EDGE('',*,*,#316,.T.);
#127=ORIENTED_EDGE('',*,*,#292,.F.);
#128=ORIENTED_EDGE('',*,*,#317,.T.);
#129=ORIENTED_EDGE('',*,*,#318,.T.);
#130=ORIENTED_EDGE('',*,*,#319,.F.);
#131=ORIENTED_EDGE('',*,*,#304,.F.);
#132=ORIENTED_EDGE('',*,*,#301,.F.);
#133=ORIENTED_EDGE('',*,*,#298,.T.);
#134=ORIENTED_EDGE('',*,*,#294,.T.);
#135=ORIENTED_EDGE('',*,*,#293,.T.);
#136=ORIENTED_EDGE('',*,*,#320,.F.);
#137=ORIENTED_EDGE('',*,*,#317,.F.);
#138=ORIENTED_EDGE('',*,*,#297,.F.);
#139=ORIENTED_EDGE('',*,*,#308,.T.);
#140=ORIENTED_EDGE('',*,*,#319,.T.);
#141=ORIENTED_EDGE('',*,*,#321,.T.);
#142=ORIENTED_EDGE('',*,*,#312,.F.);
#143=ORIENTED_EDGE('',*,*,#311,.F.);
#144=ORIENTED_EDGE('',*,*,#309,.F.);
#145=ORIENTED_EDGE('',*,*,#305,.T.);
#146=ORIENTED_EDGE('',*,*,#307,.T.);
#147=ORIENTED_EDGE('',*,*,#321,.F.);
#148=ORIENTED_EDGE('',*,*,#318,.F.);
#149=ORIENTED_EDGE('',*,*,#320,.T.);
#150=ORIENTED_EDGE('',*,*,#322,.F.);
#151=ORIENTED_EDGE('',*,*,#323,.F.);
#152=ORIENTED_EDGE('',*,*,#324,.F.);
#153=ORIENTED_EDGE('',*,*,#325,.F.);
#154=ORIENTED_EDGE('',*,*,#326,.F.);
#155=ORIENTED_EDGE('',*,*,#314,.T.);
#156=ORIENTED_EDGE('',*,*,#327,.T.);
#157=ORIENTED_EDGE('',*,*,#323,.T.);
#158=ORIENTED_EDGE('',*,*,#316,.F.);
#159=ORIENTED_EDGE('',*,*,#328,.F.);
#160=ORIENTED_EDGE('',*,*,#325,.T.);
#161=ORIENTED_EDGE('',*,*,#329,.T.);
#162=ORIENTED_EDGE('',*,*,#328,.T.);
#163=ORIENTED_EDGE('',*,*,#315,.T.);
#164=ORIENTED_EDGE('',*,*,#326,.T.);
#165=ORIENTED_EDGE('',*,*,#322,.T.);
#166=ORIENTED_EDGE('',*,*,#313,.F.);
#167=ORIENTED_EDGE('',*,*,#329,.F.);
#168=ORIENTED_EDGE('',*,*,#324,.T.);
#169=ORIENTED_EDGE('',*,*,#327,.F.);
#170=ORIENTED_EDGE('',*,*,#291,.T.);
#171=ORIENTED_EDGE('',*,*,#289,.F.);
#172=ORIENTED_EDGE('',*,*,#310,.F.);
#173=ORIENTED_EDGE('',*,*,#285,.F.);
#174=ORIENTED_EDGE('',*,*,#330,.F.);
#175=ORIENTED_EDGE('',*,*,#331,.T.);
#176=ORIENTED_EDGE('',*,*,#332,.T.);
#177=ORIENTED_EDGE('',*,*,#333,.F.);
#178=ORIENTED_EDGE('',*,*,#331,.F.);
#179=ORIENTED_EDGE('',*,*,#334,.T.);
#180=ORIENTED_EDGE('',*,*,#335,.T.);
#181=ORIENTED_EDGE('',*,*,#336,.F.);
#182=ORIENTED_EDGE('',*,*,#335,.F.);
#183=ORIENTED_EDGE('',*,*,#337,.T.);
#184=ORIENTED_EDGE('',*,*,#338,.T.);
#185=ORIENTED_EDGE('',*,*,#339,.F.);
#186=ORIENTED_EDGE('',*,*,#340,.F.);
#187=ORIENTED_EDGE('',*,*,#333,.T.);
#188=ORIENTED_EDGE('',*,*,#341,.T.);
#189=ORIENTED_EDGE('',*,*,#338,.F.);
#190=ORIENTED_EDGE('',*,*,#342,.T.);
#191=ORIENTED_EDGE('',*,*,#343,.F.);
#192=ORIENTED_EDGE('',*,*,#344,.T.);
#193=ORIENTED_EDGE('',*,*,#345,.T.);
#194=ORIENTED_EDGE('',*,*,#346,.T.);
#195=ORIENTED_EDGE('',*,*,#347,.F.);
#196=ORIENTED_EDGE('',*,*,#348,.F.);
#197=ORIENTED_EDGE('',*,*,#332,.F.);
#198=ORIENTED_EDGE('',*,*,#336,.T.);
#199=ORIENTED_EDGE('',*,*,#339,.T.);
#200=ORIENTED_EDGE('',*,*,#341,.F.);
#201=ORIENTED_EDGE('',*,*,#349,.F.);
#202=ORIENTED_EDGE('',*,*,#348,.T.);
#203=ORIENTED_EDGE('',*,*,#350,.F.);
#204=ORIENTED_EDGE('',*,*,#351,.F.);
#205=ORIENTED_EDGE('',*,*,#344,.F.);
#206=ORIENTED_EDGE('',*,*,#352,.T.);
#207=ORIENTED_EDGE('',*,*,#353,.T.);
#208=ORIENTED_EDGE('',*,*,#354,.T.);
#209=ORIENTED_EDGE('',*,*,#353,.F.);
#210=ORIENTED_EDGE('',*,*,#355,.T.);
#211=ORIENTED_EDGE('',*,*,#351,.T.);
#212=ORIENTED_EDGE('',*,*,#356,.T.);
#213=ORIENTED_EDGE('',*,*,#357,.F.);
#214=ORIENTED_EDGE('',*,*,#358,.F.);
#215=ORIENTED_EDGE('',*,*,#347,.T.);
#216=ORIENTED_EDGE('',*,*,#359,.F.);
#217=ORIENTED_EDGE('',*,*,#356,.F.);
#218=ORIENTED_EDGE('',*,*,#350,.T.);
#219=ORIENTED_EDGE('',*,*,#346,.F.);
#220=ORIENTED_EDGE('',*,*,#360,.F.);
#221=ORIENTED_EDGE('',*,*,#357,.T.);
#222=ORIENTED_EDGE('',*,*,#359,.T.);
#223=ORIENTED_EDGE('',*,*,#345,.F.);
#224=ORIENTED_EDGE('',*,*,#354,.F.);
#225=ORIENTED_EDGE('',*,*,#358,.T.);
#226=ORIENTED_EDGE('',*,*,#360,.T.);
#227=ORIENTED_EDGE('',*,*,#355,.F.);
#228=ORIENTED_EDGE('',*,*,#352,.F.);
#229=ORIENTED_EDGE('',*,*,#343,.T.);
#230=ORIENTED_EDGE('',*,*,#349,.T.);
#231=ORIENTED_EDGE('',*,*,#361,.T.);
#232=ORIENTED_EDGE('',*,*,#342,.F.);
#233=ORIENTED_EDGE('',*,*,#361,.F.);
#234=ORIENTED_EDGE('',*,*,#330,.T.);
#235=ORIENTED_EDGE('',*,*,#340,.T.);
#236=ORIENTED_EDGE('',*,*,#337,.F.);
#237=ORIENTED_EDGE('',*,*,#334,.F.);
#238=ORIENTED_EDGE('',*,*,#362,.T.);
#239=ORIENTED_EDGE('',*,*,#363,.T.);
#240=ORIENTED_EDGE('',*,*,#364,.F.);
#241=ORIENTED_EDGE('',*,*,#365,.T.);
#242=ORIENTED_EDGE('',*,*,#366,.F.);
#243=ORIENTED_EDGE('',*,*,#367,.F.);
#244=ORIENTED_EDGE('',*,*,#368,.T.);
#245=ORIENTED_EDGE('',*,*,#364,.T.);
#246=ORIENTED_EDGE('',*,*,#369,.T.);
#247=ORIENTED_EDGE('',*,*,#370,.F.);
#248=ORIENTED_EDGE('',*,*,#371,.F.);
#249=ORIENTED_EDGE('',*,*,#372,.T.);
#250=ORIENTED_EDGE('',*,*,#370,.T.);
#251=ORIENTED_EDGE('',*,*,#373,.T.);
#252=ORIENTED_EDGE('',*,*,#374,.F.);
#253=ORIENTED_EDGE('',*,*,#375,.F.);
#254=ORIENTED_EDGE('',*,*,#376,.F.);
#255=ORIENTED_EDGE('',*,*,#362,.F.);
#256=ORIENTED_EDGE('',*,*,#377,.T.);
#257=ORIENTED_EDGE('',*,*,#378,.T.);
#258=ORIENTED_EDGE('',*,*,#374,.T.);
#259=ORIENTED_EDGE('',*,*,#378,.F.);
#260=ORIENTED_EDGE('',*,*,#379,.T.);
#261=ORIENTED_EDGE('',*,*,#371,.T.);
#262=ORIENTED_EDGE('',*,*,#375,.T.);
#263=ORIENTED_EDGE('',*,*,#380,.F.);
#264=ORIENTED_EDGE('',*,*,#381,.T.);
#265=ORIENTED_EDGE('',*,*,#381,.F.);
#266=ORIENTED_EDGE('',*,*,#367,.T.);
#267=ORIENTED_EDGE('',*,*,#372,.F.);
#268=ORIENTED_EDGE('',*,*,#379,.F.);
#269=ORIENTED_EDGE('',*,*,#377,.F.);
#270=ORIENTED_EDGE('',*,*,#365,.F.);
#271=ORIENTED_EDGE('',*,*,#368,.F.);
#272=ORIENTED_EDGE('',*,*,#366,.T.);
#273=ORIENTED_EDGE('',*,*,#382,.T.);
#274=ORIENTED_EDGE('',*,*,#369,.F.);
#275=ORIENTED_EDGE('',*,*,#363,.F.);
#276=ORIENTED_EDGE('',*,*,#376,.T.);
#277=ORIENTED_EDGE('',*,*,#373,.F.);
#278=ORIENTED_EDGE('',*,*,#380,.T.);
#279=ORIENTED_EDGE('',*,*,#383,.T.);
#280=ORIENTED_EDGE('',*,*,#384,.F.);
#281=ORIENTED_EDGE('',*,*,#384,.T.);
#282=ORIENTED_EDGE('',*,*,#382,.F.);
#283=ORIENTED_EDGE('',*,*,#383,.F.);
#284=EDGE_CURVE('',#385,#386,#456,.T.);
#285=EDGE_CURVE('',#386,#387,#457,.T.);
#286=EDGE_CURVE('',#388,#387,#458,.T.);
#287=EDGE_CURVE('',#385,#388,#459,.T.);
#288=EDGE_CURVE('',#389,#388,#460,.T.);
#289=EDGE_CURVE('',#389,#390,#461,.T.);
#290=EDGE_CURVE('',#390,#385,#462,.T.);
#291=EDGE_CURVE('',#386,#390,#463,.T.);
#292=EDGE_CURVE('',#391,#391,#37,.T.);
#293=EDGE_CURVE('',#392,#392,#38,.T.);
#294=EDGE_CURVE('',#393,#394,#18,.T.);
#295=EDGE_CURVE('',#395,#393,#464,.T.);
#296=EDGE_CURVE('',#395,#396,#19,.T.);
#297=EDGE_CURVE('',#396,#394,#465,.T.);
#298=EDGE_CURVE('',#397,#393,#39,.F.);
#299=EDGE_CURVE('',#398,#397,#466,.T.);
#300=EDGE_CURVE('',#398,#395,#40,.F.);
#301=EDGE_CURVE('',#397,#399,#41,.T.);
#302=EDGE_CURVE('',#400,#399,#467,.T.);
#303=EDGE_CURVE('',#398,#400,#42,.T.);
#304=EDGE_CURVE('',#399,#401,#43,.F.);
#305=EDGE_CURVE('',#402,#401,#468,.T.);
#306=EDGE_CURVE('',#400,#402,#44,.F.);
#307=EDGE_CURVE('',#403,#404,#469,.T.);
#308=EDGE_CURVE('',#396,#403,#20,.T.);
#309=EDGE_CURVE('',#402,#388,#21,.T.);
#310=EDGE_CURVE('',#387,#389,#470,.T.);
#311=EDGE_CURVE('',#388,#405,#22,.T.);
#312=EDGE_CURVE('',#405,#404,#23,.T.);
#313=EDGE_CURVE('',#406,#407,#471,.T.);
#314=EDGE_CURVE('',#408,#407,#472,.T.);
#315=EDGE_CURVE('',#409,#408,#473,.T.);
#316=EDGE_CURVE('',#409,#406,#45,.T.);
#317=EDGE_CURVE('',#394,#410,#24,.T.);
#318=EDGE_CURVE('',#410,#411,#474,.T.);
#319=EDGE_CURVE('',#401,#411,#25,.T.);
#320=EDGE_CURVE('',#410,#403,#475,.F.);
#321=EDGE_CURVE('',#411,#404,#476,.F.);
#322=EDGE_CURVE('',#412,#413,#477,.T.);
#323=EDGE_CURVE('',#414,#412,#478,.T.);
#324=EDGE_CURVE('',#415,#414,#479,.T.);
#325=EDGE_CURVE('',#413,#415,#46,.T.);
#326=EDGE_CURVE('',#408,#412,#480,.T.);
#327=EDGE_CURVE('',#407,#414,#481,.T.);
#328=EDGE_CURVE('',#413,#409,#482,.T.);
#329=EDGE_CURVE('',#415,#406,#483,.T.);
#330=EDGE_CURVE('',#416,#417,#484,.T.);
#331=EDGE_CURVE('',#416,#418,#485,.T.);
#332=EDGE_CURVE('',#418,#419,#486,.T.);
#333=EDGE_CURVE('',#417,#419,#487,.T.);
#334=EDGE_CURVE('',#416,#420,#488,.T.);
#335=EDGE_CURVE('',#420,#421,#489,.T.);
#336=EDGE_CURVE('',#418,#421,#490,.T.);
#337=EDGE_CURVE('',#420,#422,#491,.T.);
#338=EDGE_CURVE('',#422,#423,#492,.T.);
#339=EDGE_CURVE('',#421,#423,#493,.T.);
#340=EDGE_CURVE('',#417,#422,#494,.T.);
#341=EDGE_CURVE('',#419,#423,#495,.T.);
#342=EDGE_CURVE('',#424,#424,#47,.T.);
#343=EDGE_CURVE('',#425,#426,#496,.T.);
#344=EDGE_CURVE('',#425,#427,#26,.T.);
#345=EDGE_CURVE('',#427,#428,#48,.F.);
#346=EDGE_CURVE('',#428,#429,#49,.T.);
#347=EDGE_CURVE('',#430,#429,#50,.T.);
#348=EDGE_CURVE('',#426,#430,#27,.T.);
#349=EDGE_CURVE('',#426,#431,#497,.F.);
#350=EDGE_CURVE('',#432,#430,#498,.T.);
#351=EDGE_CURVE('',#431,#432,#28,.T.);
#352=EDGE_CURVE('',#425,#433,#499,.F.);
#353=EDGE_CURVE('',#433,#434,#29,.T.);
#354=EDGE_CURVE('',#434,#427,#500,.T.);
#355=EDGE_CURVE('',#433,#431,#501,.T.);
#356=EDGE_CURVE('',#432,#435,#51,.T.);
#357=EDGE_CURVE('',#436,#435,#52,.T.);
#358=EDGE_CURVE('',#434,#436,#53,.F.);
#359=EDGE_CURVE('',#435,#429,#502,.T.);
#360=EDGE_CURVE('',#436,#428,#503,.T.);
#361=EDGE_CURVE('',#437,#437,#54,.T.);
#362=EDGE_CURVE('',#438,#439,#504,.T.);
#363=EDGE_CURVE('',#439,#440,#55,.T.);
#364=EDGE_CURVE('',#441,#440,#505,.T.);
#365=EDGE_CURVE('',#441,#438,#56,.T.);
#366=EDGE_CURVE('',#442,#442,#57,.T.);
#367=EDGE_CURVE('',#443,#443,#58,.T.);
#368=EDGE_CURVE('',#444,#444,#59,.T.);
#369=EDGE_CURVE('',#440,#445,#506,.T.);
#370=EDGE_CURVE('',#446,#445,#507,.T.);
#371=EDGE_CURVE('',#447,#446,#508,.T.);
#372=EDGE_CURVE('',#447,#441,#30,.T.);
#373=EDGE_CURVE('',#445,#448,#60,.T.);
#374=EDGE_CURVE('',#449,#448,#509,.T.);
#375=EDGE_CURVE('',#446,#449,#61,.T.);
#376=EDGE_CURVE('',#439,#448,#510,.T.);
#377=EDGE_CURVE('',#438,#450,#31,.F.);
#378=EDGE_CURVE('',#450,#449,#511,.T.);
#379=EDGE_CURVE('',#450,#447,#62,.F.);
#380=EDGE_CURVE('',#451,#451,#63,.T.);
#381=EDGE_CURVE('',#452,#452,#64,.T.);
#382=EDGE_CURVE('',#453,#453,#65,.T.);
#383=EDGE_CURVE('',#454,#454,#66,.F.);
#384=EDGE_CURVE('',#455,#455,#67,.T.);
#385=VERTEX_POINT('',#1096);
#386=VERTEX_POINT('',#1097);
#387=VERTEX_POINT('',#1099);
#388=VERTEX_POINT('',#1101);
#389=VERTEX_POINT('',#1105);
#390=VERTEX_POINT('',#1107);
#391=VERTEX_POINT('',#1113);
#392=VERTEX_POINT('',#1115);
#393=VERTEX_POINT('',#1129);
#394=VERTEX_POINT('',#1130);
#395=VERTEX_POINT('',#1132);
#396=VERTEX_POINT('',#1138);
#397=VERTEX_POINT('',#1142);
#398=VERTEX_POINT('',#1144);
#399=VERTEX_POINT('',#1148);
#400=VERTEX_POINT('',#1150);
#401=VERTEX_POINT('',#1154);
#402=VERTEX_POINT('',#1156);
#403=VERTEX_POINT('',#1160);
#404=VERTEX_POINT('',#1161);
#405=VERTEX_POINT('',#1178);
#406=VERTEX_POINT('',#1185);
#407=VERTEX_POINT('',#1186);
#408=VERTEX_POINT('',#1188);
#409=VERTEX_POINT('',#1190);
#410=VERTEX_POINT('',#1198);
#411=VERTEX_POINT('',#1200);
#412=VERTEX_POINT('',#1235);
#413=VERTEX_POINT('',#1236);
#414=VERTEX_POINT('',#1238);
#415=VERTEX_POINT('',#1240);
#416=VERTEX_POINT('',#1254);
#417=VERTEX_POINT('',#1255);
#418=VERTEX_POINT('',#1257);
#419=VERTEX_POINT('',#1259);
#420=VERTEX_POINT('',#1263);
#421=VERTEX_POINT('',#1265);
#422=VERTEX_POINT('',#1269);
#423=VERTEX_POINT('',#1271);
#424=VERTEX_POINT('',#1278);
#425=VERTEX_POINT('',#1280);
#426=VERTEX_POINT('',#1281);
#427=VERTEX_POINT('',#1287);
#428=VERTEX_POINT('',#1289);
#429=VERTEX_POINT('',#1291);
#430=VERTEX_POINT('',#1293);
#431=VERTEX_POINT('',#1310);
#432=VERTEX_POINT('',#1312);
#433=VERTEX_POINT('',#1329);
#434=VERTEX_POINT('',#1335);
#435=VERTEX_POINT('',#1340);
#436=VERTEX_POINT('',#1342);
#437=VERTEX_POINT('',#1352);
#438=VERTEX_POINT('',#1358);
#439=VERTEX_POINT('',#1359);
#440=VERTEX_POINT('',#1361);
#441=VERTEX_POINT('',#1363);
#442=VERTEX_POINT('',#1366);
#443=VERTEX_POINT('',#1369);
#444=VERTEX_POINT('',#1371);
#445=VERTEX_POINT('',#1374);
#446=VERTEX_POINT('',#1376);
#447=VERTEX_POINT('',#1378);
#448=VERTEX_POINT('',#1386);
#449=VERTEX_POINT('',#1388);
#450=VERTEX_POINT('',#1397);
#451=VERTEX_POINT('',#1403);
#452=VERTEX_POINT('',#1405);
#453=VERTEX_POINT('',#1411);
#454=VERTEX_POINT('',#1414);
#455=VERTEX_POINT('',#1416);
#456=LINE('',#1095,#512);
#457=LINE('',#1098,#513);
#458=LINE('',#1100,#514);
#459=LINE('',#1102,#515);
#460=LINE('',#1104,#516);
#461=LINE('',#1106,#517);
#462=LINE('',#1108,#518);
#463=LINE('',#1110,#519);
#464=LINE('',#1131,#520);
#465=LINE('',#1139,#521);
#466=LINE('',#1143,#522);
#467=LINE('',#1149,#523);
#468=LINE('',#1155,#524);
#469=LINE('',#1159,#525);
#470=LINE('',#1172,#526);
#471=LINE('',#1184,#527);
#472=LINE('',#1187,#528);
#473=LINE('',#1189,#529);
#474=LINE('',#1199,#530);
#475=LINE('',#1216,#531);
#476=LINE('',#1231,#532);
#477=LINE('',#1234,#533);
#478=LINE('',#1237,#534);
#479=LINE('',#1239,#535);
#480=LINE('',#1243,#536);
#481=LINE('',#1244,#537);
#482=LINE('',#1246,#538);
#483=LINE('',#1247,#539);
#484=LINE('',#1253,#540);
#485=LINE('',#1256,#541);
#486=LINE('',#1258,#542);
#487=LINE('',#1260,#543);
#488=LINE('',#1262,#544);
#489=LINE('',#1264,#545);
#490=LINE('',#1266,#546);
#491=LINE('',#1268,#547);
#492=LINE('',#1270,#548);
#493=LINE('',#1272,#549);
#494=LINE('',#1274,#550);
#495=LINE('',#1275,#551);
#496=LINE('',#1279,#552);
#497=LINE('',#1309,#553);
#498=LINE('',#1311,#554);
#499=LINE('',#1328,#555);
#500=LINE('',#1336,#556);
#501=LINE('',#1338,#557);
#502=LINE('',#1345,#558);
#503=LINE('',#1347,#559);
#504=LINE('',#1357,#560);
#505=LINE('',#1362,#561);
#506=LINE('',#1373,#562);
#507=LINE('',#1375,#563);
#508=LINE('',#1377,#564);
#509=LINE('',#1387,#565);
#510=LINE('',#1391,#566);
#511=LINE('',#1398,#567);
#512=VECTOR('',#887,1.);
#513=VECTOR('',#888,1.);
#514=VECTOR('',#889,1.);
#515=VECTOR('',#890,1.);
#516=VECTOR('',#893,1.);
#517=VECTOR('',#894,1.);
#518=VECTOR('',#895,1.);
#519=VECTOR('',#898,1.);
#520=VECTOR('',#905,1.);
#521=VECTOR('',#906,1.);
#522=VECTOR('',#911,1.);
#523=VECTOR('',#918,1.);
#524=VECTOR('',#925,1.);
#525=VECTOR('',#930,1.);
#526=VECTOR('',#931,1.);
#527=VECTOR('',#932,1.);
#528=VECTOR('',#933,1.);
#529=VECTOR('',#934,1.);
#530=VECTOR('',#939,1.);
#531=VECTOR('',#940,1.);
#532=VECTOR('',#941,1.);
#533=VECTOR('',#946,1.);
#534=VECTOR('',#947,1.);
#535=VECTOR('',#948,1.);
#536=VECTOR('',#953,1.);
#537=VECTOR('',#954,1.);
#538=VECTOR('',#957,1.);
#539=VECTOR('',#958,1.);
#540=VECTOR('',#969,1.);
#541=VECTOR('',#970,1.);
#542=VECTOR('',#971,1.);
#543=VECTOR('',#972,1.);
#544=VECTOR('',#975,1.);
#545=VECTOR('',#976,1.);
#546=VECTOR('',#977,1.);
#547=VECTOR('',#980,1.);
#548=VECTOR('',#981,1.);
#549=VECTOR('',#982,1.);
#550=VECTOR('',#985,1.);
#551=VECTOR('',#986,1.);
#552=VECTOR('',#991,1.);
#553=VECTOR('',#998,1.);
#554=VECTOR('',#999,1.);
#555=VECTOR('',#1000,1.);
#556=VECTOR('',#1001,1.);
#557=VECTOR('',#1004,1.);
#558=VECTOR('',#1013,1.);
#559=VECTOR('',#1016,1.);
#560=VECTOR('',#1033,1.);
#561=VECTOR('',#1036,1.);
#562=VECTOR('',#1049,1.);
#563=VECTOR('',#1050,1.);
#564=VECTOR('',#1051,1.);
#565=VECTOR('',#1056,1.);
#566=VECTOR('',#1061,1.);
#567=VECTOR('',#1062,1.);
#568=EDGE_LOOP('',(#82,#83,#84,#85));
#569=EDGE_LOOP('',(#86,#87,#88,#89));
#570=EDGE_LOOP('',(#90,#91,#92));
#571=EDGE_LOOP('',(#93));
#572=EDGE_LOOP('',(#94));
#573=EDGE_LOOP('',(#95,#96,#97,#98));
#574=EDGE_LOOP('',(#99,#100,#101,#102));
#575=EDGE_LOOP('',(#103,#104,#105,#106));
#576=EDGE_LOOP('',(#107,#108,#109,#110));
#577=EDGE_LOOP('',(#111,#112,#113,#114,#115,#116,#117,#118,#119,#120,#121,
#122));
#578=EDGE_LOOP('',(#123,#124,#125,#126));
#579=EDGE_LOOP('',(#127));
#580=EDGE_LOOP('',(#128,#129,#130,#131,#132,#133,#134));
#581=EDGE_LOOP('',(#135));
#582=EDGE_LOOP('',(#136,#137,#138,#139));
#583=EDGE_LOOP('',(#140,#141,#142,#143,#144,#145));
#584=EDGE_LOOP('',(#146,#147,#148,#149));
#585=EDGE_LOOP('',(#150,#151,#152,#153));
#586=EDGE_LOOP('',(#154,#155,#156,#157));
#587=EDGE_LOOP('',(#158,#159,#160,#161));
#588=EDGE_LOOP('',(#162,#163,#164,#165));
#589=EDGE_LOOP('',(#166,#167,#168,#169));
#590=EDGE_LOOP('',(#170,#171,#172,#173));
#591=EDGE_LOOP('',(#174,#175,#176,#177));
#592=EDGE_LOOP('',(#178,#179,#180,#181));
#593=EDGE_LOOP('',(#182,#183,#184,#185));
#594=EDGE_LOOP('',(#186,#187,#188,#189));
#595=EDGE_LOOP('',(#190));
#596=EDGE_LOOP('',(#191,#192,#193,#194,#195,#196));
#597=EDGE_LOOP('',(#197,#198,#199,#200));
#598=EDGE_LOOP('',(#201,#202,#203,#204));
#599=EDGE_LOOP('',(#205,#206,#207,#208));
#600=EDGE_LOOP('',(#209,#210,#211,#212,#213,#214));
#601=EDGE_LOOP('',(#215,#216,#217,#218));
#602=EDGE_LOOP('',(#219,#220,#221,#222));
#603=EDGE_LOOP('',(#223,#224,#225,#226));
#604=EDGE_LOOP('',(#227,#228,#229,#230));
#605=EDGE_LOOP('',(#231));
#606=EDGE_LOOP('',(#232));
#607=EDGE_LOOP('',(#233));
#608=EDGE_LOOP('',(#234,#235,#236,#237));
#609=EDGE_LOOP('',(#238,#239,#240,#241));
#610=EDGE_LOOP('',(#242));
#611=EDGE_LOOP('',(#243));
#612=EDGE_LOOP('',(#244));
#613=EDGE_LOOP('',(#245,#246,#247,#248,#249));
#614=EDGE_LOOP('',(#250,#251,#252,#253));
#615=EDGE_LOOP('',(#254,#255,#256,#257,#258));
#616=EDGE_LOOP('',(#259,#260,#261,#262));
#617=EDGE_LOOP('',(#263));
#618=EDGE_LOOP('',(#264));
#619=EDGE_LOOP('',(#265));
#620=EDGE_LOOP('',(#266));
#621=EDGE_LOOP('',(#267,#268,#269,#270));
#622=EDGE_LOOP('',(#271));
#623=EDGE_LOOP('',(#272));
#624=EDGE_LOOP('',(#273));
#625=EDGE_LOOP('',(#274,#275,#276,#277));
#626=EDGE_LOOP('',(#278));
#627=EDGE_LOOP('',(#279));
#628=EDGE_LOOP('',(#280));
#629=EDGE_LOOP('',(#281));
#630=EDGE_LOOP('',(#282));
#631=EDGE_LOOP('',(#283));
#632=FACE_BOUND('',#568,.T.);
#633=FACE_BOUND('',#569,.T.);
#634=FACE_BOUND('',#570,.T.);
#635=FACE_BOUND('',#571,.T.);
#636=FACE_BOUND('',#572,.T.);
#637=FACE_BOUND('',#573,.T.);
#638=FACE_BOUND('',#574,.T.);
#639=FACE_BOUND('',#575,.T.);
#640=FACE_BOUND('',#576,.T.);
#641=FACE_BOUND('',#577,.T.);
#642=FACE_BOUND('',#578,.T.);
#643=FACE_BOUND('',#579,.T.);
#644=FACE_BOUND('',#580,.T.);
#645=FACE_BOUND('',#581,.T.);
#646=FACE_BOUND('',#582,.T.);
#647=FACE_BOUND('',#583,.T.);
#648=FACE_BOUND('',#584,.T.);
#649=FACE_BOUND('',#585,.T.);
#650=FACE_BOUND('',#586,.T.);
#651=FACE_BOUND('',#587,.T.);
#652=FACE_BOUND('',#588,.T.);
#653=FACE_BOUND('',#589,.T.);
#654=FACE_BOUND('',#590,.T.);
#655=FACE_BOUND('',#591,.T.);
#656=FACE_BOUND('',#592,.T.);
#657=FACE_BOUND('',#593,.T.);
#658=FACE_BOUND('',#594,.T.);
#659=FACE_BOUND('',#595,.T.);
#660=FACE_BOUND('',#596,.T.);
#661=FACE_BOUND('',#597,.T.);
#662=FACE_BOUND('',#598,.T.);
#663=FACE_BOUND('',#599,.T.);
#664=FACE_BOUND('',#600,.T.);
#665=FACE_BOUND('',#601,.T.);
#666=FACE_BOUND('',#602,.T.);
#667=FACE_BOUND('',#603,.T.);
#668=FACE_BOUND('',#604,.T.);
#669=FACE_BOUND('',#605,.T.);
#670=FACE_BOUND('',#606,.T.);
#671=FACE_BOUND('',#607,.T.);
#672=FACE_BOUND('',#608,.T.);
#673=FACE_BOUND('',#609,.T.);
#674=FACE_BOUND('',#610,.T.);
#675=FACE_BOUND('',#611,.T.);
#676=FACE_BOUND('',#612,.T.);
#677=FACE_BOUND('',#613,.T.);
#678=FACE_BOUND('',#614,.T.);
#679=FACE_BOUND('',#615,.T.);
#680=FACE_BOUND('',#616,.T.);
#681=FACE_BOUND('',#617,.T.);
#682=FACE_BOUND('',#618,.T.);
#683=FACE_BOUND('',#619,.T.);
#684=FACE_BOUND('',#620,.T.);
#685=FACE_BOUND('',#621,.T.);
#686=FACE_BOUND('',#622,.T.);
#687=FACE_BOUND('',#623,.T.);
#688=FACE_BOUND('',#624,.T.);
#689=FACE_BOUND('',#625,.T.);
#690=FACE_BOUND('',#626,.T.);
#691=FACE_BOUND('',#627,.T.);
#692=FACE_BOUND('',#628,.T.);
#693=FACE_BOUND('',#629,.T.);
#694=FACE_BOUND('',#630,.T.);
#695=FACE_BOUND('',#631,.T.);
#696=PLANE('',#807);
#697=PLANE('',#808);
#698=PLANE('',#809);
#699=PLANE('',#822);
#700=PLANE('',#824);
#701=PLANE('',#825);
#702=PLANE('',#826);
#703=PLANE('',#828);
#704=PLANE('',#830);
#705=PLANE('',#831);
#706=PLANE('',#832);
#707=PLANE('',#834);
#708=PLANE('',#835);
#709=PLANE('',#836);
#710=PLANE('',#837);
#711=PLANE('',#838);
#712=PLANE('',#843);
#713=PLANE('',#850);
#714=PLANE('',#853);
#715=PLANE('',#854);
#716=PLANE('',#863);
#717=PLANE('',#867);
#718=PLANE('',#868);
#719=PLANE('',#873);
#720=PLANE('',#875);
#721=PLANE('',#876);
#722=PLANE('',#881);
#723=ADVANCED_FACE('',(#632),#696,.T.);
#724=ADVANCED_FACE('',(#633),#697,.T.);
#725=ADVANCED_FACE('',(#634),#698,.T.);
#726=ADVANCED_FACE('',(#635,#636),#68,.F.);
#727=ADVANCED_FACE('',(#637),#32,.T.);
#728=ADVANCED_FACE('',(#638),#69,.F.);
#729=ADVANCED_FACE('',(#639),#70,.T.);
#730=ADVANCED_FACE('',(#640),#71,.T.);
#731=ADVANCED_FACE('',(#641,#642,#643),#699,.T.);
#732=ADVANCED_FACE('',(#644,#645),#700,.F.);
#733=ADVANCED_FACE('',(#646),#33,.T.);
#734=ADVANCED_FACE('',(#647),#34,.F.);
#735=ADVANCED_FACE('',(#648),#701,.F.);
#736=ADVANCED_FACE('',(#649),#702,.T.);
#737=ADVANCED_FACE('',(#650),#703,.F.);
#738=ADVANCED_FACE('',(#651),#72,.T.);
#739=ADVANCED_FACE('',(#652),#704,.F.);
#740=ADVANCED_FACE('',(#653),#705,.T.);
#741=ADVANCED_FACE('',(#654),#706,.T.);
#742=ADVANCED_FACE('',(#655),#707,.F.);
#743=ADVANCED_FACE('',(#656),#708,.T.);
#744=ADVANCED_FACE('',(#657),#709,.T.);
#745=ADVANCED_FACE('',(#658),#710,.F.);
#746=ADVANCED_FACE('',(#659,#660,#661),#711,.F.);
#747=ADVANCED_FACE('',(#662),#35,.F.);
#748=ADVANCED_FACE('',(#663),#36,.T.);
#749=ADVANCED_FACE('',(#664),#712,.T.);
#750=ADVANCED_FACE('',(#665),#73,.T.);
#751=ADVANCED_FACE('',(#666),#74,.F.);
#752=ADVANCED_FACE('',(#667),#75,.F.);
#753=ADVANCED_FACE('',(#668),#713,.T.);
#754=ADVANCED_FACE('',(#669,#670),#76,.T.);
#755=ADVANCED_FACE('',(#671),#714,.F.);
#756=ADVANCED_FACE('',(#672),#715,.F.);
#757=ADVANCED_FACE('',(#673,#674),#77,.T.);
#758=ADVANCED_FACE('',(#675,#676),#78,.F.);
#759=ADVANCED_FACE('',(#677),#716,.F.);
#760=ADVANCED_FACE('',(#678),#79,.T.);
#761=ADVANCED_FACE('',(#679),#717,.T.);
#762=ADVANCED_FACE('',(#680),#718,.T.);
#763=ADVANCED_FACE('',(#681,#682),#80,.F.);
#764=ADVANCED_FACE('',(#683,#684),#719,.T.);
#765=ADVANCED_FACE('',(#685),#10,.F.);
#766=ADVANCED_FACE('',(#686,#687),#720,.T.);
#767=ADVANCED_FACE('',(#688,#689,#690),#721,.F.);
#768=ADVANCED_FACE('',(#691,#692),#81,.T.);
#769=ADVANCED_FACE('',(#693),#722,.T.);
#770=ADVANCED_FACE('',(#694,#695),#11,.F.);
#771=CLOSED_SHELL('',(#723,#724,#725,#726,#727,#728,#729,#730,#731,#732,
#733,#734,#735,#736,#737,#738,#739,#740,#741));
#772=CLOSED_SHELL('',(#742,#743,#744,#745,#746,#747,#748,#749,#750,#751,
#752,#753,#754,#755,#756));
#773=CLOSED_SHELL('',(#757,#758,#759,#760,#761,#762,#763,#764,#765,#766,
#767,#768,#769,#770));
#774=STYLED_ITEM('',(#777),#797);
#775=STYLED_ITEM('',(#778),#798);
#776=STYLED_ITEM('',(#779),#799);
#777=PRESENTATION_STYLE_ASSIGNMENT((#780));
#778=PRESENTATION_STYLE_ASSIGNMENT((#781));
#779=PRESENTATION_STYLE_ASSIGNMENT((#782));
#780=SURFACE_STYLE_USAGE(.BOTH.,#783);
#781=SURFACE_STYLE_USAGE(.BOTH.,#784);
#782=SURFACE_STYLE_USAGE(.BOTH.,#785);
#783=SURFACE_SIDE_STYLE('',(#786));
#784=SURFACE_SIDE_STYLE('',(#787));
#785=SURFACE_SIDE_STYLE('',(#788));
#786=SURFACE_STYLE_FILL_AREA(#789);
#787=SURFACE_STYLE_FILL_AREA(#790);
#788=SURFACE_STYLE_FILL_AREA(#791);
#789=FILL_AREA_STYLE('',(#792));
#790=FILL_AREA_STYLE('',(#793));
#791=FILL_AREA_STYLE('',(#794));
#792=FILL_AREA_STYLE_COLOUR('',#795);
#793=FILL_AREA_STYLE_COLOUR('',#795);
#794=FILL_AREA_STYLE_COLOUR('',#796);
#795=COLOUR_RGB('',0.647058823529412,0.647058823529412,0.647058823529412);
#796=COLOUR_RGB('',0.615686274509804,0.811764705882353,0.929411764705882);
#797=MANIFOLD_SOLID_BREP('Part 2',#771);
#798=MANIFOLD_SOLID_BREP('Part 3',#772);
#799=MANIFOLD_SOLID_BREP('Part 1',#773);
#800=SHAPE_DEFINITION_REPRESENTATION(#1437,#803);
#801=SHAPE_DEFINITION_REPRESENTATION(#1438,#804);
#802=SHAPE_DEFINITION_REPRESENTATION(#1439,#805);
#803=SHAPE_REPRESENTATION('Part 2',(#806),#1422);
#804=SHAPE_REPRESENTATION('Part 3',(#833),#1423);
#805=SHAPE_REPRESENTATION('Part 1',(#855),#1424);
#806=AXIS2_PLACEMENT_3D('',#1093,#883,#884);
#807=AXIS2_PLACEMENT_3D('',#1094,#885,#886);
#808=AXIS2_PLACEMENT_3D('',#1103,#891,#892);
#809=AXIS2_PLACEMENT_3D('',#1109,#896,#897);
#810=AXIS2_PLACEMENT_3D('',#1111,#899,#900);
#811=AXIS2_PLACEMENT_3D('',#1112,#901,#902);
#812=AXIS2_PLACEMENT_3D('',#1114,#903,#904);
#813=AXIS2_PLACEMENT_3D('',#1140,#907,#908);
#814=AXIS2_PLACEMENT_3D('',#1141,#909,#910);
#815=AXIS2_PLACEMENT_3D('',#1145,#912,#913);
#816=AXIS2_PLACEMENT_3D('',#1146,#914,#915);
#817=AXIS2_PLACEMENT_3D('',#1147,#916,#917);
#818=AXIS2_PLACEMENT_3D('',#1151,#919,#920);
#819=AXIS2_PLACEMENT_3D('',#1152,#921,#922);
#820=AXIS2_PLACEMENT_3D('',#1153,#923,#924);
#821=AXIS2_PLACEMENT_3D('',#1157,#926,#927);
#822=AXIS2_PLACEMENT_3D('',#1158,#928,#929);
#823=AXIS2_PLACEMENT_3D('',#1191,#935,#936);
#824=AXIS2_PLACEMENT_3D('',#1192,#937,#938);
#825=AXIS2_PLACEMENT_3D('',#1232,#942,#943);
#826=AXIS2_PLACEMENT_3D('',#1233,#944,#945);
#827=AXIS2_PLACEMENT_3D('',#1241,#949,#950);
#828=AXIS2_PLACEMENT_3D('',#1242,#951,#952);
#829=AXIS2_PLACEMENT_3D('',#1245,#955,#956);
#830=AXIS2_PLACEMENT_3D('',#1248,#959,#960);
#831=AXIS2_PLACEMENT_3D('',#1249,#961,#962);
#832=AXIS2_PLACEMENT_3D('',#1250,#963,#964);
#833=AXIS2_PLACEMENT_3D('',#1251,#965,#966);
#834=AXIS2_PLACEMENT_3D('',#1252,#967,#968);
#835=AXIS2_PLACEMENT_3D('',#1261,#973,#974);
#836=AXIS2_PLACEMENT_3D('',#1267,#978,#979);
#837=AXIS2_PLACEMENT_3D('',#1273,#983,#984);
#838=AXIS2_PLACEMENT_3D('',#1276,#987,#988);
#839=AXIS2_PLACEMENT_3D('',#1277,#989,#990);
#840=AXIS2_PLACEMENT_3D('',#1288,#992,#993);
#841=AXIS2_PLACEMENT_3D('',#1290,#994,#995);
#842=AXIS2_PLACEMENT_3D('',#1292,#996,#997);
#843=AXIS2_PLACEMENT_3D('',#1337,#1002,#1003);
#844=AXIS2_PLACEMENT_3D('',#1339,#1005,#1006);
#845=AXIS2_PLACEMENT_3D('',#1341,#1007,#1008);
#846=AXIS2_PLACEMENT_3D('',#1343,#1009,#1010);
#847=AXIS2_PLACEMENT_3D('',#1344,#1011,#1012);
#848=AXIS2_PLACEMENT_3D('',#1346,#1014,#1015);
#849=AXIS2_PLACEMENT_3D('',#1348,#1017,#1018);
#850=AXIS2_PLACEMENT_3D('',#1349,#1019,#1020);
#851=AXIS2_PLACEMENT_3D('',#1350,#1021,#1022);
#852=AXIS2_PLACEMENT_3D('',#1351,#1023,#1024);
#853=AXIS2_PLACEMENT_3D('',#1353,#1025,#1026);
#854=AXIS2_PLACEMENT_3D('',#1354,#1027,#1028);
#855=AXIS2_PLACEMENT_3D('',#1355,#1029,#1030);
#856=AXIS2_PLACEMENT_3D('',#1356,#1031,#1032);
#857=AXIS2_PLACEMENT_3D('',#1360,#1034,#1035);
#858=AXIS2_PLACEMENT_3D('',#1364,#1037,#1038);
#859=AXIS2_PLACEMENT_3D('',#1365,#1039,#1040);
#860=AXIS2_PLACEMENT_3D('',#1367,#1041,#1042);
#861=AXIS2_PLACEMENT_3D('',#1368,#1043,#1044);
#862=AXIS2_PLACEMENT_3D('',#1370,#1045,#1046);
#863=AXIS2_PLACEMENT_3D('',#1372,#1047,#1048);
#864=AXIS2_PLACEMENT_3D('',#1384,#1052,#1053);
#865=AXIS2_PLACEMENT_3D('',#1385,#1054,#1055);
#866=AXIS2_PLACEMENT_3D('',#1389,#1057,#1058);
#867=AXIS2_PLACEMENT_3D('',#1390,#1059,#1060);
#868=AXIS2_PLACEMENT_3D('',#1399,#1063,#1064);
#869=AXIS2_PLACEMENT_3D('',#1400,#1065,#1066);
#870=AXIS2_PLACEMENT_3D('',#1401,#1067,#1068);
#871=AXIS2_PLACEMENT_3D('',#1402,#1069,#1070);
#872=AXIS2_PLACEMENT_3D('',#1404,#1071,#1072);
#873=AXIS2_PLACEMENT_3D('',#1406,#1073,#1074);
#874=AXIS2_PLACEMENT_3D('',#1407,#1075,#1076);
#875=AXIS2_PLACEMENT_3D('',#1408,#1077,#1078);
#876=AXIS2_PLACEMENT_3D('',#1409,#1079,#1080);
#877=AXIS2_PLACEMENT_3D('',#1410,#1081,#1082);
#878=AXIS2_PLACEMENT_3D('',#1412,#1083,#1084);
#879=AXIS2_PLACEMENT_3D('',#1413,#1085,#1086);
#880=AXIS2_PLACEMENT_3D('',#1415,#1087,#1088);
#881=AXIS2_PLACEMENT_3D('',#1417,#1089,#1090);
#882=AXIS2_PLACEMENT_3D('',#1418,#1091,#1092);
#883=DIRECTION('',(0.,0.,1.));
#884=DIRECTION('',(1.,0.,0.));
#885=DIRECTION('',(1.,0.,0.));
#886=DIRECTION('',(0.,0.,-1.));
#887=DIRECTION('',(0.,0.,-1.));
#888=DIRECTION('',(0.,1.,0.));
#889=DIRECTION('',(0.,0.,-1.));
#890=DIRECTION('',(0.,1.,0.));
#891=DIRECTION('',(-0.110666368282172,0.,0.993857613006629));
#892=DIRECTION('',(0.993857613006629,0.,0.110666368282172));
#893=DIRECTION('',(0.993857613006629,0.,0.110666368282172));
#894=DIRECTION('',(0.,-1.,0.));
#895=DIRECTION('',(0.993857613006629,0.,0.110666368282172));
#896=DIRECTION('',(0.,-1.,0.));
#897=DIRECTION('',(1.,0.,0.));
#898=DIRECTION('',(-0.99999396436336,0.,-0.00347436855439508));
#899=DIRECTION('',(0.,1.,0.));
#900=DIRECTION('',(0.,0.,1.));
#901=DIRECTION('',(0.,-1.,0.));
#902=DIRECTION('',(0.,0.,-1.));
#903=DIRECTION('',(0.,-1.,0.));
#904=DIRECTION('',(0.,0.,-1.));
#905=DIRECTION('',(0.,1.,0.));
#906=DIRECTION('',(0.,1.,0.));
#907=DIRECTION('',(0.,1.,0.));
#908=DIRECTION('',(0.57272841394938,0.,0.819745182270093));
#909=DIRECTION('',(0.,1.,0.));
#910=DIRECTION('',(0.,0.,1.));
#911=DIRECTION('',(0.,1.,0.));
#912=DIRECTION('',(0.,1.,0.));
#913=DIRECTION('',(0.,0.,1.));
#914=DIRECTION('',(0.,1.,0.));
#915=DIRECTION('',(0.,0.,1.));
#916=DIRECTION('',(0.,-1.,0.));
#917=DIRECTION('',(0.,0.,-1.));
#918=DIRECTION('',(0.,1.,0.));
#919=DIRECTION('',(0.,-1.,0.));
#920=DIRECTION('',(0.,0.,-1.));
#921=DIRECTION('',(0.,1.,0.));
#922=DIRECTION('',(0.667497346320623,0.,0.744612176005017));
#923=DIRECTION('',(0.,1.,0.));
#924=DIRECTION('',(0.,0.,1.));
#925=DIRECTION('',(0.,1.,0.));
#926=DIRECTION('',(0.,1.,0.));
#927=DIRECTION('',(0.,0.,1.));
#928=DIRECTION('',(0.,-1.,0.));
#929=DIRECTION('',(1.,0.,0.));
#930=DIRECTION('',(0.,0.,1.));
#931=DIRECTION('',(-0.99999396436336,0.,-0.00347436855439508));
#932=DIRECTION('',(0.,0.,1.));
#933=DIRECTION('',(-0.993857613006629,0.,-0.110666368282172));
#934=DIRECTION('',(0.,0.,1.));
#935=DIRECTION('',(0.,-1.,0.));
#936=DIRECTION('',(0.,0.,-1.));
#937=DIRECTION('',(0.,-1.,0.));
#938=DIRECTION('',(1.,0.,0.));
#939=DIRECTION('',(0.,0.,1.));
#940=DIRECTION('',(0.,1.,0.));
#941=DIRECTION('',(0.,1.,0.));
#942=DIRECTION('',(1.,0.,0.));
#943=DIRECTION('',(0.,0.,-1.));
#944=DIRECTION('',(0.,-1.,0.));
#945=DIRECTION('',(1.,0.,0.));
#946=DIRECTION('',(0.,0.,-1.));
#947=DIRECTION('',(0.993857613006629,0.,0.110666368282172));
#948=DIRECTION('',(0.,0.,1.));
#949=DIRECTION('',(0.,-1.,0.));
#950=DIRECTION('',(0.,0.,-1.));
#951=DIRECTION('',(-0.110666368282172,0.,0.993857613006629));
#952=DIRECTION('',(0.993857613006629,0.,0.110666368282172));
#953=DIRECTION('',(0.,1.,0.));
#954=DIRECTION('',(0.,1.,0.));
#955=DIRECTION('',(0.,-1.,0.));
#956=DIRECTION('',(-0.00588100430728495,0.,0.999982706744641));
#957=DIRECTION('',(0.,-1.,0.));
#958=DIRECTION('',(0.,-1.,0.));
#959=DIRECTION('',(1.,0.,0.));
#960=DIRECTION('',(0.,0.,-1.));
#961=DIRECTION('',(1.,0.,0.));
#962=DIRECTION('',(0.,0.,-1.));
#963=DIRECTION('',(0.00347436855439508,0.,-0.99999396436336));
#964=DIRECTION('',(-0.99999396436336,0.,-0.00347436855439508));
#965=DIRECTION('',(0.,0.,1.));
#966=DIRECTION('',(1.,0.,0.));
#967=DIRECTION('',(1.,0.,0.));
#968=DIRECTION('',(0.,0.,-1.));
#969=DIRECTION('',(0.,0.,1.));
#970=DIRECTION('',(0.,-1.,0.));
#971=DIRECTION('',(0.,0.,1.));
#972=DIRECTION('',(0.,-1.,0.));
#973=DIRECTION('',(0.,0.,-1.));
#974=DIRECTION('',(-1.,0.,0.));
#975=DIRECTION('',(1.,0.,0.));
#976=DIRECTION('',(0.,-1.,0.));
#977=DIRECTION('',(1.,0.,0.));
#978=DIRECTION('',(1.,0.,0.));
#979=DIRECTION('',(0.,0.,-1.));
#980=DIRECTION('',(0.,0.,1.));
#981=DIRECTION('',(0.,-1.,0.));
#982=DIRECTION('',(0.,0.,1.));
#983=DIRECTION('',(-0.111073132195895,0.,-0.993812235436953));
#984=DIRECTION('',(-0.993812235436953,0.,0.111073132195895));
#985=DIRECTION('',(0.993812235436953,0.,-0.111073132195895));
#986=DIRECTION('',(0.993812235436953,0.,-0.111073132195895));
#987=DIRECTION('',(0.,-1.,0.));
#988=DIRECTION('',(1.,0.,0.));
#989=DIRECTION('',(0.,-1.,0.));
#990=DIRECTION('',(0.,0.,-1.));
#991=DIRECTION('',(0.,0.,1.));
#992=DIRECTION('',(0.,1.,0.));
#993=DIRECTION('',(0.,0.,1.));
#994=DIRECTION('',(-1.78652971133352E-17,-1.,5.85681706706544E-17));
#995=DIRECTION('',(-0.288366244989628,6.12319543842903E-17,0.957520187124314));
#996=DIRECTION('',(0.,-1.,0.));
#997=DIRECTION('',(0.,0.,-1.));
#998=DIRECTION('',(0.,1.,0.));
#999=DIRECTION('',(0.,1.,0.));
#1000=DIRECTION('',(0.,1.,0.));
#1001=DIRECTION('',(0.,1.,0.));
#1002=DIRECTION('',(0.,-1.,0.));
#1003=DIRECTION('',(1.,0.,0.));
#1004=DIRECTION('',(0.,0.,1.));
#1005=DIRECTION('',(0.,-1.,0.));
#1006=DIRECTION('',(0.,0.,-1.));
#1007=DIRECTION('',(1.4105106968703E-14,-1.,-4.62410620450416E-14));
#1008=DIRECTION('',(-0.288366244989628,-4.83436906558357E-14,0.957520187124314));
#1009=DIRECTION('',(0.,1.,0.));
#1010=DIRECTION('',(0.,0.,1.));
#1011=DIRECTION('',(0.,1.,0.));
#1012=DIRECTION('',(0.,0.,1.));
#1013=DIRECTION('',(0.,1.,0.));
#1014=DIRECTION('',(0.,1.,0.));
#1015=DIRECTION('',(-0.29179088496242,0.,0.95648213755033));
#1016=DIRECTION('',(0.,1.,0.));
#1017=DIRECTION('',(0.,1.,0.));
#1018=DIRECTION('',(-0.258489192585552,0.,0.966014149646096));
#1019=DIRECTION('',(1.,0.,0.));
#1020=DIRECTION('',(0.,0.,-1.));
#1021=DIRECTION('',(0.,-1.,0.));
#1022=DIRECTION('',(0.,0.,-1.));
#1023=DIRECTION('',(0.,-1.,0.));
#1024=DIRECTION('',(0.,0.,-1.));
#1025=DIRECTION('',(0.,-1.,0.));
#1026=DIRECTION('',(1.,0.,0.));
#1027=DIRECTION('',(0.,-1.,0.));
#1028=DIRECTION('',(1.,0.,0.));
#1029=DIRECTION('',(0.,0.,1.));
#1030=DIRECTION('',(1.,0.,0.));
#1031=DIRECTION('',(0.,1.,0.));
#1032=DIRECTION('',(0.,0.,1.));
#1033=DIRECTION('',(0.,1.,0.));
#1034=DIRECTION('',(0.,-1.,0.));
#1035=DIRECTION('',(0.,0.,-1.));
#1036=DIRECTION('',(0.,1.,0.));
#1037=DIRECTION('',(0.,-1.,0.));
#1038=DIRECTION('',(0.,0.,-1.));
#1039=DIRECTION('',(0.,-1.,0.));
#1040=DIRECTION('',(0.,0.,-1.));
#1041=DIRECTION('',(0.,1.,0.));
#1042=DIRECTION('',(0.,0.,1.));
#1043=DIRECTION('',(0.,-1.,0.));
#1044=DIRECTION('',(0.,0.,-1.));
#1045=DIRECTION('',(0.,-1.,0.));
#1046=DIRECTION('',(0.,0.,-1.));
#1047=DIRECTION('',(-1.,0.,0.));
#1048=DIRECTION('',(0.,0.,1.));
#1049=DIRECTION('',(0.,0.,1.));
#1050=DIRECTION('',(0.,1.,0.));
#1051=DIRECTION('',(0.,0.,1.));
#1052=DIRECTION('',(0.,1.,0.));
#1053=DIRECTION('',(0.,0.,1.));
#1054=DIRECTION('',(0.,-1.,0.));
#1055=DIRECTION('',(0.,0.,-1.));
#1056=DIRECTION('',(0.,1.,0.));
#1057=DIRECTION('',(0.,-1.,0.));
#1058=DIRECTION('',(0.,0.,-1.));
#1059=DIRECTION('',(-1.,0.,0.));
#1060=DIRECTION('',(0.,0.,1.));
#1061=DIRECTION('',(0.,0.,1.));
#1062=DIRECTION('',(0.,0.,1.));
#1063=DIRECTION('',(0.,-1.,0.));
#1064=DIRECTION('',(1.,0.,0.));
#1065=DIRECTION('',(0.,-1.,0.));
#1066=DIRECTION('',(0.,0.,-1.));
#1067=DIRECTION('',(0.,1.,0.));
#1068=DIRECTION('',(0.,0.,1.));
#1069=DIRECTION('',(0.,-1.,0.));
#1070=DIRECTION('',(0.,0.,-1.));
#1071=DIRECTION('',(0.,-1.,0.));
#1072=DIRECTION('',(0.,0.,-1.));
#1073=DIRECTION('',(0.,-1.,0.));
#1074=DIRECTION('',(1.,0.,0.));
#1075=DIRECTION('',(0.,-1.,0.));
#1076=DIRECTION('',(0.,0.,-1.));
#1077=DIRECTION('',(0.,-1.,0.));
#1078=DIRECTION('',(1.,0.,0.));
#1079=DIRECTION('',(0.,-1.,0.));
#1080=DIRECTION('',(1.,0.,0.));
#1081=DIRECTION('',(0.,-1.,0.));
#1082=DIRECTION('',(0.,0.,-1.));
#1083=DIRECTION('',(0.,-1.,0.));
#1084=DIRECTION('',(0.,0.,-1.));
#1085=DIRECTION('',(0.,-1.,0.));
#1086=DIRECTION('',(0.,0.,-1.));
#1087=DIRECTION('',(0.,1.,0.));
#1088=DIRECTION('',(0.,0.,1.));
#1089=DIRECTION('',(0.,1.,0.));
#1090=DIRECTION('',(-1.,0.,0.));
#1091=DIRECTION('',(0.,-1.,0.));
#1092=DIRECTION('',(0.,0.,-1.));
#1093=CARTESIAN_POINT('',(0.,0.,0.));
#1094=CARTESIAN_POINT('',(0.0527168309843751,-0.022,-0.0288368423266003));
#1095=CARTESIAN_POINT('',(0.0527168309843751,-0.022,-0.0288368423266003));
#1096=CARTESIAN_POINT('',(0.052716830984381,-0.022,0.00522937031259279));
#1097=CARTESIAN_POINT('',(0.0527168309843751,-0.022,0.00521642696130634));
#1098=CARTESIAN_POINT('',(0.0527168309843751,-0.022,0.00521642696130634));
#1099=CARTESIAN_POINT('',(0.0527168309843751,-0.007,0.00521642696130634));
#1100=CARTESIAN_POINT('',(0.0527168309843751,-0.007,-0.0288368423266003));
#1101=CARTESIAN_POINT('',(0.0527168309852156,-0.007,0.005229370312666));
#1102=CARTESIAN_POINT('',(0.052716830984381,-0.022,0.00522937031259279));
#1103=CARTESIAN_POINT('',(0.0472168309843775,-0.022,0.00461694352470414));
#1104=CARTESIAN_POINT('',(0.0472168309843775,-0.007,0.00461694352470414));
#1105=CARTESIAN_POINT('',(0.0525968804402348,-0.007,0.00521601374010574));
#1106=CARTESIAN_POINT('',(0.0525968473084952,-0.022,0.00521601009127975));
#1107=CARTESIAN_POINT('',(0.0525968473084952,-0.022,0.00521601009127975));
#1108=CARTESIAN_POINT('',(0.0472168309843775,-0.022,0.00461694352470414));
#1109=CARTESIAN_POINT('',(0.0505449786720448,-0.022,-0.0120632905782142));
#1110=CARTESIAN_POINT('',(0.0775966964175792,-0.022,0.00530286930513963));
#1111=CARTESIAN_POINT('',(0.143826225101948,-0.007,-0.040796086192131));
#1112=CARTESIAN_POINT('',(0.143826225101948,-0.007,-0.040796086192131));
#1113=CARTESIAN_POINT('',(0.143826225101948,-0.007,-0.051921086192131));
#1114=CARTESIAN_POINT('',(0.143826225101948,0.,-0.040796086192131));
#1115=CARTESIAN_POINT('',(0.143826225101948,0.,-0.051921086192131));
#1116=CARTESIAN_POINT('',(0.13255233059991,-0.007,-0.0548281673904751));
#1117=CARTESIAN_POINT('',(0.13255233059991,0.,-0.0548281673904751));
#1118=CARTESIAN_POINT('',(0.124861808879896,-0.007,-0.0494797756469151));
#1119=CARTESIAN_POINT('',(0.124861808879896,0.,-0.0494797756469151));
#1120=CARTESIAN_POINT('',(0.117481752474763,-0.007,-0.0447096182971156));
#1121=CARTESIAN_POINT('',(0.117481752474763,0.,-0.0447096182971156));
#1122=CARTESIAN_POINT('',(0.10914452274974,-0.007,-0.0407960862116521));
#1123=CARTESIAN_POINT('',(0.10914452274974,0.,-0.0407960862116521));
#1124=CARTESIAN_POINT('',(0.13255233059991,0.,-0.0548281673904751));
#1125=CARTESIAN_POINT('',(0.126784439309899,0.,-0.0508168735828051));
#1126=CARTESIAN_POINT('',(0.121193832957755,0.,-0.0470925942581804));
#1127=CARTESIAN_POINT('',(0.115397445043507,0.,-0.0437312352757497));
#1128=CARTESIAN_POINT('',(0.10914452274974,0.,-0.0407960862116521));
#1129=CARTESIAN_POINT('',(0.13255233059991,0.,-0.0548281673904751));
#1130=CARTESIAN_POINT('',(0.10914452274974,0.,-0.040796086192131));
#1131=CARTESIAN_POINT('',(0.13255233059991,-0.007,-0.0548281673904751));
#1132=CARTESIAN_POINT('',(0.13255233059991,-0.007,-0.0548281673904751));
#1133=CARTESIAN_POINT('',(0.13255233059991,-0.007,-0.0548281673904751));
#1134=CARTESIAN_POINT('',(0.126784439309899,-0.007,-0.0508168735828051));
#1135=CARTESIAN_POINT('',(0.121193832957755,-0.007,-0.0470925942581804));
#1136=CARTESIAN_POINT('',(0.115397445043507,-0.007,-0.0437312352757497));
#1137=CARTESIAN_POINT('',(0.10914452274974,-0.007,-0.0407960862116521));
#1138=CARTESIAN_POINT('',(0.10914452274974,-0.007,-0.040796086192131));
#1139=CARTESIAN_POINT('',(0.10914452274974,-0.007,-0.040796086192131));
#1140=CARTESIAN_POINT('',(-0.214685002973233,-0.007,-0.553926895445313));
#1141=CARTESIAN_POINT('',(-0.214685002973233,0.,-0.553926895445313));
#1142=CARTESIAN_POINT('',(0.134528403878833,0.,-0.0562087602139545));
#1143=CARTESIAN_POINT('',(0.134528403878833,-0.007,-0.0562087602139546));
#1144=CARTESIAN_POINT('',(0.134528403878833,-0.007,-0.0562087602139545));
#1145=CARTESIAN_POINT('',(-0.214685002973233,-0.007,-0.553926895445313));
#1146=CARTESIAN_POINT('',(0.143826225101948,-0.007,-0.040796086192131));
#1147=CARTESIAN_POINT('',(0.143826225101948,0.,-0.040796086192131));
#1148=CARTESIAN_POINT('',(0.156760006637216,0.,-0.0282774083387008));
#1149=CARTESIAN_POINT('',(0.156760006637214,-0.007,-0.0282774083386988));
#1150=CARTESIAN_POINT('',(0.156760006637216,-0.007,-0.0282774083387008));
#1151=CARTESIAN_POINT('',(0.143826225101948,-0.007,-0.040796086192131));
#1152=CARTESIAN_POINT('',(0.0318281164322591,-0.007,-0.165725728753468));
#1153=CARTESIAN_POINT('',(0.0318281164322591,0.,-0.165725728753468));
#1154=CARTESIAN_POINT('',(0.154862748514665,0.,-0.0265765520590967));
#1155=CARTESIAN_POINT('',(0.154862748514665,-0.007,-0.0265765520590967));
#1156=CARTESIAN_POINT('',(0.154862748514665,-0.007,-0.0265765520590967));
#1157=CARTESIAN_POINT('',(0.0318281164322591,-0.007,-0.165725728753468));
#1158=CARTESIAN_POINT('',(0.0378262251019478,-0.007,-0.0232225975691664));
#1159=CARTESIAN_POINT('',(0.0417168309843699,-0.007,-0.0232225975691664));
#1160=CARTESIAN_POINT('',(0.0417168309843699,-0.007,-0.0293817501031606));
#1161=CARTESIAN_POINT('',(0.0417168309843699,-0.007,0.00400451673684251));
#1162=CARTESIAN_POINT('',(0.10914452274974,-0.007,-0.0407960862116521));
#1163=CARTESIAN_POINT('',(0.0868880726499239,-0.007,-0.030348811223807));
#1164=CARTESIAN_POINT('',(0.0588477433247303,-0.007,-0.0253012318621615));
#1165=CARTESIAN_POINT('',(0.0137160916153213,-0.007,-0.0285073271651956));
#1166=CARTESIAN_POINT('',(-0.0385771767007912,-0.007,-0.0407960861921228));
#1167=CARTESIAN_POINT('',(0.154862748514665,-0.007,-0.0265765520590967));
#1168=CARTESIAN_POINT('',(0.11316838328844,-0.007,0.0102850422799912));
#1169=CARTESIAN_POINT('',(0.0766052163006014,-0.007,0.0122979569086462));
#1170=CARTESIAN_POINT('',(0.0220896465948224,-0.007,0.00974657920336467));
#1171=CARTESIAN_POINT('',(-0.0798652386752571,-0.007,-0.0315023735227193));
#1172=CARTESIAN_POINT('',(0.0775966962346902,-0.007,0.0053028693045042));
#1173=CARTESIAN_POINT('',(0.154862748514665,-0.007,-0.0265765520590967));
#1174=CARTESIAN_POINT('',(0.11316838328844,-0.007,0.0102850422799912));
#1175=CARTESIAN_POINT('',(0.0766052163006014,-0.007,0.0122979569086462));
#1176=CARTESIAN_POINT('',(0.0220896465948224,-0.007,0.00974657920336467));
#1177=CARTESIAN_POINT('',(-0.0798652386752571,-0.007,-0.0315023735227193));
#1178=CARTESIAN_POINT('',(0.0525968373802761,-0.007,0.00521881226490314));
#1179=CARTESIAN_POINT('',(0.154862748514665,-0.007,-0.0265765520590967));
#1180=CARTESIAN_POINT('',(0.11316838328844,-0.007,0.0102850422799912));
#1181=CARTESIAN_POINT('',(0.0766052163006014,-0.007,0.0122979569086462));
#1182=CARTESIAN_POINT('',(0.0220896465948224,-0.007,0.00974657920336467));
#1183=CARTESIAN_POINT('',(-0.0798652386752571,-0.007,-0.0315023735227193));
#1184=CARTESIAN_POINT('',(0.0437168309843699,-0.007,-0.0126985585288402));
#1185=CARTESIAN_POINT('',(0.0437168309843699,-0.007,-0.0273337201402072));
#1186=CARTESIAN_POINT('',(0.0437168309843699,-0.007,0.00221485668877776));
#1187=CARTESIAN_POINT('',(0.0474381637209418,-0.007,0.00262922829869088));
#1188=CARTESIAN_POINT('',(0.0507168309843751,-0.007,0.00299430896427249));
#1189=CARTESIAN_POINT('',(0.0507168309843751,-0.007,-0.0288368423266003));
#1190=CARTESIAN_POINT('',(0.0507168309843751,-0.007,-0.0272916562672344));
#1191=CARTESIAN_POINT('',(0.0486993361257894,-0.007,-0.274021687078599));
#1192=CARTESIAN_POINT('',(0.0378262251019478,0.,-0.0232225975691664));
#1193=CARTESIAN_POINT('',(0.10914452274974,0.,-0.0407960862116521));
#1194=CARTESIAN_POINT('',(0.0868880726499239,0.,-0.030348811223807));
#1195=CARTESIAN_POINT('',(0.0588477433247303,0.,-0.0253012318621615));
#1196=CARTESIAN_POINT('',(0.0137160916153213,0.,-0.0285073271651956));
#1197=CARTESIAN_POINT('',(-0.0385771767007912,0.,-0.0407960861921228));
#1198=CARTESIAN_POINT('',(0.0417168309843699,0.,-0.0293817501031606));
#1199=CARTESIAN_POINT('',(0.0417168309843699,0.,-0.0232225975691664));
#1200=CARTESIAN_POINT('',(0.0417168309845759,0.,0.00400451673684251));
#1201=CARTESIAN_POINT('',(0.154862748514665,0.,-0.0265765520590967));
#1202=CARTESIAN_POINT('',(0.11316838328844,0.,0.0102850422799912));
#1203=CARTESIAN_POINT('',(0.0766052163006014,0.,0.0122979569086462));
#1204=CARTESIAN_POINT('',(0.0220896465948224,0.,0.00974657920336467));
#1205=CARTESIAN_POINT('',(-0.0798652386752571,0.,-0.0315023735227193));
#1206=CARTESIAN_POINT('',(0.10914452274974,-0.007,-0.0407960862116521));
#1207=CARTESIAN_POINT('',(0.10914452274974,0.,-0.0407960862116521));
#1208=CARTESIAN_POINT('',(0.100755905685843,-0.007,-0.0368584326846421));
#1209=CARTESIAN_POINT('',(0.100755905685843,0.,-0.0368584326846421));
#1210=CARTESIAN_POINT('',(0.0820395494538352,-0.007,-0.0307176661111014));
#1211=CARTESIAN_POINT('',(0.0820395494538352,8.67361737988404E-19,-0.0307176661111014));
#1212=CARTESIAN_POINT('',(0.0564431084750058,-0.007,-0.0289740120187097));
#1213=CARTESIAN_POINT('',(0.0564431084750058,2.60208521396521E-18,-0.0289740120187097));
#1214=CARTESIAN_POINT('',(0.0417168309843719,-0.007,-0.0293817501031606));
#1215=CARTESIAN_POINT('',(0.0417168309843719,2.60208521396521E-18,-0.0293817501031606));
#1216=CARTESIAN_POINT('',(0.0417168309843699,-0.007,-0.0293817501031606));
#1217=CARTESIAN_POINT('',(0.154862748514665,-0.007,-0.0265765520590967));
#1218=CARTESIAN_POINT('',(0.154862748514665,0.,-0.0265765520590967));
#1219=CARTESIAN_POINT('',(0.146325355355845,-0.007,-0.0190287234346236));
#1220=CARTESIAN_POINT('',(0.146325355355845,0.,-0.0190287234346236));
#1221=CARTESIAN_POINT('',(0.129737001128186,-0.007,-0.00719667159555153));
#1222=CARTESIAN_POINT('',(0.129737001128186,0.,-0.00719667159555153));
#1223=CARTESIAN_POINT('',(0.104264512571883,-0.007,0.00296306944453681));
#1224=CARTESIAN_POINT('',(0.104264512571883,8.67361737988404E-19,0.00296306944453681));
#1225=CARTESIAN_POINT('',(0.076067335658343,-0.007,0.00687704333624092));
#1226=CARTESIAN_POINT('',(0.076067335658343,-8.67361737988404E-19,0.00687704333624092));
#1227=CARTESIAN_POINT('',(0.0539726196110996,-0.007,0.00564428758456691));
#1228=CARTESIAN_POINT('',(0.0539726196110996,0.,0.00564428758456691));
#1229=CARTESIAN_POINT('',(0.0417168309849644,-0.007,0.00400451673689449));
#1230=CARTESIAN_POINT('',(0.0417168309849644,0.,0.00400451673689449));
#1231=CARTESIAN_POINT('',(0.0417168309843739,-0.007,0.00400451673681548));
#1232=CARTESIAN_POINT('',(0.0417168309843699,-0.007,-0.0126985585288402));
#1233=CARTESIAN_POINT('',(0.0378262251019478,-0.002,-0.0232225975691664));
#1234=CARTESIAN_POINT('',(0.0507168309843751,-0.002,-0.0288368423266003));
#1235=CARTESIAN_POINT('',(0.0507168309843751,-0.002,0.00299430896427249));
#1236=CARTESIAN_POINT('',(0.0507168309843751,-0.002,-0.0272916562672344));
#1237=CARTESIAN_POINT('',(0.0474381637209418,-0.002,0.00262922829869088));
#1238=CARTESIAN_POINT('',(0.0437168309843699,-0.002,0.00221485668877775));
#1239=CARTESIAN_POINT('',(0.0437168309843699,-0.002,-0.0232225975691664));
#1240=CARTESIAN_POINT('',(0.0437168309843699,-0.002,-0.0273337201402072));
#1241=CARTESIAN_POINT('',(0.0486993361257894,-0.002,-0.274021687078599));
#1242=CARTESIAN_POINT('',(0.0474381637209418,-0.022,0.00262922829869088));
#1243=CARTESIAN_POINT('',(0.0507168309843751,-0.022,0.00299430896427249));
#1244=CARTESIAN_POINT('',(0.0437168309843699,-0.022,0.00221485668877776));
#1245=CARTESIAN_POINT('',(0.0486993361257894,-0.002,-0.274021687078599));
#1246=CARTESIAN_POINT('',(0.0507168309843751,-0.002,-0.0272916562672344));
#1247=CARTESIAN_POINT('',(0.0437168309843699,-0.002,-0.0273337201402072));
#1248=CARTESIAN_POINT('',(0.0507168309843751,-0.022,-0.0288368423266003));
#1249=CARTESIAN_POINT('',(0.0437168309843699,-0.007,-0.0126985585288402));
#1250=CARTESIAN_POINT('',(0.0775966964175792,-0.022,0.00530286930513962));
#1251=CARTESIAN_POINT('',(0.,0.,0.));
#1252=CARTESIAN_POINT('',(0.031820929825306,0.0148,-0.0130832792544365));
#1253=CARTESIAN_POINT('',(0.031820929825306,0.0048,-0.0130832792544365));
#1254=CARTESIAN_POINT('',(0.031820929825306,0.0048,-0.0281432792544365));
#1255=CARTESIAN_POINT('',(0.031820929825306,0.0048,0.00197672074556351));
#1256=CARTESIAN_POINT('',(0.031820929825306,0.0148,-0.0281432792544365));
#1257=CARTESIAN_POINT('',(0.031820929825306,0.,-0.0281432792544365));
#1258=CARTESIAN_POINT('',(0.031820929825306,0.,-0.0232225975691664));
#1259=CARTESIAN_POINT('',(0.031820929825306,0.,0.0019767207455635));
#1260=CARTESIAN_POINT('',(0.031820929825306,0.0148,0.00197672074556351));
#1261=CARTESIAN_POINT('',(0.035220929825306,0.0148,-0.0281432792544365));
#1262=CARTESIAN_POINT('',(0.035220929825306,0.0048,-0.0281432792544365));
#1263=CARTESIAN_POINT('',(0.038620929825306,0.0048,-0.0281432792544365));
#1264=CARTESIAN_POINT('',(0.038620929825306,0.0148,-0.0281432792544365));
#1265=CARTESIAN_POINT('',(0.038620929825306,0.,-0.0281432792544365));
#1266=CARTESIAN_POINT('',(0.0378262251019478,0.,-0.0281432792544365));
#1267=CARTESIAN_POINT('',(0.038620929825306,0.0148,-0.0134632792544365));
#1268=CARTESIAN_POINT('',(0.038620929825306,0.0048,-0.0134632792544365));
#1269=CARTESIAN_POINT('',(0.038620929825306,0.0048,0.00121672074556351));
#1270=CARTESIAN_POINT('',(0.038620929825306,0.0148,0.00121672074556351));
#1271=CARTESIAN_POINT('',(0.038620929825306,0.,0.00121672074556351));
#1272=CARTESIAN_POINT('',(0.038620929825306,0.,-0.0232225975691664));
#1273=CARTESIAN_POINT('',(0.035220929825306,0.0148,0.00159672074556351));
#1274=CARTESIAN_POINT('',(0.035220929825306,0.0048,0.00159672074556351));
#1275=CARTESIAN_POINT('',(0.0405337841929464,0.,0.0010029311397684));
#1276=CARTESIAN_POINT('',(0.0378262251019478,0.,-0.0232225975691664));
#1277=CARTESIAN_POINT('',(-0.0761737748980522,0.,-0.040796086192131));
#1278=CARTESIAN_POINT('',(-0.0761737748980522,0.,-0.0446960861921311));
#1279=CARTESIAN_POINT('',(0.0417168309843699,0.,-0.0232225975691664));
#1280=CARTESIAN_POINT('',(0.0417168309843719,0.,-0.0293817501031606));
#1281=CARTESIAN_POINT('',(0.0417168309843699,0.,0.00400451673684251));
#1282=CARTESIAN_POINT('',(0.10914452274974,0.,-0.0407960862116521));
#1283=CARTESIAN_POINT('',(0.0868880726499239,0.,-0.030348811223807));
#1284=CARTESIAN_POINT('',(0.0588477433247303,0.,-0.0253012318621615));
#1285=CARTESIAN_POINT('',(0.0137160916153213,0.,-0.0285073271651956));
#1286=CARTESIAN_POINT('',(-0.0385771767007912,0.,-0.0407960861921228));
#1287=CARTESIAN_POINT('',(-0.0385771767007913,0.,-0.0407960861921228));
#1288=CARTESIAN_POINT('',(0.087961447139131,0.,-0.578463953937868));
#1289=CARTESIAN_POINT('',(-0.0714433345327991,0.,-0.0496067517805814));
#1290=CARTESIAN_POINT('',(0.0889282118544656,-3.4045534396706E-17,-0.581985375291919));
#1291=CARTESIAN_POINT('',(-0.0751806866467739,0.,-0.0507466527953539));
#1292=CARTESIAN_POINT('',(-0.0761737748980522,0.,-0.0407960861921311));
#1293=CARTESIAN_POINT('',(-0.0798652386752571,0.,-0.0315023735227193));
#1294=CARTESIAN_POINT('',(0.154862748514665,0.,-0.0265765520590967));
#1295=CARTESIAN_POINT('',(0.11316838328844,0.,0.0102850422799912));
#1296=CARTESIAN_POINT('',(0.0766052163006014,0.,0.0122979569086462));
#1297=CARTESIAN_POINT('',(0.0220896465948224,0.,0.00974657920336467));
#1298=CARTESIAN_POINT('',(-0.0798652386752571,0.,-0.0315023735227193));
#1299=CARTESIAN_POINT('',(0.041716830984762,-0.007,0.00400451673686741));
#1300=CARTESIAN_POINT('',(0.041716830984762,8.67361737988404E-19,0.00400451673686741));
#1301=CARTESIAN_POINT('',(0.026325726188211,-0.007,0.00194525431574632));
#1302=CARTESIAN_POINT('',(0.026325726188211,8.67361737988404E-19,0.00194525431574632));
#1303=CARTESIAN_POINT('',(-0.00826593521778932,-0.007,-0.00537950088559926));
#1304=CARTESIAN_POINT('',(-0.00826593521778932,2.60208521396521E-18,-0.00537950088559926));
#1305=CARTESIAN_POINT('',(-0.0536481484424114,-0.007,-0.0208954515222147));
#1306=CARTESIAN_POINT('',(-0.0536481484424114,1.73472347597681E-18,-0.0208954515222147));
#1307=CARTESIAN_POINT('',(-0.0798652386752571,-0.007,-0.0315023735227193));
#1308=CARTESIAN_POINT('',(-0.0798652386752571,1.73472347597681E-18,-0.0315023735227193));
#1309=CARTESIAN_POINT('',(0.0417168309843739,-0.007,0.00400451673681548));
#1310=CARTESIAN_POINT('',(0.0417168309845759,-0.007,0.00400451673684251));
#1311=CARTESIAN_POINT('',(-0.0798652386752571,-0.007,-0.0315023735227193));
#1312=CARTESIAN_POINT('',(-0.0798652386752571,-0.007,-0.0315023735227193));
#1313=CARTESIAN_POINT('',(0.154862748514665,-0.007,-0.0265765520590967));
#1314=CARTESIAN_POINT('',(0.11316838328844,-0.007,0.0102850422799912));
#1315=CARTESIAN_POINT('',(0.0766052163006014,-0.007,0.0122979569086462));
#1316=CARTESIAN_POINT('',(0.0220896465948224,-0.007,0.00974657920336467));
#1317=CARTESIAN_POINT('',(-0.0798652386752571,-0.007,-0.0315023735227193));
#1318=CARTESIAN_POINT('',(0.0417168309843738,-0.007,-0.0293817501031605));
#1319=CARTESIAN_POINT('',(0.0417168309843738,0.,-0.0293817501031605));
#1320=CARTESIAN_POINT('',(0.0303955364990159,-0.007,-0.0296952117318647));
#1321=CARTESIAN_POINT('',(0.0303955364990159,0.,-0.0296952117318647));
#1322=CARTESIAN_POINT('',(0.00549573780092716,-0.007,-0.0318325626046774));
#1323=CARTESIAN_POINT('',(0.00549573780092716,-5.20417042793042E-18,-0.0318325626046774));
#1324=CARTESIAN_POINT('',(-0.0234247089837943,-0.007,-0.0372353023583058));
#1325=CARTESIAN_POINT('',(-0.0234247089837943,-5.20417042793042E-18,-0.0372353023583058));
#1326=CARTESIAN_POINT('',(-0.0385771767007912,-0.007,-0.0407960861921228));
#1327=CARTESIAN_POINT('',(-0.0385771767007912,-4.33680868994202E-18,-0.0407960861921228));
#1328=CARTESIAN_POINT('',(0.0417168309843699,-0.007,-0.0293817501031606));
#1329=CARTESIAN_POINT('',(0.0417168309843719,-0.007,-0.0293817501031606));
#1330=CARTESIAN_POINT('',(0.10914452274974,-0.007,-0.0407960862116521));
#1331=CARTESIAN_POINT('',(0.0868880726499239,-0.007,-0.030348811223807));
#1332=CARTESIAN_POINT('',(0.0588477433247303,-0.007,-0.0253012318621615));
#1333=CARTESIAN_POINT('',(0.0137160916153213,-0.007,-0.0285073271651956));
#1334=CARTESIAN_POINT('',(-0.0385771767007912,-0.007,-0.0407960861921228));
#1335=CARTESIAN_POINT('',(-0.0385771767007913,-0.007,-0.0407960861921228));
#1336=CARTESIAN_POINT('',(-0.0385771767007913,-0.007,-0.0407960861921228));
#1337=CARTESIAN_POINT('',(0.0378262251019478,-0.007,-0.0232225975691664));
#1338=CARTESIAN_POINT('',(0.0417168309843699,-0.007,-0.0232225975691664));
#1339=CARTESIAN_POINT('',(-0.0761737748980522,-0.007,-0.0407960861921311));
#1340=CARTESIAN_POINT('',(-0.0751806866467739,-0.007,-0.0507466527953539));
#1341=CARTESIAN_POINT('',(0.0889282118544656,-0.00699999999997312,-0.581985375291919));
#1342=CARTESIAN_POINT('',(-0.071443334532799,-0.007,-0.0496067517805814));
#1343=CARTESIAN_POINT('',(0.087961447139131,-0.007,-0.578463953937868));
#1344=CARTESIAN_POINT('',(-0.0761737748980522,-0.007,-0.0407960861921311));
#1345=CARTESIAN_POINT('',(-0.0751806866467739,-0.007,-0.0507466527953539));
#1346=CARTESIAN_POINT('',(0.0888872355990095,-0.007,-0.581852289276709));
#1347=CARTESIAN_POINT('',(-0.0714434065880627,-0.007,-0.0496065127227734));
#1348=CARTESIAN_POINT('',(0.087961447139131,-0.00699999999999877,-0.578463953937868));
#1349=CARTESIAN_POINT('',(0.0417168309843699,-0.007,-0.0126985585288402));
#1350=CARTESIAN_POINT('',(-0.0761737748980522,0.03,-0.040796086192131));
#1351=CARTESIAN_POINT('',(-0.0761737748980522,0.03,-0.040796086192131));
#1352=CARTESIAN_POINT('',(-0.0761737748980522,0.03,-0.0446960861921311));
#1353=CARTESIAN_POINT('',(0.0378262251019478,0.03,-0.0232225975691664));
#1354=CARTESIAN_POINT('',(0.0362168309844729,0.0048,-0.0129490390093092));
#1355=CARTESIAN_POINT('',(0.,0.,0.));
#1356=CARTESIAN_POINT('',(-0.044790331274271,-0.022,0.118816480189562));
#1357=CARTESIAN_POINT('',(-0.054790331274271,-0.01,0.118816480189562));
#1358=CARTESIAN_POINT('',(-0.054790331274271,-0.012,0.118816480189562));
#1359=CARTESIAN_POINT('',(-0.054790331274271,-0.004,0.118816480189562));
#1360=CARTESIAN_POINT('',(-0.044790331274271,-0.004,0.118816480189562));
#1361=CARTESIAN_POINT('',(-0.034790331274271,-0.004,0.118816480189562));
#1362=CARTESIAN_POINT('',(-0.034790331274271,-0.01,0.118816480189562));
#1363=CARTESIAN_POINT('',(-0.034790331274271,-0.012,0.118816480189562));
#1364=CARTESIAN_POINT('',(-0.044790331274271,-0.012,0.118816480189562));
#1365=CARTESIAN_POINT('',(-0.044790331274271,-0.0125,0.118816480189562));
#1366=CARTESIAN_POINT('',(-0.044790331274271,-0.0125,0.108816480189562));
#1367=CARTESIAN_POINT('',(-0.044790331274271,-0.022,0.118816480189562));
#1368=CARTESIAN_POINT('',(-0.044790331274271,-0.007,0.118816480189562));
#1369=CARTESIAN_POINT('',(-0.044790331274271,-0.007,0.114716480189562));
#1370=CARTESIAN_POINT('',(-0.044790331274271,-0.0125,0.118816480189562));
#1371=CARTESIAN_POINT('',(-0.044790331274271,-0.0125,0.114716480189562));
#1372=CARTESIAN_POINT('',(-0.034790331274271,-0.01,0.143816480189562));
#1373=CARTESIAN_POINT('',(-0.034790331274271,-0.004,0.143816480189562));
#1374=CARTESIAN_POINT('',(-0.034790331274271,-0.004,0.168816480189562));
#1375=CARTESIAN_POINT('',(-0.034790331274271,-0.01,0.168816480189562));
#1376=CARTESIAN_POINT('',(-0.034790331274271,-0.01,0.168816480189562));
#1377=CARTESIAN_POINT('',(-0.034790331274271,-0.01,0.143816480189562));
#1378=CARTESIAN_POINT('',(-0.034790331274271,-0.01,0.125449729770273));
#1379=CARTESIAN_POINT('',(-0.034790331274271,-0.01,0.125449729770273));
#1380=CARTESIAN_POINT('',(-0.034790331274271,-0.01,0.124274966954656));
#1381=CARTESIAN_POINT('',(-0.034790331274271,-0.0105735150967911,0.122011359145395));
#1382=CARTESIAN_POINT('',(-0.034790331274271,-0.0115273883831726,0.119873274533737));
#1383=CARTESIAN_POINT('',(-0.034790331274271,-0.012,0.118816480189562));
#1384=CARTESIAN_POINT('',(-0.044790331274271,-0.01,0.168816480189562));
#1385=CARTESIAN_POINT('',(-0.044790331274271,-0.004,0.168816480189562));
#1386=CARTESIAN_POINT('',(-0.054790331274271,-0.004,0.168816480189562));
#1387=CARTESIAN_POINT('',(-0.054790331274271,-0.01,0.168816480189562));
#1388=CARTESIAN_POINT('',(-0.054790331274271,-0.01,0.168816480189562));
#1389=CARTESIAN_POINT('',(-0.044790331274271,-0.01,0.168816480189562));
#1390=CARTESIAN_POINT('',(-0.054790331274271,-0.01,0.143816480189562));
#1391=CARTESIAN_POINT('',(-0.054790331274271,-0.004,0.143816480189562));
#1392=CARTESIAN_POINT('',(-0.054790331274271,-0.01,0.125449729770273));
#1393=CARTESIAN_POINT('',(-0.054790331274271,-0.01,0.124274966954656));
#1394=CARTESIAN_POINT('',(-0.054790331274271,-0.0105735150967911,0.122011359145395));
#1395=CARTESIAN_POINT('',(-0.054790331274271,-0.0115273883831726,0.119873274533737));
#1396=CARTESIAN_POINT('',(-0.054790331274271,-0.012,0.118816480189562));
#1397=CARTESIAN_POINT('',(-0.054790331274271,-0.01,0.125449729770273));
#1398=CARTESIAN_POINT('',(-0.054790331274271,-0.01,0.143816480189562));
#1399=CARTESIAN_POINT('',(-0.044790331274271,-0.01,0.143816480189562));
#1400=CARTESIAN_POINT('',(-0.044790331274271,-0.01,0.118816480189562));
#1401=CARTESIAN_POINT('',(-0.044790331274271,-0.007,0.118816480189562));
#1402=CARTESIAN_POINT('',(-0.044790331274271,-0.004,0.118816480189562));
#1403=CARTESIAN_POINT('',(-0.044790331274271,-0.004,0.116816480189562));
#1404=CARTESIAN_POINT('',(-0.044790331274271,-0.007,0.118816480189562));
#1405=CARTESIAN_POINT('',(-0.044790331274271,-0.007,0.116816480189562));
#1406=CARTESIAN_POINT('',(-0.044790331274271,-0.007,0.118816480189562));
#1407=CARTESIAN_POINT('',(-0.044790331274271,-0.012,0.118816480189562));
#1408=CARTESIAN_POINT('',(-0.044790331274271,-0.0125,0.143816480189562));
#1409=CARTESIAN_POINT('',(-0.044790331274271,-0.004,0.143816480189562));
#1410=CARTESIAN_POINT('',(-0.044790331274271,-0.004,0.168816480189562));
#1411=CARTESIAN_POINT('',(-0.044790331274271,-0.004,0.162916480189562));
#1412=CARTESIAN_POINT('',(-0.044790331274271,0.012,0.168816480189562));
#1413=CARTESIAN_POINT('',(-0.044790331274271,-0.002,0.168816480189562));
#1414=CARTESIAN_POINT('',(-0.044790331274271,-0.002,0.164916480189562));
#1415=CARTESIAN_POINT('',(-0.044790331274271,0.012,0.168816480189562));
#1416=CARTESIAN_POINT('',(-0.044790331274271,0.012,0.172716480189562));
#1417=CARTESIAN_POINT('',(-0.044790331274271,0.012,0.168816480189562));
#1418=CARTESIAN_POINT('',(-0.044790331274271,-0.002,0.168816480189562));
#1419=MECHANICAL_DESIGN_GEOMETRIC_PRESENTATION_REPRESENTATION('',(#774),
#1422);
#1420=MECHANICAL_DESIGN_GEOMETRIC_PRESENTATION_REPRESENTATION('',(#775),
#1423);
#1421=MECHANICAL_DESIGN_GEOMETRIC_PRESENTATION_REPRESENTATION('',(#776),
#1424);
#1422=(
GEOMETRIC_REPRESENTATION_CONTEXT(3)
GLOBAL_UNCERTAINTY_ASSIGNED_CONTEXT((#1425))
GLOBAL_UNIT_ASSIGNED_CONTEXT((#1434,#1431,#1428))
REPRESENTATION_CONTEXT('Part 2','TOP_LEVEL_ASSEMBLY_PART')
);
#1423=(
GEOMETRIC_REPRESENTATION_CONTEXT(3)
GLOBAL_UNCERTAINTY_ASSIGNED_CONTEXT((#1426))
GLOBAL_UNIT_ASSIGNED_CONTEXT((#1435,#1432,#1429))
REPRESENTATION_CONTEXT('Part 3','TOP_LEVEL_ASSEMBLY_PART')
);
#1424=(
GEOMETRIC_REPRESENTATION_CONTEXT(3)
GLOBAL_UNCERTAINTY_ASSIGNED_CONTEXT((#1427))
GLOBAL_UNIT_ASSIGNED_CONTEXT((#1436,#1433,#1430))
REPRESENTATION_CONTEXT('Part 1','TOP_LEVEL_ASSEMBLY_PART')
);
#1425=UNCERTAINTY_MEASURE_WITH_UNIT(LENGTH_MEASURE(2.E-5),#1434,
'DISTANCE_ACCURACY_VALUE','Maximum Tolerance applied to model');
#1426=UNCERTAINTY_MEASURE_WITH_UNIT(LENGTH_MEASURE(2.E-5),#1435,
'DISTANCE_ACCURACY_VALUE','Maximum Tolerance applied to model');
#1427=UNCERTAINTY_MEASURE_WITH_UNIT(LENGTH_MEASURE(2.E-5),#1436,
'DISTANCE_ACCURACY_VALUE','Maximum Tolerance applied to model');
#1428=(
NAMED_UNIT(*)
SI_UNIT($,.STERADIAN.)
SOLID_ANGLE_UNIT()
);
#1429=(
NAMED_UNIT(*)
SI_UNIT($,.STERADIAN.)
SOLID_ANGLE_UNIT()
);
#1430=(
NAMED_UNIT(*)
SI_UNIT($,.STERADIAN.)
SOLID_ANGLE_UNIT()
);
#1431=(
NAMED_UNIT(*)
PLANE_ANGLE_UNIT()
SI_UNIT($,.RADIAN.)
);
#1432=(
NAMED_UNIT(*)
PLANE_ANGLE_UNIT()
SI_UNIT($,.RADIAN.)
);
#1433=(
NAMED_UNIT(*)
PLANE_ANGLE_UNIT()
SI_UNIT($,.RADIAN.)
);
#1434=(
LENGTH_UNIT()
NAMED_UNIT(*)
SI_UNIT($,.METRE.)
);
#1435=(
LENGTH_UNIT()
NAMED_UNIT(*)
SI_UNIT($,.METRE.)
);
#1436=(
LENGTH_UNIT()
NAMED_UNIT(*)
SI_UNIT($,.METRE.)
);
#1437=PRODUCT_DEFINITION_SHAPE('','',#1440);
#1438=PRODUCT_DEFINITION_SHAPE('','',#1441);
#1439=PRODUCT_DEFINITION_SHAPE('','',#1442);
#1440=PRODUCT_DEFINITION('','',#1446,#1443);
#1441=PRODUCT_DEFINITION('','',#1447,#1444);
#1442=PRODUCT_DEFINITION('','',#1448,#1445);
#1443=PRODUCT_DEFINITION_CONTEXT('',#1464,'design');
#1444=PRODUCT_DEFINITION_CONTEXT('',#1465,'design');
#1445=PRODUCT_DEFINITION_CONTEXT('',#1466,'design');
#1446=PRODUCT_DEFINITION_FORMATION_WITH_SPECIFIED_SOURCE('','',#1452,
 .NOT_KNOWN.);
#1447=PRODUCT_DEFINITION_FORMATION_WITH_SPECIFIED_SOURCE('','',#1453,
 .NOT_KNOWN.);
#1448=PRODUCT_DEFINITION_FORMATION_WITH_SPECIFIED_SOURCE('','',#1454,
 .NOT_KNOWN.);
#1449=PRODUCT_RELATED_PRODUCT_CATEGORY('','',(#1452));
#1450=PRODUCT_RELATED_PRODUCT_CATEGORY('','',(#1453));
#1451=PRODUCT_RELATED_PRODUCT_CATEGORY('','',(#1454));
#1452=PRODUCT('Part 2','Part 2','Part 2',(#1458));
#1453=PRODUCT('Part 3','Part 3','Part 3',(#1459));
#1454=PRODUCT('Part 1','Part 1','Part 1',(#1460));
#1455=PRODUCT_CATEGORY('','');
#1456=PRODUCT_CATEGORY('','');
#1457=PRODUCT_CATEGORY('','');
#1458=PRODUCT_CONTEXT('',#1464,'mechanical');
#1459=PRODUCT_CONTEXT('',#1465,'mechanical');
#1460=PRODUCT_CONTEXT('',#1466,'mechanical');
#1461=APPLICATION_PROTOCOL_DEFINITION('international standard',
'ap242_managed_model_based_3d_engineering',2020,#1464);
#1462=APPLICATION_PROTOCOL_DEFINITION('international standard',
'ap242_managed_model_based_3d_engineering',2020,#1465);
#1463=APPLICATION_PROTOCOL_DEFINITION('international standard',
'ap242_managed_model_based_3d_engineering',2020,#1466);
#1464=APPLICATION_CONTEXT('managed model based 3d engineering');
#1465=APPLICATION_CONTEXT('managed model based 3d engineering');
#1466=APPLICATION_CONTEXT('managed model based 3d engineering');
ENDSEC;
END-ISO-10303-21;
