ISO-10303-21;
HEADER;
/* Generated by software containing ST-Developer
 * from STEP Tools, Inc. (www.steptools.com) 
 */
/* OPTION: using custom renumber hook */

FILE_DESCRIPTION(
/* description */ ('STEP AP242 Edition 2',
'CAx-IF Rec.Pracs.---Representation and Presentation of Product Manufa
cturing Information (PMI)---4.0---2014-10-13',
'CAx-IF Rec.Pracs.---3D Tessellated Geometry---0.4---2014-09-14','2;1',
'CAx-IF Rec.Pracs.---User Defined Attributes---1.5---2016-08-15'),
/* implementation_level */ '2;1');

FILE_NAME(
/* name */ 'shin',
/* time_stamp */ '2026-07-24T19:18:33Z',
/* author */ (''),
/* organization */ (''),
/* preprocessor_version */ 'ST-DEVELOPER v20',
/* originating_system */ 'ONSHAPE BY PTC INC, 1.218',
/* authorisation */ '  ');

FILE_SCHEMA (('AP242_MANAGED_MODEL_BASED_3D_ENGINEERING_MIM_LF { 1 0 10303 442 3 1 4 }'));
ENDSEC;

DATA;
#10=SHAPE_REPRESENTATION_RELATIONSHIP('','',#278,#11);
#11=ADVANCED_BREP_SHAPE_REPRESENTATION('',(#276),#808);
#12=(
BOUNDED_SURFACE()
B_SPLINE_SURFACE(3,2,((#613,#614,#615),(#616,#617,#618),(#619,#620,#621),
(#622,#623,#624),(#625,#626,#627),(#628,#629,#630),(#631,#632,#633),(#634,
#635,#636),(#637,#638,#639),(#640,#641,#642),(#643,#644,#645),(#646,#647,
#648),(#649,#650,#651),(#652,#653,#654),(#655,#656,#657),(#658,#659,#660),
(#661,#662,#663),(#664,#665,#666),(#667,#668,#669),(#670,#671,#672),(#673,
#674,#675),(#676,#677,#678),(#679,#680,#681),(#682,#683,#684)),
 .UNSPECIFIED.,.F.,.F.,.F.)
B_SPLINE_SURFACE_WITH_KNOTS((4,1,1,1,1,1,1,1,1,1,1,1,1,1,1,1,1,1,1,1,1,
4),(3,3),(0.038963145910993,0.0437967748936397,0.0486304038762863,0.0534640328589329,
0.0582976618415795,0.0679649198068727,0.0776321777721659,0.0872994357374592,
0.0969666937027524,0.116301209633339,0.135635725563925,0.145302983529218,
0.154970241494512,0.164637499459805,0.174304757425098,0.179138386407745,
0.183972015390391,0.188805644373038,0.191222458864361,0.192430866110023,
0.193035069732854,0.193639273355685),(0.,1.),.UNSPECIFIED.)
GEOMETRIC_REPRESENTATION_ITEM()
RATIONAL_B_SPLINE_SURFACE(((1.,0.707106781186548,1.),(1.,0.707106781186548,
1.),(1.,0.707106781186548,1.),(1.,0.707106781186548,1.),(1.,0.707106781186547,
1.),(1.,0.707106781186548,1.),(1.,0.707106781186548,1.),(1.,0.707106781186548,
1.),(1.,0.707106781186547,1.),(1.,0.707106781186548,1.),(1.,0.707106781186548,
1.),(1.,0.707106781186548,1.),(1.,0.707106781186548,1.),(1.,0.707106781186547,
1.),(1.,0.707106781186547,1.),(1.,0.707106781186547,1.),(1.,0.707106781186548,
1.),(1.,0.707106781186547,1.),(1.,0.707106781186548,1.),(1.,0.707106781186547,
1.),(1.,0.707106781186547,1.),(1.,0.707106781186548,1.),(1.,0.707106781186548,
1.),(1.,0.707106781186548,1.)))
REPRESENTATION_ITEM('')
SURFACE()
);
#13=(
BOUNDED_SURFACE()
B_SPLINE_SURFACE(3,2,((#685,#686,#687),(#688,#689,#690),(#691,#692,#693),
(#694,#695,#696),(#697,#698,#699),(#700,#701,#702),(#703,#704,#705),(#706,
#707,#708),(#709,#710,#711),(#712,#713,#714),(#715,#716,#717),(#718,#719,
#720),(#721,#722,#723),(#724,#725,#726),(#727,#728,#729),(#730,#731,#732),
(#733,#734,#735),(#736,#737,#738),(#739,#740,#741),(#742,#743,#744),(#745,
#746,#747),(#748,#749,#750),(#751,#752,#753),(#754,#755,#756)),
 .UNSPECIFIED.,.F.,.F.,.F.)
B_SPLINE_SURFACE_WITH_KNOTS((4,1,1,1,1,1,1,1,1,1,1,1,1,1,1,1,1,1,1,1,1,
4),(3,3),(0.038963145910993,0.0437967748936397,0.0486304038762863,0.0534640328589329,
0.0582976618415795,0.0679649198068727,0.0776321777721659,0.0872994357374592,
0.0969666937027524,0.116301209633339,0.135635725563925,0.145302983529218,
0.154970241494512,0.164637499459805,0.174304757425098,0.179138386407745,
0.183972015390391,0.188805644373038,0.191222458864361,0.192430866110023,
0.193035069732854,0.193639273355685),(0.,1.),.UNSPECIFIED.)
GEOMETRIC_REPRESENTATION_ITEM()
RATIONAL_B_SPLINE_SURFACE(((1.,0.707106781186548,1.),(1.,0.707106781186548,
1.),(1.,0.707106781186548,1.),(1.,0.707106781186548,1.),(1.,0.707106781186547,
1.),(1.,0.707106781186548,1.),(1.,0.707106781186548,1.),(1.,0.707106781186548,
1.),(1.,0.707106781186547,1.),(1.,0.707106781186548,1.),(1.,0.707106781186548,
1.),(1.,0.707106781186548,1.),(1.,0.707106781186548,1.),(1.,0.707106781186547,
1.),(1.,0.707106781186547,1.),(1.,0.707106781186547,1.),(1.,0.707106781186548,
1.),(1.,0.707106781186547,1.),(1.,0.707106781186548,1.),(1.,0.707106781186547,
1.),(1.,0.707106781186547,1.),(1.,0.707106781186548,1.),(1.,0.707106781186548,
1.),(1.,0.707106781186548,1.)))
REPRESENTATION_ITEM('')
SURFACE()
);
#14=(
BOUNDED_SURFACE()
B_SPLINE_SURFACE(3,2,((#757,#758,#759),(#760,#761,#762),(#763,#764,#765),
(#766,#767,#768)),.UNSPECIFIED.,.F.,.F.,.F.)
B_SPLINE_SURFACE_WITH_KNOTS((4,4),(3,3),(0.,0.184340254184002),(0.,1.),
 .PIECEWISE_BEZIER_KNOTS.)
GEOMETRIC_REPRESENTATION_ITEM()
RATIONAL_B_SPLINE_SURFACE(((1.,0.707106781186548,1.),(1.,0.707106781186548,
1.),(1.,0.707106781186548,1.),(1.,0.707106781186548,1.)))
REPRESENTATION_ITEM('')
SURFACE()
);
#15=(
BOUNDED_SURFACE()
B_SPLINE_SURFACE(3,2,((#770,#771,#772),(#773,#774,#775),(#776,#777,#778),
(#779,#780,#781)),.UNSPECIFIED.,.F.,.F.,.F.)
B_SPLINE_SURFACE_WITH_KNOTS((4,4),(3,3),(3.29597460435593E-17,0.0212443140003373),
(0.,1.),.PIECEWISE_BEZIER_KNOTS.)
GEOMETRIC_REPRESENTATION_ITEM()
RATIONAL_B_SPLINE_SURFACE(((1.,0.707106781186548,1.),(1.,0.707106781186548,
1.),(1.,0.707106781186548,1.),(1.,0.707106781186548,1.)))
REPRESENTATION_ITEM('')
SURFACE()
);
#16=(
BOUNDED_SURFACE()
B_SPLINE_SURFACE(3,2,((#782,#783,#784),(#785,#786,#787),(#788,#789,#790),
(#791,#792,#793)),.UNSPECIFIED.,.F.,.F.,.F.)
B_SPLINE_SURFACE_WITH_KNOTS((4,4),(3,3),(0.,0.184340254184002),(0.,1.),
 .PIECEWISE_BEZIER_KNOTS.)
GEOMETRIC_REPRESENTATION_ITEM()
RATIONAL_B_SPLINE_SURFACE(((1.,0.707106781186548,1.),(1.,0.707106781186548,
1.),(1.,0.707106781186548,1.),(1.,0.707106781186548,1.)))
REPRESENTATION_ITEM('')
SURFACE()
);
#17=(
BOUNDED_SURFACE()
B_SPLINE_SURFACE(3,2,((#795,#796,#797),(#798,#799,#800),(#801,#802,#803),
(#804,#805,#806)),.UNSPECIFIED.,.F.,.F.,.F.)
B_SPLINE_SURFACE_WITH_KNOTS((4,4),(3,3),(3.29597460435593E-17,0.0212443140003373),
(0.,1.),.PIECEWISE_BEZIER_KNOTS.)
GEOMETRIC_REPRESENTATION_ITEM()
RATIONAL_B_SPLINE_SURFACE(((1.,0.707106781186548,1.),(1.,0.707106781186548,
1.),(1.,0.707106781186548,1.),(1.,0.707106781186548,1.)))
REPRESENTATION_ITEM('')
SURFACE()
);
#18=CIRCLE('',#283,0.015);
#19=CIRCLE('',#284,0.015);
#20=CIRCLE('',#286,0.0035);
#21=CIRCLE('',#287,0.0035);
#22=CIRCLE('',#289,0.0111);
#23=CIRCLE('',#290,0.0111);
#24=CIRCLE('',#293,0.007);
#25=CIRCLE('',#294,0.007);
#26=CYLINDRICAL_SURFACE('',#282,0.015);
#27=CYLINDRICAL_SURFACE('',#285,0.0035);
#28=CYLINDRICAL_SURFACE('',#288,0.0111);
#29=PLANE('',#280);
#30=PLANE('',#281);
#31=PLANE('',#291);
#32=PLANE('',#292);
#33=LINE('',#384,#38);
#34=LINE('',#424,#39);
#35=LINE('',#453,#40);
#36=LINE('',#465,#41);
#37=LINE('',#493,#42);
#38=VECTOR('',#297,1.);
#39=VECTOR('',#298,1.);
#40=VECTOR('',#301,1.);
#41=VECTOR('',#304,1.);
#42=VECTOR('',#309,1.);
#43=ORIENTED_EDGE('',*,*,#121,.T.);
#44=ORIENTED_EDGE('',*,*,#122,.T.);
#45=ORIENTED_EDGE('',*,*,#123,.F.);
#46=ORIENTED_EDGE('',*,*,#124,.T.);
#47=ORIENTED_EDGE('',*,*,#125,.F.);
#48=ORIENTED_EDGE('',*,*,#126,.T.);
#49=ORIENTED_EDGE('',*,*,#127,.T.);
#50=ORIENTED_EDGE('',*,*,#128,.T.);
#51=ORIENTED_EDGE('',*,*,#123,.T.);
#52=ORIENTED_EDGE('',*,*,#129,.T.);
#53=ORIENTED_EDGE('',*,*,#130,.F.);
#54=ORIENTED_EDGE('',*,*,#131,.T.);
#55=ORIENTED_EDGE('',*,*,#130,.T.);
#56=ORIENTED_EDGE('',*,*,#132,.T.);
#57=ORIENTED_EDGE('',*,*,#133,.F.);
#58=ORIENTED_EDGE('',*,*,#134,.T.);
#59=ORIENTED_EDGE('',*,*,#133,.T.);
#60=ORIENTED_EDGE('',*,*,#135,.T.);
#61=ORIENTED_EDGE('',*,*,#136,.T.);
#62=ORIENTED_EDGE('',*,*,#137,.T.);
#63=ORIENTED_EDGE('',*,*,#138,.F.);
#64=ORIENTED_EDGE('',*,*,#139,.T.);
#65=ORIENTED_EDGE('',*,*,#140,.F.);
#66=ORIENTED_EDGE('',*,*,#141,.T.);
#67=ORIENTED_EDGE('',*,*,#142,.T.);
#68=ORIENTED_EDGE('',*,*,#143,.F.);
#69=ORIENTED_EDGE('',*,*,#144,.T.);
#70=ORIENTED_EDGE('',*,*,#145,.T.);
#71=ORIENTED_EDGE('',*,*,#146,.F.);
#72=ORIENTED_EDGE('',*,*,#147,.T.);
#73=ORIENTED_EDGE('',*,*,#127,.F.);
#74=ORIENTED_EDGE('',*,*,#148,.T.);
#75=ORIENTED_EDGE('',*,*,#138,.T.);
#76=ORIENTED_EDGE('',*,*,#149,.T.);
#77=ORIENTED_EDGE('',*,*,#150,.T.);
#78=ORIENTED_EDGE('',*,*,#125,.T.);
#79=ORIENTED_EDGE('',*,*,#151,.T.);
#80=ORIENTED_EDGE('',*,*,#144,.F.);
#81=ORIENTED_EDGE('',*,*,#152,.T.);
#82=ORIENTED_EDGE('',*,*,#153,.T.);
#83=ORIENTED_EDGE('',*,*,#140,.T.);
#84=ORIENTED_EDGE('',*,*,#142,.F.);
#85=ORIENTED_EDGE('',*,*,#121,.F.);
#86=ORIENTED_EDGE('',*,*,#154,.T.);
#87=ORIENTED_EDGE('',*,*,#136,.F.);
#88=ORIENTED_EDGE('',*,*,#155,.T.);
#89=ORIENTED_EDGE('',*,*,#156,.T.);
#90=ORIENTED_EDGE('',*,*,#146,.T.);
#91=ORIENTED_EDGE('',*,*,#157,.T.);
#92=ORIENTED_EDGE('',*,*,#143,.T.);
#93=ORIENTED_EDGE('',*,*,#139,.F.);
#94=ORIENTED_EDGE('',*,*,#148,.F.);
#95=ORIENTED_EDGE('',*,*,#126,.F.);
#96=ORIENTED_EDGE('',*,*,#150,.F.);
#97=ORIENTED_EDGE('',*,*,#137,.F.);
#98=ORIENTED_EDGE('',*,*,#154,.F.);
#99=ORIENTED_EDGE('',*,*,#128,.F.);
#100=ORIENTED_EDGE('',*,*,#149,.F.);
#101=ORIENTED_EDGE('',*,*,#147,.F.);
#102=ORIENTED_EDGE('',*,*,#156,.F.);
#103=ORIENTED_EDGE('',*,*,#158,.F.);
#104=ORIENTED_EDGE('',*,*,#129,.F.);
#105=ORIENTED_EDGE('',*,*,#122,.F.);
#106=ORIENTED_EDGE('',*,*,#157,.F.);
#107=ORIENTED_EDGE('',*,*,#158,.T.);
#108=ORIENTED_EDGE('',*,*,#155,.F.);
#109=ORIENTED_EDGE('',*,*,#135,.F.);
#110=ORIENTED_EDGE('',*,*,#132,.F.);
#111=ORIENTED_EDGE('',*,*,#124,.F.);
#112=ORIENTED_EDGE('',*,*,#131,.F.);
#113=ORIENTED_EDGE('',*,*,#159,.F.);
#114=ORIENTED_EDGE('',*,*,#152,.F.);
#115=ORIENTED_EDGE('',*,*,#145,.F.);
#116=ORIENTED_EDGE('',*,*,#151,.F.);
#117=ORIENTED_EDGE('',*,*,#159,.T.);
#118=ORIENTED_EDGE('',*,*,#134,.F.);
#119=ORIENTED_EDGE('',*,*,#141,.F.);
#120=ORIENTED_EDGE('',*,*,#153,.F.);
#121=EDGE_CURVE('',#160,#161,#186,.T.);
#122=EDGE_CURVE('',#161,#162,#187,.T.);
#123=EDGE_CURVE('',#163,#162,#33,.T.);
#124=EDGE_CURVE('',#163,#164,#188,.T.);
#125=EDGE_CURVE('',#165,#164,#189,.T.);
#126=EDGE_CURVE('',#165,#166,#190,.T.);
#127=EDGE_CURVE('',#166,#167,#34,.T.);
#128=EDGE_CURVE('',#167,#160,#191,.T.);
#129=EDGE_CURVE('',#162,#168,#192,.T.);
#130=EDGE_CURVE('',#169,#168,#35,.T.);
#131=EDGE_CURVE('',#169,#163,#193,.T.);
#132=EDGE_CURVE('',#168,#170,#194,.T.);
#133=EDGE_CURVE('',#171,#170,#36,.T.);
#134=EDGE_CURVE('',#171,#169,#195,.T.);
#135=EDGE_CURVE('',#170,#172,#196,.T.);
#136=EDGE_CURVE('',#172,#173,#18,.T.);
#137=EDGE_CURVE('',#173,#174,#197,.T.);
#138=EDGE_CURVE('',#175,#174,#37,.T.);
#139=EDGE_CURVE('',#175,#176,#198,.T.);
#140=EDGE_CURVE('',#177,#176,#19,.T.);
#141=EDGE_CURVE('',#177,#171,#199,.T.);
#142=EDGE_CURVE('',#178,#178,#20,.T.);
#143=EDGE_CURVE('',#179,#179,#21,.T.);
#144=EDGE_CURVE('',#180,#181,#22,.T.);
#145=EDGE_CURVE('',#181,#180,#200,.T.);
#146=EDGE_CURVE('',#182,#183,#23,.T.);
#147=EDGE_CURVE('',#182,#183,#201,.T.);
#148=EDGE_CURVE('',#166,#175,#202,.T.);
#149=EDGE_CURVE('',#174,#167,#203,.T.);
#150=EDGE_CURVE('',#176,#165,#204,.T.);
#151=EDGE_CURVE('',#164,#181,#205,.T.);
#152=EDGE_CURVE('',#180,#184,#206,.T.);
#153=EDGE_CURVE('',#184,#177,#207,.T.);
#154=EDGE_CURVE('',#160,#173,#208,.T.);
#155=EDGE_CURVE('',#172,#185,#209,.T.);
#156=EDGE_CURVE('',#185,#182,#210,.T.);
#157=EDGE_CURVE('',#183,#161,#211,.T.);
#158=EDGE_CURVE('',#168,#185,#24,.T.);
#159=EDGE_CURVE('',#184,#169,#25,.T.);
#160=VERTEX_POINT('',#375);
#161=VERTEX_POINT('',#376);
#162=VERTEX_POINT('',#383);
#163=VERTEX_POINT('',#385);
#164=VERTEX_POINT('',#392);
#165=VERTEX_POINT('',#401);
#166=VERTEX_POINT('',#423);
#167=VERTEX_POINT('',#425);
#168=VERTEX_POINT('',#452);
#169=VERTEX_POINT('',#454);
#170=VERTEX_POINT('',#464);
#171=VERTEX_POINT('',#466);
#172=VERTEX_POINT('',#480);
#173=VERTEX_POINT('',#482);
#174=VERTEX_POINT('',#492);
#175=VERTEX_POINT('',#494);
#176=VERTEX_POINT('',#504);
#177=VERTEX_POINT('',#506);
#178=VERTEX_POINT('',#517);
#179=VERTEX_POINT('',#519);
#180=VERTEX_POINT('',#522);
#181=VERTEX_POINT('',#523);
#182=VERTEX_POINT('',#532);
#183=VERTEX_POINT('',#533);
#184=VERTEX_POINT('',#587);
#185=VERTEX_POINT('',#604);
#186=B_SPLINE_CURVE_WITH_KNOTS('',3,(#367,#368,#369,#370,#371,#372,#373,
#374),.UNSPECIFIED.,.F.,.F.,(4,3,1,4),(-4.,0.,0.510345036192737,1.),
 .UNSPECIFIED.);
#187=B_SPLINE_CURVE_WITH_KNOTS('',3,(#377,#378,#379,#380,#381,#382),
 .UNSPECIFIED.,.F.,.F.,(4,1,1,4),(5.09619296348134E-17,0.00275713164393308,
0.00551426328786612,0.0110285265757322),.UNSPECIFIED.);
#188=B_SPLINE_CURVE_WITH_KNOTS('',3,(#386,#387,#388,#389,#390,#391),
 .UNSPECIFIED.,.F.,.F.,(4,1,1,4),(0.,0.00275711726238557,0.00551423452477115,
0.0110284690495423),.UNSPECIFIED.);
#189=B_SPLINE_CURVE_WITH_KNOTS('',3,(#393,#394,#395,#396,#397,#398,#399,
#400),.UNSPECIFIED.,.F.,.F.,(4,3,1,4),(-4.,0.,0.510345036192737,1.),
 .UNSPECIFIED.);
#190=B_SPLINE_CURVE_WITH_KNOTS('',3,(#402,#403,#404,#405,#406,#407,#408,
#409,#410,#411,#412,#413,#414,#415,#416,#417,#418,#419,#420,#421,#422),
 .UNSPECIFIED.,.F.,.F.,(4,1,1,1,1,1,1,1,1,1,1,1,1,1,1,1,1,1,4),(0.,0.0053686786390525,
0.010737357278105,0.0161060359171575,0.02147471455621,0.0241590538757362,
0.0268433931952625,0.0295277325147887,0.032212071834315,0.0348964111538412,
0.0362385808136044,0.0375807504733675,0.0389229201331306,0.0402650897928937,
0.0409361746227753,0.0416072594526569,0.0422783442825384,0.0426138866974792,
0.04294942911242),.UNSPECIFIED.);
#191=B_SPLINE_CURVE_WITH_KNOTS('',3,(#426,#427,#428,#429,#430,#431,#432,
#433,#434,#435,#436,#437,#438,#439,#440,#441,#442,#443,#444,#445,#446),
 .UNSPECIFIED.,.F.,.F.,(4,1,1,1,1,1,1,1,1,1,1,1,1,1,1,1,1,1,4),(0.,0.000339288921287043,
0.000678577842574086,0.00135715568514817,0.00203573352772226,0.00271431137029634,
0.00407146705544451,0.00542862274059269,0.00678577842574086,0.00814293411088903,
0.0108572454811854,0.0135715568514817,0.0162858682217781,0.0190001795920744,
0.0217144909623707,0.0271431137029634,0.0325717364435561,0.0380003591841488,
0.0434289819247415),.UNSPECIFIED.);
#192=B_SPLINE_CURVE_WITH_KNOTS('',3,(#448,#449,#450,#451),.UNSPECIFIED.,
 .F.,.F.,(4,4),(0.,0.181937577705927),.UNSPECIFIED.);
#193=B_SPLINE_CURVE_WITH_KNOTS('',3,(#455,#456,#457,#458),.UNSPECIFIED.,
 .F.,.F.,(4,4),(0.,0.181937577702529),.UNSPECIFIED.);
#194=B_SPLINE_CURVE_WITH_KNOTS('',3,(#460,#461,#462,#463),.UNSPECIFIED.,
 .F.,.F.,(4,4),(0.,0.014785245181273),.UNSPECIFIED.);
#195=B_SPLINE_CURVE_WITH_KNOTS('',3,(#467,#468,#469,#470),.UNSPECIFIED.,
 .F.,.F.,(4,4),(0.,0.0147852451813063),.UNSPECIFIED.);
#196=B_SPLINE_CURVE_WITH_KNOTS('',3,(#472,#473,#474,#475,#476,#477,#478,
#479),.UNSPECIFIED.,.F.,.F.,(4,1,1,1,1,4),(1.12757025938492E-17,0.00160189837176753,
0.00320379674353505,0.0064075934870701,0.00961139023060514,0.0128151869741402),
 .UNSPECIFIED.);
#197=B_SPLINE_CURVE_WITH_KNOTS('',3,(#483,#484,#485,#486,#487,#488,#489,
#490,#491),.UNSPECIFIED.,.F.,.F.,(4,1,1,1,1,1,4),(0.,0.00348343007713933,
0.00696686015427866,0.00870857519284832,0.010450290231418,0.0121920052699877,
0.0139337203085573),.UNSPECIFIED.);
#198=B_SPLINE_CURVE_WITH_KNOTS('',3,(#495,#496,#497,#498,#499,#500,#501,
#502,#503),.UNSPECIFIED.,.F.,.F.,(4,1,1,1,1,1,4),(0.,0.00175008042357768,
0.00350016084715535,0.00525024127073303,0.00700032169431071,0.0105004825414661,
0.0140006433886214),.UNSPECIFIED.);
#199=B_SPLINE_CURVE_WITH_KNOTS('',3,(#507,#508,#509,#510,#511,#512,#513,
#514),.UNSPECIFIED.,.F.,.F.,(4,1,1,1,1,4),(0.,0.00318388892362632,0.00636777784725265,
0.00955166677087897,0.0111436112326921,0.0127355556945053),
 .UNSPECIFIED.);
#200=B_SPLINE_CURVE_WITH_KNOTS('',3,(#524,#525,#526,#527,#528,#529,#530),
 .UNSPECIFIED.,.F.,.F.,(4,1,1,1,4),(0.,0.00286339973745092,0.00572679947490184,
0.00859019921235277,0.0114535989498037),.UNSPECIFIED.);
#201=B_SPLINE_CURVE_WITH_KNOTS('',3,(#534,#535,#536,#537,#538,#539,#540),
 .UNSPECIFIED.,.F.,.F.,(4,1,1,1,4),(2.37625081667029E-15,0.00286339973694175,
0.00572679947388112,0.00859019921082048,0.0114535989477599),
 .UNSPECIFIED.);
#202=B_SPLINE_CURVE_WITH_KNOTS('',3,(#549,#550,#551,#552,#553,#554,#555,
#556,#557,#558,#559),.UNSPECIFIED.,.F.,.F.,(4,1,1,1,1,1,1,1,4),(0.,0.00927411363741306,
0.0185482272748261,0.0370964545496522,0.0556446818244783,0.0741929090993045,
0.0927411363741306,0.111289363648957,0.148385818198609),.UNSPECIFIED.);
#203=B_SPLINE_CURVE_WITH_KNOTS('',3,(#560,#561,#562,#563,#564,#565,#566,
#567,#568,#569,#570),.UNSPECIFIED.,.F.,.F.,(4,1,1,1,1,1,1,1,4),(0.,0.0370976840769638,
0.0556465261154457,0.0741953681539275,0.0927442101924094,0.111293052230891,
0.129841894269373,0.139116315288614,0.148390736307855),.UNSPECIFIED.);
#204=B_SPLINE_CURVE_WITH_KNOTS('',3,(#572,#573,#574,#575,#576,#577,#578),
 .UNSPECIFIED.,.F.,.F.,(4,1,1,1,4),(0.,0.0255302420668045,0.0510604841336089,
0.0765907262004134,0.102120968267218),.UNSPECIFIED.);
#205=B_SPLINE_CURVE_WITH_KNOTS('',3,(#579,#580,#581,#582),.UNSPECIFIED.,
 .F.,.F.,(4,4),(6.20633538311818E-17,0.0107806473298524),.UNSPECIFIED.);
#206=B_SPLINE_CURVE_WITH_KNOTS('',3,(#583,#584,#585,#586),.UNSPECIFIED.,
 .F.,.F.,(4,4),(0.0217707419151308,0.183240809341209),.UNSPECIFIED.);
#207=B_SPLINE_CURVE_WITH_KNOTS('',3,(#588,#589,#590,#591),.UNSPECIFIED.,
 .F.,.F.,(4,4),(0.,0.0211176083500545),.UNSPECIFIED.);
#208=B_SPLINE_CURVE_WITH_KNOTS('',3,(#593,#594,#595,#596,#597,#598,#599),
 .UNSPECIFIED.,.F.,.F.,(4,1,1,1,4),(0.,0.0254772661433547,0.0509545322867093,
0.076431798430064,0.101909064573419),.UNSPECIFIED.);
#209=B_SPLINE_CURVE_WITH_KNOTS('',3,(#600,#601,#602,#603),.UNSPECIFIED.,
 .F.,.F.,(4,4),(0.,0.0211176083501431),.UNSPECIFIED.);
#210=B_SPLINE_CURVE_WITH_KNOTS('',3,(#605,#606,#607,#608),.UNSPECIFIED.,
 .F.,.F.,(4,4),(0.,0.161470067427817),.UNSPECIFIED.);
#211=B_SPLINE_CURVE_WITH_KNOTS('',3,(#609,#610,#611,#612),.UNSPECIFIED.,
 .F.,.F.,(4,4),(0.172460162012364,0.183240809339649),.UNSPECIFIED.);
#212=EDGE_LOOP('',(#43,#44,#45,#46,#47,#48,#49,#50));
#213=EDGE_LOOP('',(#51,#52,#53,#54));
#214=EDGE_LOOP('',(#55,#56,#57,#58));
#215=EDGE_LOOP('',(#59,#60,#61,#62,#63,#64,#65,#66));
#216=EDGE_LOOP('',(#67));
#217=EDGE_LOOP('',(#68));
#218=EDGE_LOOP('',(#69,#70));
#219=EDGE_LOOP('',(#71,#72));
#220=EDGE_LOOP('',(#73,#74,#75,#76));
#221=EDGE_LOOP('',(#77,#78,#79,#80,#81,#82,#83));
#222=EDGE_LOOP('',(#84));
#223=EDGE_LOOP('',(#85,#86,#87,#88,#89,#90,#91));
#224=EDGE_LOOP('',(#92));
#225=EDGE_LOOP('',(#93,#94,#95,#96));
#226=EDGE_LOOP('',(#97,#98,#99,#100));
#227=EDGE_LOOP('',(#101,#102,#103,#104,#105,#106));
#228=EDGE_LOOP('',(#107,#108,#109,#110));
#229=EDGE_LOOP('',(#111,#112,#113,#114,#115,#116));
#230=EDGE_LOOP('',(#117,#118,#119,#120));
#231=FACE_BOUND('',#212,.T.);
#232=FACE_BOUND('',#213,.T.);
#233=FACE_BOUND('',#214,.T.);
#234=FACE_BOUND('',#215,.T.);
#235=FACE_BOUND('',#216,.T.);
#236=FACE_BOUND('',#217,.T.);
#237=FACE_BOUND('',#218,.T.);
#238=FACE_BOUND('',#219,.T.);
#239=FACE_BOUND('',#220,.T.);
#240=FACE_BOUND('',#221,.T.);
#241=FACE_BOUND('',#222,.T.);
#242=FACE_BOUND('',#223,.T.);
#243=FACE_BOUND('',#224,.T.);
#244=FACE_BOUND('',#225,.T.);
#245=FACE_BOUND('',#226,.T.);
#246=FACE_BOUND('',#227,.T.);
#247=FACE_BOUND('',#228,.T.);
#248=FACE_BOUND('',#229,.T.);
#249=FACE_BOUND('',#230,.T.);
#250=B_SPLINE_SURFACE_WITH_KNOTS('',3,1,((#333,#334),(#335,#336),(#337,
#338),(#339,#340),(#341,#342),(#343,#344),(#345,#346),(#347,#348),(#349,
#350),(#351,#352),(#353,#354),(#355,#356),(#357,#358),(#359,#360),(#361,
#362),(#363,#364),(#365,#366)),.SURF_OF_LINEAR_EXTRUSION.,.F.,.F.,.F.,(4,
1,1,1,1,1,1,1,1,1,1,1,1,1,4),(2,2),(-0.461986958581485,-0.279238588758781,
-0.187864403847428,-0.0964902189360756,-0.00511603402472312,0.0862581508866293,
0.177632335797982,0.269006520709334,0.360380705620687,0.451754890532039,
0.543129075443392,0.634503260354744,0.725877445266097,0.817251630177449,
1.00000000000015),(0.,1.),.UNSPECIFIED.);
#251=B_SPLINE_SURFACE_WITH_KNOTS('',3,1,((#541,#542),(#543,#544),(#545,
#546),(#547,#548)),.SURF_OF_LINEAR_EXTRUSION.,.F.,.F.,.F.,(4,4),(2,2),(0.,
1.),(0.,1.),.PIECEWISE_BEZIER_KNOTS.);
#252=ADVANCED_FACE('',(#231),#250,.F.);
#253=ADVANCED_FACE('',(#232),#29,.F.);
#254=ADVANCED_FACE('',(#233),#30,.F.);
#255=ADVANCED_FACE('',(#234),#26,.T.);
#256=ADVANCED_FACE('',(#235,#236),#27,.F.);
#257=ADVANCED_FACE('',(#237,#238),#28,.F.);
#258=ADVANCED_FACE('',(#239),#251,.F.);
#259=ADVANCED_FACE('',(#240,#241),#31,.T.);
#260=ADVANCED_FACE('',(#242,#243),#32,.F.);
#261=ADVANCED_FACE('',(#244),#12,.T.);
#262=ADVANCED_FACE('',(#245),#13,.T.);
#263=ADVANCED_FACE('',(#246),#14,.T.);
#264=ADVANCED_FACE('',(#247),#15,.T.);
#265=ADVANCED_FACE('',(#248),#16,.T.);
#266=ADVANCED_FACE('',(#249),#17,.T.);
#267=CLOSED_SHELL('',(#252,#253,#254,#255,#256,#257,#258,#259,#260,#261,
#262,#263,#264,#265,#266));
#268=STYLED_ITEM('',(#269),#276);
#269=PRESENTATION_STYLE_ASSIGNMENT((#270));
#270=SURFACE_STYLE_USAGE(.BOTH.,#271);
#271=SURFACE_SIDE_STYLE('',(#272));
#272=SURFACE_STYLE_FILL_AREA(#273);
#273=FILL_AREA_STYLE('',(#274));
#274=FILL_AREA_STYLE_COLOUR('',#275);
#275=COLOUR_RGB('',0.168627450980392,0.164705882352941,0.16078431372549);
#276=MANIFOLD_SOLID_BREP('Part 1',#267);
#277=SHAPE_DEFINITION_REPRESENTATION(#813,#278);
#278=SHAPE_REPRESENTATION('Part 1',(#279),#808);
#279=AXIS2_PLACEMENT_3D('',#332,#295,#296);
#280=AXIS2_PLACEMENT_3D('',#447,#299,#300);
#281=AXIS2_PLACEMENT_3D('',#459,#302,#303);
#282=AXIS2_PLACEMENT_3D('',#471,#305,#306);
#283=AXIS2_PLACEMENT_3D('',#481,#307,#308);
#284=AXIS2_PLACEMENT_3D('',#505,#310,#311);
#285=AXIS2_PLACEMENT_3D('',#515,#312,#313);
#286=AXIS2_PLACEMENT_3D('',#516,#314,#315);
#287=AXIS2_PLACEMENT_3D('',#518,#316,#317);
#288=AXIS2_PLACEMENT_3D('',#520,#318,#319);
#289=AXIS2_PLACEMENT_3D('',#521,#320,#321);
#290=AXIS2_PLACEMENT_3D('',#531,#322,#323);
#291=AXIS2_PLACEMENT_3D('',#571,#324,#325);
#292=AXIS2_PLACEMENT_3D('',#592,#326,#327);
#293=AXIS2_PLACEMENT_3D('',#769,#328,#329);
#294=AXIS2_PLACEMENT_3D('',#794,#330,#331);
#295=DIRECTION('',(0.,0.,1.));
#296=DIRECTION('',(1.,0.,0.));
#297=DIRECTION('',(0.,0.,-1.));
#298=DIRECTION('',(0.,0.,-1.));
#299=DIRECTION('',(0.571011068771492,-0.820942360546974,-7.43368811307789E-23));
#300=DIRECTION('',(-0.820942360546974,-0.571011068771492,-2.67655223584246E-30));
#301=DIRECTION('',(0.,0.,-1.));
#302=DIRECTION('',(0.571034415902137,-0.820926120826536,-3.99248208010292E-24));
#303=DIRECTION('',(-0.820926120826536,-0.571034415902137,-3.96172241337266E-17));
#304=DIRECTION('',(0.,0.,-1.));
#305=DIRECTION('',(0.,0.,-1.));
#306=DIRECTION('',(-1.,0.,0.));
#307=DIRECTION('',(0.,0.,1.));
#308=DIRECTION('',(1.,0.,0.));
#309=DIRECTION('',(0.,0.,-1.));
#310=DIRECTION('',(0.,0.,1.));
#311=DIRECTION('',(1.,0.,0.));
#312=DIRECTION('',(0.,0.,-1.));
#313=DIRECTION('',(-1.,0.,0.));
#314=DIRECTION('',(0.,0.,1.));
#315=DIRECTION('',(1.,0.,0.));
#316=DIRECTION('',(0.,0.,1.));
#317=DIRECTION('',(1.,0.,0.));
#318=DIRECTION('',(0.,0.,-1.));
#319=DIRECTION('',(-1.,0.,0.));
#320=DIRECTION('',(0.,0.,1.));
#321=DIRECTION('',(1.,0.,0.));
#322=DIRECTION('',(0.,0.,1.));
#323=DIRECTION('',(1.,0.,0.));
#324=DIRECTION('',(0.,0.,1.));
#325=DIRECTION('',(1.,0.,0.));
#326=DIRECTION('',(0.,0.,1.));
#327=DIRECTION('',(1.,0.,0.));
#328=DIRECTION('',(-0.820929420791856,-0.571029671802042,-4.06881582390765E-16));
#329=DIRECTION('',(0.571029671802042,-0.820929420791856,0.));
#330=DIRECTION('',(-0.820929420791857,-0.571029671802041,0.));
#331=DIRECTION('',(0.571029671802041,-0.820929420791857,0.));
#332=CARTESIAN_POINT('',(0.,0.,0.));
#333=CARTESIAN_POINT('',(0.0709681075670054,0.0256569571375888,0.015));
#334=CARTESIAN_POINT('',(0.0709681075670054,0.0256569571375888,0.));
#335=CARTESIAN_POINT('',(0.0764872530459808,0.0268761220543692,0.015));
#336=CARTESIAN_POINT('',(0.0764872530459808,0.0268761220543692,0.));
#337=CARTESIAN_POINT('',(0.0847660539399479,0.0287048468741169,0.015));
#338=CARTESIAN_POINT('',(0.0847660539399479,0.0287048468741169,3.46944695195361E-18));
#339=CARTESIAN_POINT('',(0.0958041244298883,0.031143236855472,0.015));
#340=CARTESIAN_POINT('',(0.0958041244298883,0.031143236855472,-6.93889390390723E-18));
#341=CARTESIAN_POINT('',(0.104083504052383,0.0329718037872596,0.015));
#342=CARTESIAN_POINT('',(0.104083504052383,0.0329718037872596,5.20417042793042E-18));
#343=CARTESIAN_POINT('',(0.112359742005729,0.0348012278251166,0.015));
#344=CARTESIAN_POINT('',(0.112359742005729,0.0348012278251166,0.));
#345=CARTESIAN_POINT('',(0.120647719880629,0.0366274489929246,0.015));
#346=CARTESIAN_POINT('',(0.120647719880629,0.0366274489929246,6.93889390390723E-18));
#347=CARTESIAN_POINT('',(0.128504785649367,0.0385712337522642,0.015));
#348=CARTESIAN_POINT('',(0.128504785649367,0.0385712337522642,-5.20417042793042E-18));
#349=CARTESIAN_POINT('',(0.135467438094712,0.0407590365748139,0.015));
#350=CARTESIAN_POINT('',(0.135467438094712,0.0407590365748139,3.46944695195361E-18));
#351=CARTESIAN_POINT('',(0.141071595595346,0.0433174703240132,0.015));
#352=CARTESIAN_POINT('',(0.141071595595346,0.0433174703240132,5.20417042793042E-18));
#353=CARTESIAN_POINT('',(0.14487626657183,0.046366848318966,0.015));
#354=CARTESIAN_POINT('',(0.14487626657183,0.046366848318966,-3.46944695195361E-18));
#355=CARTESIAN_POINT('',(0.146348679681302,0.0500525236643571,0.015));
#356=CARTESIAN_POINT('',(0.146348679681302,0.0500525236643571,3.46944695195361E-18));
#357=CARTESIAN_POINT('',(0.145343494949874,0.0544141486336763,0.015));
#358=CARTESIAN_POINT('',(0.145343494949874,0.0544141486336763,1.73472347597681E-18));
#359=CARTESIAN_POINT('',(0.142441321109756,0.0592933187938708,0.015));
#360=CARTESIAN_POINT('',(0.142441321109756,0.0592933187938708,1.73472347597681E-18));
#361=CARTESIAN_POINT('',(0.136645954414936,0.0663242848056208,0.015));
#362=CARTESIAN_POINT('',(0.136645954414936,0.0663242848056208,-1.73472347597681E-18));
#363=CARTESIAN_POINT('',(0.130862374305139,0.071989572893379,0.015));
#364=CARTESIAN_POINT('',(0.130862374305139,0.071989572893379,0.));
#365=CARTESIAN_POINT('',(0.127006279396754,0.0757665335951279,0.015));
#366=CARTESIAN_POINT('',(0.127006279396754,0.0757665335951279,0.));
#367=CARTESIAN_POINT('',(-0.249584278772395,-0.0451522333256755,0.));
#368=CARTESIAN_POINT('',(-0.128781111349782,-0.018467127068078,0.));
#369=CARTESIAN_POINT('',(-0.00797794392717,0.00821797918951963,0.));
#370=CARTESIAN_POINT('',(0.112825223495442,0.0349030854471172,0.));
#371=CARTESIAN_POINT('',(0.128238047708065,0.0383077383268274,0.));
#372=CARTESIAN_POINT('',(0.158438839813135,0.0449790165435174,0.));
#373=CARTESIAN_POINT('',(0.137338278607665,0.0656465661365338,0.));
#374=CARTESIAN_POINT('',(0.127006279396754,0.0757665335951279,0.));
#375=CARTESIAN_POINT('',(0.0717581244148906,0.0258314698095732,0.));
#376=CARTESIAN_POINT('',(0.132073339412337,0.0707642243547734,0.));
#377=CARTESIAN_POINT('',(0.132073339412337,0.0707642243547733,0.));
#378=CARTESIAN_POINT('',(0.131415220374967,0.0714244676568324,1.30727491566672E-17));
#379=CARTESIAN_POINT('',(0.130113088792532,0.0727178268182751,0.00035905551430101));
#380=CARTESIAN_POINT('',(0.127853840785914,0.0749379573199099,0.00240841204880823));
#381=CARTESIAN_POINT('',(0.127006279396754,0.0757665335951279,0.00513467676582505));
#382=CARTESIAN_POINT('',(0.127006279396754,0.0757665335951279,0.007));
#383=CARTESIAN_POINT('',(0.127006279396754,0.0757665335951279,0.007));
#384=CARTESIAN_POINT('',(0.127006279396754,0.0757665335951279,0.015));
#385=CARTESIAN_POINT('',(0.127006279396754,0.0757665335951279,0.008));
#386=CARTESIAN_POINT('',(0.127006279396754,0.0757665335951279,0.008));
#387=CARTESIAN_POINT('',(0.127006279396754,0.0757665335951279,0.00893237023560225));
#388=CARTESIAN_POINT('',(0.127276732413678,0.0755016428783154,0.0107677010366947));
#389=CARTESIAN_POINT('',(0.128800834230542,0.0740086036703174,0.0138823498254958));
#390=CARTESIAN_POINT('',(0.130757499803485,0.0720843112068419,0.015));
#391=CARTESIAN_POINT('',(0.132073339412337,0.0707642243547734,0.015));
#392=CARTESIAN_POINT('',(0.132073339412337,0.0707642243547734,0.015));
#393=CARTESIAN_POINT('',(-0.249584278772395,-0.0451522333256755,0.015));
#394=CARTESIAN_POINT('',(-0.128781111349782,-0.018467127068078,0.015));
#395=CARTESIAN_POINT('',(-0.00797794392717,0.00821797918951963,0.015));
#396=CARTESIAN_POINT('',(0.112825223495442,0.0349030854471172,0.015));
#397=CARTESIAN_POINT('',(0.128238047708065,0.0383077383268274,0.015));
#398=CARTESIAN_POINT('',(0.158438839813135,0.0449790165435174,0.015));
#399=CARTESIAN_POINT('',(0.137338278607665,0.0656465661365338,0.015));
#400=CARTESIAN_POINT('',(0.127006279396754,0.0757665335951279,0.015));
#401=CARTESIAN_POINT('',(0.0717581244148906,0.0258314698095732,0.015));
#402=CARTESIAN_POINT('',(0.0717581244148906,0.0258314698095732,0.015));
#403=CARTESIAN_POINT('',(0.0735083492038029,0.0262180899244533,0.015));
#404=CARTESIAN_POINT('',(0.0770039545185918,0.0269902600690773,0.0149104343893597));
#405=CARTESIAN_POINT('',(0.0822345059526463,0.0281456753100974,0.0145541760352508));
#406=CARTESIAN_POINT('',(0.0874564220077803,0.0292991830183183,0.0140031837277965));
#407=CARTESIAN_POINT('',(0.091788053868144,0.0302560292577736,0.0133969865454801));
#408=CARTESIAN_POINT('',(0.0952426152912976,0.0310191329132246,0.012827146223094));
#409=CARTESIAN_POINT('',(0.0978261641845914,0.0315898321606877,0.0123573660037721));
#410=CARTESIAN_POINT('',(0.100401914700839,0.0321588087668943,0.0118443295080602));
#411=CARTESIAN_POINT('',(0.102968971093488,0.032725864863755,0.0112858186736365));
#412=CARTESIAN_POINT('',(0.10509924332394,0.0331964364724312,0.0107791181349499));
#413=CARTESIAN_POINT('',(0.106796393214998,0.0335713324800789,0.0103441970800106));
#414=CARTESIAN_POINT('',(0.108065051736406,0.0338515758559,0.0100007798035194));
#415=CARTESIAN_POINT('',(0.109327966460277,0.0341305504417472,0.00963586391558689));
#416=CARTESIAN_POINT('',(0.110373298772886,0.0343614616374688,0.00930726615730253));
#417=CARTESIAN_POINT('',(0.111201465429598,0.0345444015032422,0.00901725215654424));
#418=CARTESIAN_POINT('',(0.111813649736412,0.0346796314282937,0.00877823748853458));
#419=CARTESIAN_POINT('',(0.112314369316946,0.0347902390845079,0.00854330756426273));
#420=CARTESIAN_POINT('',(0.112677236046819,0.0348703954036724,0.00830180097315085));
#421=CARTESIAN_POINT('',(0.112825223495442,0.0349030854471172,0.00811381590396669));
#422=CARTESIAN_POINT('',(0.112825223495442,0.0349030854471172,0.008));
#423=CARTESIAN_POINT('',(0.112825223495442,0.0349030854471172,0.008));
#424=CARTESIAN_POINT('',(0.112825223495442,0.0349030854471172,0.015));
#425=CARTESIAN_POINT('',(0.112825223495442,0.0349030854471172,0.007));
#426=CARTESIAN_POINT('',(0.112825223495442,0.0349030854471172,0.007));
#427=CARTESIAN_POINT('',(0.112825223495442,0.0349030854471172,0.00688465783088066));
#428=CARTESIAN_POINT('',(0.112673818867081,0.0348696405575343,0.0066950544443482));
#429=CARTESIAN_POINT('',(0.112307053066868,0.0347886229438479,0.00645278919973649));
#430=CARTESIAN_POINT('',(0.111807137640298,0.0346781929231583,0.00621908101542683));
#431=CARTESIAN_POINT('',(0.111193642682086,0.0345426734786134,0.0059798457136239));
#432=CARTESIAN_POINT('',(0.110363906484083,0.0343593869052404,0.00568966454055546));
#433=CARTESIAN_POINT('',(0.109318390032176,0.0341284350336259,0.00536126165978285));
#434=CARTESIAN_POINT('',(0.108055015324215,0.0338493588384867,0.00499641915092017));
#435=CARTESIAN_POINT('',(0.10678586683903,0.033569007230938,0.00465302954066877));
#436=CARTESIAN_POINT('',(0.10508682886173,0.0331936941499388,0.0042178236264599));
#437=CARTESIAN_POINT('',(0.102956544871701,0.0327231199436023,0.00371136974568657));
#438=CARTESIAN_POINT('',(0.10039214422241,0.032156650493559,0.00315365800355566));
#439=CARTESIAN_POINT('',(0.0978202259625443,0.0315885204228443,0.00264152811785135));
#440=CARTESIAN_POINT('',(0.0952412525061653,0.0310188318775246,0.00217264481582086));
#441=CARTESIAN_POINT('',(0.0917932479715369,0.0302571766217369,0.00160386092171211));
#442=CARTESIAN_POINT('',(0.0874668572089446,0.0293014881271813,0.000998121366538418));
#443=CARTESIAN_POINT('',(0.0822424807503614,0.0281474369222218,0.000446458186089508));
#444=CARTESIAN_POINT('',(0.0770066615086494,0.0269908580361578,8.96338291130046E-5));
#445=CARTESIAN_POINT('',(0.0735091411582051,0.026218264865126,1.91709275216901E-19));
#446=CARTESIAN_POINT('',(0.0717581244148906,0.0258314698095732,0.));
#447=CARTESIAN_POINT('',(0.0523265403255888,0.0238219530541976,0.0150000000038654));
#448=CARTESIAN_POINT('',(0.127006279396754,0.0757665335951279,0.007));
#449=CARTESIAN_POINT('',(0.077220722657844,0.0411353542517921,0.007));
#450=CARTESIAN_POINT('',(0.027432416117969,0.00650812818847204,0.007));
#451=CARTESIAN_POINT('',(-0.0223535539768863,-0.028122456906394,0.007));
#452=CARTESIAN_POINT('',(-0.0223536126051193,-0.0281223721787918,0.00700000003571631));
#453=CARTESIAN_POINT('',(-0.0223535539768863,-0.028122456906394,0.015));
#454=CARTESIAN_POINT('',(-0.0223536126051193,-0.0281223721787918,0.00799999996428369));
#455=CARTESIAN_POINT('',(-0.0223535539768863,-0.028122456906394,0.008));
#456=CARTESIAN_POINT('',(0.0274324161182488,0.00650812818866665,0.008));
#457=CARTESIAN_POINT('',(0.0772207226583052,0.041135354252113,0.008));
#458=CARTESIAN_POINT('',(0.127006279396754,0.0757665335951279,0.008));
#459=CARTESIAN_POINT('',(-0.0284223652814467,-0.0323438920645045,0.0150000000038654));
#460=CARTESIAN_POINT('',(-0.0223535539768863,-0.028122456906394,0.007));
#461=CARTESIAN_POINT('',(-0.0263994348978784,-0.0309367281408636,0.007));
#462=CARTESIAN_POINT('',(-0.030445300388261,-0.0337510215588223,0.007));
#463=CARTESIAN_POINT('',(-0.0344911477175655,-0.0365653410850996,0.007));
#464=CARTESIAN_POINT('',(-0.0344911477175655,-0.0365653410850996,0.007));
#465=CARTESIAN_POINT('',(-0.0344911353023394,-0.0365653152306181,0.008));
#466=CARTESIAN_POINT('',(-0.0344911477175655,-0.0365653410850996,0.008));
#467=CARTESIAN_POINT('',(-0.0344911477175655,-0.0365653410850996,0.008));
#468=CARTESIAN_POINT('',(-0.0304453003882641,-0.0337510215588244,0.008));
#469=CARTESIAN_POINT('',(-0.0263994348978759,-0.0309367281408618,0.008));
#470=CARTESIAN_POINT('',(-0.0223535539768863,-0.028122456906394,0.008));
#471=CARTESIAN_POINT('',(-0.0209693312644876,-0.0430584512650727,0.015));
#472=CARTESIAN_POINT('',(-0.0344911477175655,-0.0365653410850996,0.007));
#473=CARTESIAN_POINT('',(-0.0344911477175655,-0.0365653410850996,0.00645697745627996));
#474=CARTESIAN_POINT('',(-0.0346088151860543,-0.0368046963798392,0.00539991418422757));
#475=CARTESIAN_POINT('',(-0.0350864880749655,-0.0379091744408694,0.00360044035086474));
#476=CARTESIAN_POINT('',(-0.0357122882049707,-0.0398796960799125,0.00186780842610297));
#477=CARTESIAN_POINT('',(-0.0360692780055827,-0.04274881107941,0.00041224708997122));
#478=CARTESIAN_POINT('',(-0.0358986288944699,-0.0448693080733754,2.3548708540702E-18));
#479=CARTESIAN_POINT('',(-0.0356923200822981,-0.045927876341743,5.17078872713008E-20));
#480=CARTESIAN_POINT('',(-0.0356923200822981,-0.045927876341743,0.));
#481=CARTESIAN_POINT('',(-0.0209693312644876,-0.0430584512650727,0.));
#482=CARTESIAN_POINT('',(-0.00725044754955705,-0.0369927913985607,0.));
#483=CARTESIAN_POINT('',(-0.00725044754955705,-0.0369927913985607,0.));
#484=CARTESIAN_POINT('',(-0.00677307989240491,-0.0380724680573023,-1.83920250221477E-18));
#485=CARTESIAN_POINT('',(-0.00610141226884626,-0.0402927362471943,0.000461590676839801));
#486=CARTESIAN_POINT('',(-0.00591129512321435,-0.0429408200085859,0.00171381509922002));
#487=CARTESIAN_POINT('',(-0.00606026178462827,-0.0448999846379775,0.00298395946801993));
#488=CARTESIAN_POINT('',(-0.00629237745837729,-0.0462486418770454,0.00406374033970912));
#489=CARTESIAN_POINT('',(-0.00661431223554341,-0.0474546857439808,0.00531737524365886));
#490=CARTESIAN_POINT('',(-0.00679497081184832,-0.0479663536437531,0.00640644830284786));
#491=CARTESIAN_POINT('',(-0.00679497081184832,-0.0479663536437531,0.007));
#492=CARTESIAN_POINT('',(-0.00679497081184827,-0.0479663536437531,0.007));
#493=CARTESIAN_POINT('',(-0.00679497081184827,-0.0479663536437531,0.015));
#494=CARTESIAN_POINT('',(-0.00679497081184827,-0.0479663536437531,0.008));
#495=CARTESIAN_POINT('',(-0.00679497081184827,-0.0479663536437531,0.008));
#496=CARTESIAN_POINT('',(-0.00679497081184827,-0.0479663536437531,0.0085965750994344));
#497=CARTESIAN_POINT('',(-0.00661389524762796,-0.0474531093584634,0.00968293920778337));
#498=CARTESIAN_POINT('',(-0.00629355683275376,-0.0462532286401211,0.0109319725945455));
#499=CARTESIAN_POINT('',(-0.00606101479799393,-0.0449065990345817,0.0120113798780724));
#500=CARTESIAN_POINT('',(-0.00591115500156948,-0.0429437371166623,0.0132847644052379));
#501=CARTESIAN_POINT('',(-0.00610040610882853,-0.0402956353141944,0.0145379994497491));
#502=CARTESIAN_POINT('',(-0.00677426260980097,-0.0380697930701152,0.0150000000000003));
#503=CARTESIAN_POINT('',(-0.00725044754955705,-0.0369927913985607,0.015));
#504=CARTESIAN_POINT('',(-0.00725044754955705,-0.0369927913985607,0.015));
#505=CARTESIAN_POINT('',(-0.0209693312644876,-0.0430584512650727,0.015));
#506=CARTESIAN_POINT('',(-0.0356923200822981,-0.045927876341743,0.015));
#507=CARTESIAN_POINT('',(-0.0356923200822981,-0.045927876341743,0.015));
#508=CARTESIAN_POINT('',(-0.0358986944964551,-0.0448689714703037,0.015));
#509=CARTESIAN_POINT('',(-0.0360694556180227,-0.042757937662891,0.0145909624178799));
#510=CARTESIAN_POINT('',(-0.0357120599954512,-0.0398771520343532,0.0131308517116164));
#511=CARTESIAN_POINT('',(-0.0350876880967438,-0.0379125913694966,0.0114031403446213));
#512=CARTESIAN_POINT('',(-0.0346087962124007,-0.0368045022684539,0.00960105540741166));
#513=CARTESIAN_POINT('',(-0.0344911477175655,-0.0365653410850996,0.0085418180768875));
#514=CARTESIAN_POINT('',(-0.0344911477175655,-0.0365653410850996,0.008));
#515=CARTESIAN_POINT('',(0.0995267911569326,0.0427625809284003,0.015));
#516=CARTESIAN_POINT('',(0.0995267911569326,0.0427625809284003,0.015));
#517=CARTESIAN_POINT('',(0.103026791156933,0.0427625809284003,0.015));
#518=CARTESIAN_POINT('',(0.0995267911569326,0.0427625809284003,0.));
#519=CARTESIAN_POINT('',(0.103026791156933,0.0427625809284003,0.));
#520=CARTESIAN_POINT('',(0.124219432307807,0.0535528733445277,0.015));
#521=CARTESIAN_POINT('',(0.124219432307807,0.0535528733445277,0.015));
#522=CARTESIAN_POINT('',(0.114201148084195,0.0583324111061652,0.015));
#523=CARTESIAN_POINT('',(0.123223240656496,0.0646080803617598,0.015));
#524=CARTESIAN_POINT('',(0.123223240656496,0.0646080803617598,0.015));
#525=CARTESIAN_POINT('',(0.122259794979938,0.064521263666425,0.015));
#526=CARTESIAN_POINT('',(0.120390786444306,0.0641027332324484,0.014907339225593));
#527=CARTESIAN_POINT('',(0.117811969075123,0.0627707126621797,0.0148168792390279));
#528=CARTESIAN_POINT('',(0.115663206794371,0.0608165785669587,0.0149070513944854));
#529=CARTESIAN_POINT('',(0.114617571569119,0.0592052672352325,0.0149999999999998));
#530=CARTESIAN_POINT('',(0.114201148084195,0.0583324111061654,0.015));
#531=CARTESIAN_POINT('',(0.124219432307807,0.0535528733445277,0.));
#532=CARTESIAN_POINT('',(0.114201148084182,0.0583324111061384,0.));
#533=CARTESIAN_POINT('',(0.123223240656496,0.0646080803617598,0.));
#534=CARTESIAN_POINT('',(0.114201148084169,0.0583324111061445,0.));
#535=CARTESIAN_POINT('',(0.114617678049024,0.0592054904254654,7.08234276087629E-18));
#536=CARTESIAN_POINT('',(0.115660206653695,0.060812193492057,9.266072443508E-5));
#537=CARTESIAN_POINT('',(0.117806085268905,0.0627666199507721,0.00018312076086708));
#538=CARTESIAN_POINT('',(0.120385631617747,0.0641014458007644,9.29486555399926E-5));
#539=CARTESIAN_POINT('',(0.122260041271323,0.0645212858598964,2.5715976397775E-18));
#540=CARTESIAN_POINT('',(0.123223240656496,0.0646080803617598,-3.34599520861374E-18));
#541=CARTESIAN_POINT('',(-0.00679497081184827,-0.0479663536437531,0.008));
#542=CARTESIAN_POINT('',(-0.00679497081184827,-0.0479663536437531,0.007));
#543=CARTESIAN_POINT('',(0.0278257360543687,0.,0.008));
#544=CARTESIAN_POINT('',(0.0278257360543687,0.,0.007));
#545=CARTESIAN_POINT('',(0.0865181347898283,0.0281083845594502,0.008));
#546=CARTESIAN_POINT('',(0.0865181347898283,0.0281083845594502,0.007));
#547=CARTESIAN_POINT('',(0.112825223495442,0.0349030854471172,0.008));
#548=CARTESIAN_POINT('',(0.112825223495442,0.0349030854471172,0.007));
#549=CARTESIAN_POINT('',(0.112825223495442,0.0349030854471172,0.008));
#550=CARTESIAN_POINT('',(0.109827033709999,0.0341287009067177,0.008));
#551=CARTESIAN_POINT('',(0.10392439827,0.0322894859390217,0.00799999999999999));
#552=CARTESIAN_POINT('',(0.0923353990902529,0.0279262873936403,0.008));
#553=CARTESIAN_POINT('',(0.0783255441420524,0.0215530603787177,0.008));
#554=CARTESIAN_POINT('',(0.0620832385514208,0.012749213229678,0.00799999999999999));
#555=CARTESIAN_POINT('',(0.0464053205132938,0.00281883053239531,0.008));
#556=CARTESIAN_POINT('',(0.0315782751389848,-0.00809627916930693,0.008));
#557=CARTESIAN_POINT('',(0.012971478515378,-0.0240797575543827,0.00799999999999999));
#558=CARTESIAN_POINT('',(0.000456181550271975,-0.0379200151946214,0.008));
#559=CARTESIAN_POINT('',(-0.00679497081184827,-0.0479663536437531,0.008));
#560=CARTESIAN_POINT('',(-0.00679497081184827,-0.0479663536437531,0.007));
#561=CARTESIAN_POINT('',(0.000456181550271973,-0.0379200151946214,0.007));
#562=CARTESIAN_POINT('',(0.0129714785153781,-0.0240797575543826,0.007));
#563=CARTESIAN_POINT('',(0.0315782751389847,-0.00809627916930699,0.007));
#564=CARTESIAN_POINT('',(0.0464053205132939,0.00281883053239534,0.007));
#565=CARTESIAN_POINT('',(0.0620832385514207,0.0127492132296779,0.007));
#566=CARTESIAN_POINT('',(0.0783255441420525,0.0215530603787177,0.007));
#567=CARTESIAN_POINT('',(0.092335399090253,0.0279262873936403,0.007));
#568=CARTESIAN_POINT('',(0.10392439827,0.0322894859390217,0.007));
#569=CARTESIAN_POINT('',(0.109827033709999,0.0341287009067177,0.007));
#570=CARTESIAN_POINT('',(0.112825223495442,0.0349030854471172,0.007));
#571=CARTESIAN_POINT('',(0.0553584410140894,0.00885404116502762,0.015));
#572=CARTESIAN_POINT('',(-0.00725044754955705,-0.0369927913985607,0.015));
#573=CARTESIAN_POINT('',(-0.00194200820362377,-0.0303337678932212,0.015));
#574=CARTESIAN_POINT('',(0.00959454493460991,-0.0177500193945777,0.015));
#575=CARTESIAN_POINT('',(0.0287144296758918,-0.00119978601205081,0.015));
#576=CARTESIAN_POINT('',(0.0494513153119303,0.0134282084997614,0.015));
#577=CARTESIAN_POINT('',(0.0642053355050109,0.0219335378345262,0.015));
#578=CARTESIAN_POINT('',(0.0717581244148906,0.0258314698095732,0.015));
#579=CARTESIAN_POINT('',(0.132073339412337,0.0707642243547733,0.015));
#580=CARTESIAN_POINT('',(0.129123313716232,0.0687121659739653,0.015));
#581=CARTESIAN_POINT('',(0.126173282511135,0.0666601155129278,0.015));
#582=CARTESIAN_POINT('',(0.123223240656496,0.0646080803617598,0.015));
#583=CARTESIAN_POINT('',(0.114201148084196,0.0583324111061632,0.015));
#584=CARTESIAN_POINT('',(0.0700158466528083,0.0275978577896721,0.015));
#585=CARTESIAN_POINT('',(0.0258288300439284,-0.00313422964288744,0.015));
#586=CARTESIAN_POINT('',(-0.018356346274272,-0.0338689628519371,0.015));
#587=CARTESIAN_POINT('',(-0.018356346274272,-0.0338689628519371,0.015));
#588=CARTESIAN_POINT('',(-0.018356346274272,-0.0338689628519371,0.015));
#589=CARTESIAN_POINT('',(-0.024135034938132,-0.0378885565071227,0.015));
#590=CARTESIAN_POINT('',(-0.0299136793970804,-0.041908213711877,0.015));
#591=CARTESIAN_POINT('',(-0.0356923200822981,-0.045927876341743,0.015));
#592=CARTESIAN_POINT('',(0.0553584410140894,0.00885404116502762,0.));
#593=CARTESIAN_POINT('',(0.0717581244148906,0.0258314698095732,0.));
#594=CARTESIAN_POINT('',(0.0642053355050109,0.0219335378345262,0.));
#595=CARTESIAN_POINT('',(0.0494513153119303,0.0134282084997615,-5.57589688706831E-19));
#596=CARTESIAN_POINT('',(0.0287144296758918,-0.00119978601205082,-3.25260651745651E-18));
#597=CARTESIAN_POINT('',(0.00959454493460993,-0.0177500193945776,8.36384533060246E-18));
#598=CARTESIAN_POINT('',(-0.00194200820362375,-0.0303337678932212,0.));
#599=CARTESIAN_POINT('',(-0.00725044754955705,-0.0369927913985607,0.));
#600=CARTESIAN_POINT('',(-0.0356923200822981,-0.045927876341743,0.));
#601=CARTESIAN_POINT('',(-0.0299136793971432,-0.0419082137119207,0.));
#602=CARTESIAN_POINT('',(-0.0241350349381315,-0.0378885565071223,0.));
#603=CARTESIAN_POINT('',(-0.018356346274272,-0.0338689628519371,0.));
#604=CARTESIAN_POINT('',(-0.018356346274272,-0.0338689628519371,0.));
#605=CARTESIAN_POINT('',(-0.018356346274272,-0.0338689628519371,0.));
#606=CARTESIAN_POINT('',(0.0258288300358389,-0.0031342296485144,0.));
#607=CARTESIAN_POINT('',(0.0700158466501417,0.0275978577878173,-8.67361737988404E-19));
#608=CARTESIAN_POINT('',(0.114201148084175,0.0583324111061486,-8.67361737988404E-19));
#609=CARTESIAN_POINT('',(0.123223240656496,0.0646080803617598,8.67361737988404E-19));
#610=CARTESIAN_POINT('',(0.126173282510812,0.066660115512703,8.67361737988404E-19));
#611=CARTESIAN_POINT('',(0.12912331371597,0.0687121659737835,0.));
#612=CARTESIAN_POINT('',(0.132073339412337,0.0707642243547733,0.));
#613=CARTESIAN_POINT('',(-0.00733181321763076,-0.0487101389392478,0.008));
#614=CARTESIAN_POINT('',(-0.00733181321763077,-0.0487101389392478,0.015));
#615=CARTESIAN_POINT('',(-0.0130077840994863,-0.0446133896732653,0.015));
#616=CARTESIAN_POINT('',(-0.00638861093525817,-0.0474033494964816,0.008));
#617=CARTESIAN_POINT('',(-0.00638861093522818,-0.0474033494963655,0.014999999999998));
#618=CARTESIAN_POINT('',(-0.0120645818171103,-0.0433066002305015,0.015));
#619=CARTESIAN_POINT('',(-0.00458617276978615,-0.0449371030085543,0.008));
#620=CARTESIAN_POINT('',(-0.00458617276980007,-0.0449371030086081,0.0150000000000009));
#621=CARTESIAN_POINT('',(-0.010163090519079,-0.0407044296756685,0.015));
#622=CARTESIAN_POINT('',(-0.00172112372658291,-0.0412549156622446,0.008));
#623=CARTESIAN_POINT('',(-0.00172112372657919,-0.0412549156622302,0.0149999999999998));
#624=CARTESIAN_POINT('',(-0.00719402817754199,-0.0368896439260385,0.015));
#625=CARTESIAN_POINT('',(0.00122856781763278,-0.0376554406158864,0.008));
#626=CARTESIAN_POINT('',(0.00122856781763181,-0.0376554406158902,0.0150000000000001));
#627=CARTESIAN_POINT('',(-0.00412811443323985,-0.0331479590123453,0.015));
#628=CARTESIAN_POINT('',(0.00529637366690501,-0.0329406396539808,0.008));
#629=CARTESIAN_POINT('',(0.00529637366690557,-0.0329406396539787,0.015));
#630=CARTESIAN_POINT('',(9.03338636299902E-5,-0.0282588305497323,0.015));
#631=CARTESIAN_POINT('',(0.0106213878932621,-0.0272083865461399,0.008));
#632=CARTESIAN_POINT('',(0.0106213878932619,-0.0272083865461406,0.015));
#633=CARTESIAN_POINT('',(0.00560453650582198,-0.022323104287167,0.015));
#634=CARTESIAN_POINT('',(0.0172906268681873,-0.0206601392455375,0.008));
#635=CARTESIAN_POINT('',(0.0172906268681874,-0.0206601392455373,0.015));
#636=CARTESIAN_POINT('',(0.0124952831509447,-0.0155577276341969,0.015));
#637=CARTESIAN_POINT('',(0.0242285937824323,-0.014409308454468,0.008));
#638=CARTESIAN_POINT('',(0.0242285937824323,-0.0144093084544681,0.015));
#639=CARTESIAN_POINT('',(0.0196502865756608,-0.00911157264846131,0.015));
#640=CARTESIAN_POINT('',(0.0338141454977869,-0.00645339144970682,0.008));
#641=CARTESIAN_POINT('',(0.0338141454977869,-0.00645339144970679,0.015));
#642=CARTESIAN_POINT('',(0.0295193488881365,-0.000920617214973883,0.015));
#643=CARTESIAN_POINT('',(0.0463801170186103,0.00281123469841871,0.008));
#644=CARTESIAN_POINT('',(0.0463801170186102,0.00281123469841869,0.015));
#645=CARTESIAN_POINT('',(0.0424304101346481,0.00859756954534744,0.015));
#646=CARTESIAN_POINT('',(0.0597052038408826,0.011241315361646,0.008));
#647=CARTESIAN_POINT('',(0.0597052038408827,0.011241315361646,0.015));
#648=CARTESIAN_POINT('',(0.0560986028315785,0.0172444674224028,0.015));
#649=CARTESIAN_POINT('',(0.0706560490853727,0.017397326218239,0.008));
#650=CARTESIAN_POINT('',(0.0706560490853727,0.017397326218239,0.015));
#651=CARTESIAN_POINT('',(0.0673313672821318,0.0235590111012306,0.015));
#652=CARTESIAN_POINT('',(0.0790108462175438,0.0217168758439885,0.008));
#653=CARTESIAN_POINT('',(0.0790108462175438,0.0217168758439885,0.015));
#654=CARTESIAN_POINT('',(0.075906842041607,0.0279927694408436,0.015));
#655=CARTESIAN_POINT('',(0.0875053118157296,0.0257230207127327,0.008));
#656=CARTESIAN_POINT('',(0.0875053118157296,0.0257230207127327,0.015));
#657=CARTESIAN_POINT('',(0.0846401522096215,0.032111739238502,0.015));
#658=CARTESIAN_POINT('',(0.0946972142049342,0.0287724359043959,0.008));
#659=CARTESIAN_POINT('',(0.0946972142049344,0.0287724359043959,0.015));
#660=CARTESIAN_POINT('',(0.0920582418600047,0.0352576099954315,0.015));
#661=CARTESIAN_POINT('',(0.100521454825753,0.0310050738501287,0.008));
#662=CARTESIAN_POINT('',(0.100521454825753,0.0310050738501286,0.015));
#663=CARTESIAN_POINT('',(0.0980990067589687,0.0375733716031149,0.015));
#664=CARTESIAN_POINT('',(0.104908763817468,0.03255412154188,0.008));
#665=CARTESIAN_POINT('',(0.104908763817469,0.0325541215418802,0.0150000000000001));
#666=CARTESIAN_POINT('',(0.102672167291283,0.039188478309802,0.015));
#667=CARTESIAN_POINT('',(0.108556555969763,0.0337162458836653,0.008));
#668=CARTESIAN_POINT('',(0.10855655596976,0.0337162458836647,0.0149999999999998));
#669=CARTESIAN_POINT('',(0.106517098704625,0.0404134455290494,0.015));
#670=CARTESIAN_POINT('',(0.111118580955923,0.0344498739134485,0.008));
#671=CARTESIAN_POINT('',(0.111118580955927,0.0344498739134493,0.0150000000000003));
#672=CARTESIAN_POINT('',(0.109232192651398,0.0411914207937718,0.015));
#673=CARTESIAN_POINT('',(0.112372446762714,0.0347864405240306,0.008));
#674=CARTESIAN_POINT('',(0.112372446762708,0.0347864405240295,0.0149999999999996));
#675=CARTESIAN_POINT('',(0.110596451736127,0.0415574688589367,0.015));
#676=CARTESIAN_POINT('',(0.113123720704235,0.0349801224939152,0.008));
#677=CARTESIAN_POINT('',(0.113123720704246,0.0349801224939171,0.0150000000000007));
#678=CARTESIAN_POINT('',(0.111378270540875,0.0417590142117029,0.015));
#679=CARTESIAN_POINT('',(0.113519650442512,0.0350824448375262,0.008));
#680=CARTESIAN_POINT('',(0.113519650442489,0.035082444837522,0.0149999999999985));
#681=CARTESIAN_POINT('',(0.111769109468614,0.0418600259915004,0.015));
#682=CARTESIAN_POINT('',(0.113715078715732,0.0351329208395036,0.008));
#683=CARTESIAN_POINT('',(0.113715078715732,0.0351329208395036,0.015));
#684=CARTESIAN_POINT('',(0.111964537741835,0.0419105019934777,0.015));
#685=CARTESIAN_POINT('',(-0.0130077840994863,-0.0446133896732653,-1.73472347597681E-18));
#686=CARTESIAN_POINT('',(-0.00733181321763077,-0.0487101389392478,2.60208521396521E-18));
#687=CARTESIAN_POINT('',(-0.00733181321763076,-0.0487101389392478,0.007));
#688=CARTESIAN_POINT('',(-0.0120645818171103,-0.0433066002305015,-1.73472347597681E-18));
#689=CARTESIAN_POINT('',(-0.00638861093522818,-0.0474033494963655,-2.37610223444616E-14));
#690=CARTESIAN_POINT('',(-0.00638861093525817,-0.0474033494964816,0.007));
#691=CARTESIAN_POINT('',(-0.010163090519079,-0.0407044296756685,-4.5929389674405E-19));
#692=CARTESIAN_POINT('',(-0.00458617276980007,-0.0449371030086081,1.10248140129666E-14));
#693=CARTESIAN_POINT('',(-0.00458617276978615,-0.0449371030085543,0.007));
#694=CARTESIAN_POINT('',(-0.00719402817754199,-0.0368896439260385,-9.94556575361037E-19));
#695=CARTESIAN_POINT('',(-0.00172112372657919,-0.0412549156622302,-2.95051969911878E-15));
#696=CARTESIAN_POINT('',(-0.00172112372658291,-0.0412549156622446,0.007));
#697=CARTESIAN_POINT('',(-0.00412811443323985,-0.0331479590123453,-7.66650229742225E-19));
#698=CARTESIAN_POINT('',(0.00122856781763181,-0.0376554406158902,7.72060613080528E-16));
#699=CARTESIAN_POINT('',(0.00122856781763278,-0.0376554406158864,0.007));
#700=CARTESIAN_POINT('',(9.03338636299902E-5,-0.0282588305497323,-1.2684671682199E-18));
#701=CARTESIAN_POINT('',(0.00529637366690557,-0.0329406396539787,-4.47922769201857E-16));
#702=CARTESIAN_POINT('',(0.00529637366690501,-0.0329406396539808,0.007));
#703=CARTESIAN_POINT('',(0.00560453650582198,-0.022323104287167,2.23902959286419E-18));
#704=CARTESIAN_POINT('',(0.0106213878932619,-0.0272083865461406,1.57991431344246E-16));
#705=CARTESIAN_POINT('',(0.0106213878932621,-0.0272083865461399,0.007));
#706=CARTESIAN_POINT('',(0.0124952831509447,-0.0155577276341969,-1.7819814230896E-18));
#707=CARTESIAN_POINT('',(0.0172906268681874,-0.0206601392455373,-4.20434343541848E-17));
#708=CARTESIAN_POINT('',(0.0172906268681873,-0.0206601392455375,0.007));
#709=CARTESIAN_POINT('',(0.0196502865756608,-0.00911157264846131,-3.1527432843619E-19));
#710=CARTESIAN_POINT('',(0.0242285937824323,-0.0144093084544681,1.01823060724933E-17));
#711=CARTESIAN_POINT('',(0.0242285937824323,-0.014409308454468,0.007));
#712=CARTESIAN_POINT('',(0.0295193488881365,-0.000920617214973883,-2.77636414531601E-18));
#713=CARTESIAN_POINT('',(0.0338141454977869,-0.00645339144970679,-8.58071584245596E-18));
#714=CARTESIAN_POINT('',(0.0338141454977869,-0.00645339144970682,0.007));
#715=CARTESIAN_POINT('',(0.0424304101346481,0.00859756954534744,5.42796810372947E-19));
#716=CARTESIAN_POINT('',(0.0463801170186102,0.00281123469841869,2.940600799852E-19));
#717=CARTESIAN_POINT('',(0.0463801170186103,0.00281123469841871,0.007));
#718=CARTESIAN_POINT('',(0.0560986028315785,0.0172444674224028,-3.18883497574485E-18));
#719=CARTESIAN_POINT('',(0.0597052038408827,0.011241315361646,3.36172691255833E-18));
#720=CARTESIAN_POINT('',(0.0597052038408826,0.011241315361646,0.007));
#721=CARTESIAN_POINT('',(0.0673313672821318,0.0235590111012306,4.27173166335714E-19));
#722=CARTESIAN_POINT('',(0.0706560490853727,0.017397326218239,-9.05750030671613E-19));
#723=CARTESIAN_POINT('',(0.0706560490853727,0.017397326218239,0.007));
#724=CARTESIAN_POINT('',(0.075906842041607,0.0279927694408436,5.76140274881851E-19));
#725=CARTESIAN_POINT('',(0.0790108462175438,0.0217168758439885,1.32814244593561E-18));
#726=CARTESIAN_POINT('',(0.0790108462175438,0.0217168758439885,0.007));
#727=CARTESIAN_POINT('',(0.0846401522096215,0.032111739238502,-2.73173426586312E-18));
#728=CARTESIAN_POINT('',(0.0875053118157296,0.0257230207127327,-4.40681975307082E-18));
#729=CARTESIAN_POINT('',(0.0875053118157296,0.0257230207127327,0.007));
#730=CARTESIAN_POINT('',(0.0920582418600047,0.0352576099954315,-5.03242433719037E-19));
#731=CARTESIAN_POINT('',(0.0946972142049344,0.0287724359043959,4.17452646656057E-18));
#732=CARTESIAN_POINT('',(0.0946972142049342,0.0287724359043959,0.007));
#733=CARTESIAN_POINT('',(0.0980990067589687,0.0375733716031149,-1.14990198009832E-18));
#734=CARTESIAN_POINT('',(0.100521454825753,0.0310050738501286,-9.23486890316006E-18));
#735=CARTESIAN_POINT('',(0.100521454825753,0.0310050738501287,0.007));
#736=CARTESIAN_POINT('',(0.102672167291283,0.039188478309802,6.03448127767209E-20));
#737=CARTESIAN_POINT('',(0.104908763817469,0.0325541215418802,6.2138150128162E-17));
#738=CARTESIAN_POINT('',(0.104908763817468,0.03255412154188,0.007));
#739=CARTESIAN_POINT('',(0.106517098704625,0.0404134455290494,-3.56964894698637E-18));
#740=CARTESIAN_POINT('',(0.10855655596976,0.0337162458836647,-1.93411893343155E-16));
#741=CARTESIAN_POINT('',(0.108556555969763,0.0337162458836653,0.007));
#742=CARTESIAN_POINT('',(0.109232192651398,0.0411914207937718,6.117815064552E-19));
#743=CARTESIAN_POINT('',(0.111118580955927,0.0344498739134493,2.65019419950709E-16));
#744=CARTESIAN_POINT('',(0.111118580955923,0.0344498739134485,0.007));
#745=CARTESIAN_POINT('',(0.110596451736127,0.0415574688589367,-4.71466141309498E-19));
#746=CARTESIAN_POINT('',(0.112372446762708,0.0347864405240295,-3.82459941507052E-16));
#747=CARTESIAN_POINT('',(0.112372446762714,0.0347864405240306,0.007));
#748=CARTESIAN_POINT('',(0.111378270540875,0.0417590142117029,7.88182618652585E-19));
#749=CARTESIAN_POINT('',(0.113123720704246,0.0349801224939171,6.72422831377257E-16));
#750=CARTESIAN_POINT('',(0.113123720704235,0.0349801224939152,0.007));
#751=CARTESIAN_POINT('',(0.111769109468614,0.0418600259915004,-1.73472347597681E-18));
#752=CARTESIAN_POINT('',(0.113519650442489,0.035082444837522,-1.4898271076897E-15));
#753=CARTESIAN_POINT('',(0.113519650442512,0.0350824448375262,0.007));
#754=CARTESIAN_POINT('',(0.111964537741835,0.0419105019934777,-1.73472347597681E-18));
#755=CARTESIAN_POINT('',(0.113715078715732,0.0351329208395036,-1.73472347597681E-18));
#756=CARTESIAN_POINT('',(0.113715078715732,0.0351329208395036,0.007));
#757=CARTESIAN_POINT('',(-0.0223535539768863,-0.0281224569063941,0.007));
#758=CARTESIAN_POINT('',(-0.0223535539768863,-0.0281224569063941,0.));
#759=CARTESIAN_POINT('',(-0.018356346274272,-0.0338689628519371,0.));
#760=CARTESIAN_POINT('',(0.0280901539512582,0.00696564354796859,0.007));
#761=CARTESIAN_POINT('',(0.0280901539512537,0.00696564354835416,-7.9944841632751E-14));
#762=CARTESIAN_POINT('',(0.0320870997607234,0.00121895543269155,0.));
#763=CARTESIAN_POINT('',(0.0785355950302936,0.0420499886141775,0.007));
#764=CARTESIAN_POINT('',(0.0785355950288687,0.0420499886140651,1.0659225481683E-13));
#765=CARTESIAN_POINT('',(0.0825328713230816,0.036303530380609,-8.67361737988404E-19));
#766=CARTESIAN_POINT('',(0.128978622254359,0.0771385089972806,0.007));
#767=CARTESIAN_POINT('',(0.128978622254359,0.0771385089972806,-8.67361737988404E-19));
#768=CARTESIAN_POINT('',(0.132975898547513,0.0713920507631863,-8.67361737988404E-19));
#769=CARTESIAN_POINT('',(-0.018356346274272,-0.0338689628519371,0.007));
#770=CARTESIAN_POINT('',(-0.018356346274272,-0.0338689628519371,8.67361737988404E-19));
#771=CARTESIAN_POINT('',(-0.0223535539768863,-0.0281224569063941,8.67361737988404E-19));
#772=CARTESIAN_POINT('',(-0.0223535539768863,-0.0281224569063941,0.007));
#773=CARTESIAN_POINT('',(-0.0241697070699152,-0.0379126740686805,8.67361737988404E-19));
#774=CARTESIAN_POINT('',(-0.0281669449544159,-0.0321661891172698,-4.2994311236946E-14));
#775=CARTESIAN_POINT('',(-0.0281669449543004,-0.0321661891174868,0.00699999999998157));
#776=CARTESIAN_POINT('',(-0.0299830230855879,-0.0419564496635419,-8.67361737988404E-19));
#777=CARTESIAN_POINT('',(-0.0339802993788915,-0.036209991429719,1.22842500063258E-13));
#778=CARTESIAN_POINT('',(-0.0339802993787333,-0.0362099914295334,0.007));
#779=CARTESIAN_POINT('',(-0.0357963356146313,-0.0460002302690801,-8.67361737988404E-19));
#780=CARTESIAN_POINT('',(-0.0397936119077851,-0.0402537720349858,-8.67361737988404E-19));
#781=CARTESIAN_POINT('',(-0.0397936119077851,-0.0402537720349858,0.007));
#782=CARTESIAN_POINT('',(-0.018356346274272,-0.0338689628519371,0.015));
#783=CARTESIAN_POINT('',(-0.0223535539768863,-0.0281224569063941,0.015));
#784=CARTESIAN_POINT('',(-0.0223535539768863,-0.0281224569063941,0.008));
#785=CARTESIAN_POINT('',(0.0320870997607234,0.00121895543269155,0.015));
#786=CARTESIAN_POINT('',(0.0280901539512537,0.00696564354835416,0.015));
#787=CARTESIAN_POINT('',(0.0280901539512582,0.00696564354796859,0.008));
#788=CARTESIAN_POINT('',(0.0825328713230816,0.036303530380609,0.015));
#789=CARTESIAN_POINT('',(0.0785355950288687,0.0420499886140651,0.015));
#790=CARTESIAN_POINT('',(0.0785355950302936,0.0420499886141775,0.008));
#791=CARTESIAN_POINT('',(0.132975898547513,0.0713920507631863,0.015));
#792=CARTESIAN_POINT('',(0.128978622254359,0.0771385089972806,0.015));
#793=CARTESIAN_POINT('',(0.128978622254359,0.0771385089972806,0.008));
#794=CARTESIAN_POINT('',(-0.018356346274272,-0.0338689628519371,0.008));
#795=CARTESIAN_POINT('',(-0.0223535539768863,-0.0281224569063941,0.008));
#796=CARTESIAN_POINT('',(-0.0223535539768863,-0.0281224569063941,0.015));
#797=CARTESIAN_POINT('',(-0.018356346274272,-0.0338689628519371,0.015));
#798=CARTESIAN_POINT('',(-0.0281669449543004,-0.0321661891174868,0.00799999999997543));
#799=CARTESIAN_POINT('',(-0.0281669449544333,-0.0321661891173392,0.0149999999999826));
#800=CARTESIAN_POINT('',(-0.0241697070699152,-0.0379126740686805,0.015));
#801=CARTESIAN_POINT('',(-0.0339802993787333,-0.0362099914295334,0.008));
#802=CARTESIAN_POINT('',(-0.0339802993788915,-0.036209991429719,0.0149999999999653));
#803=CARTESIAN_POINT('',(-0.0299830230855879,-0.0419564496635419,0.015));
#804=CARTESIAN_POINT('',(-0.0397936119077851,-0.0402537720349858,0.008));
#805=CARTESIAN_POINT('',(-0.0397936119077851,-0.0402537720349858,0.015));
#806=CARTESIAN_POINT('',(-0.0357963356146313,-0.0460002302690801,0.015));
#807=MECHANICAL_DESIGN_GEOMETRIC_PRESENTATION_REPRESENTATION('',(#268),
#808);
#808=(
GEOMETRIC_REPRESENTATION_CONTEXT(3)
GLOBAL_UNCERTAINTY_ASSIGNED_CONTEXT((#809))
GLOBAL_UNIT_ASSIGNED_CONTEXT((#812,#811,#810))
REPRESENTATION_CONTEXT('Part 1','TOP_LEVEL_ASSEMBLY_PART')
);
#809=UNCERTAINTY_MEASURE_WITH_UNIT(LENGTH_MEASURE(2.E-5),#812,
'DISTANCE_ACCURACY_VALUE','Maximum Tolerance applied to model');
#810=(
NAMED_UNIT(*)
SI_UNIT($,.STERADIAN.)
SOLID_ANGLE_UNIT()
);
#811=(
NAMED_UNIT(*)
PLANE_ANGLE_UNIT()
SI_UNIT($,.RADIAN.)
);
#812=(
LENGTH_UNIT()
NAMED_UNIT(*)
SI_UNIT($,.METRE.)
);
#813=PRODUCT_DEFINITION_SHAPE('','',#814);
#814=PRODUCT_DEFINITION('','',#816,#815);
#815=PRODUCT_DEFINITION_CONTEXT('',#822,'design');
#816=PRODUCT_DEFINITION_FORMATION_WITH_SPECIFIED_SOURCE('','',#818,
 .NOT_KNOWN.);
#817=PRODUCT_RELATED_PRODUCT_CATEGORY('','',(#818));
#818=PRODUCT('Part 1','Part 1','Part 1',(#820));
#819=PRODUCT_CATEGORY('','');
#820=PRODUCT_CONTEXT('',#822,'mechanical');
#821=APPLICATION_PROTOCOL_DEFINITION('international standard',
'ap242_managed_model_based_3d_engineering',2020,#822);
#822=APPLICATION_CONTEXT('managed model based 3d engineering');
ENDSEC;
END-ISO-10303-21;
