ISO-10303-21;
HEADER;
/* Generated by software containing ST-Developer
 * from STEP Tools, Inc. (www.steptools.com) 
 */
/* OPTION: using custom renumber hook */

FILE_DESCRIPTION(
/* description */ ('STEP AP242 Edition 2',
'CAx-IF Rec.Pracs.---Representation and Presentation of Product Manufa
cturing Information (PMI)---4.0---2014-10-13',
'CAx-IF Rec.Pracs.---3D Tessellated Geometry---0.4---2014-09-14','2;1',
'CAx-IF Rec.Pracs.---User Defined Attributes---1.5---2016-08-15'),
/* implementation_level */ '2;1');

FILE_NAME(
/* name */ 'thigh',
/* time_stamp */ '2026-07-24T19:17:52Z',
/* author */ (''),
/* organization */ (''),
/* preprocessor_version */ 'ST-DEVELOPER v20',
/* originating_system */ 'ONSHAPE BY PTC INC, 1.218',
/* authorisation */ '  ');

FILE_SCHEMA (('AP242_MANAGED_MODEL_BASED_3D_ENGINEERING_MIM_LF { 1 0 10303 442 3 1 4 }'));
ENDSEC;

DATA;
#10=SHAPE_REPRESENTATION_RELATIONSHIP('','',#752,#12);
#11=SHAPE_REPRESENTATION_RELATIONSHIP('','',#753,#13);
#12=ADVANCED_BREP_SHAPE_REPRESENTATION('',(#748),#1250);
#13=ADVANCED_BREP_SHAPE_REPRESENTATION('',(#749),#1251);
#14=CYLINDRICAL_SURFACE('',#768,0.003);
#15=CYLINDRICAL_SURFACE('',#770,0.001625);
#16=CYLINDRICAL_SURFACE('',#775,0.0138965517241379);
#17=CYLINDRICAL_SURFACE('',#777,0.00315);
#18=CYLINDRICAL_SURFACE('',#785,0.0111);
#19=CYLINDRICAL_SURFACE('',#791,0.0227609764393907);
#20=CYLINDRICAL_SURFACE('',#792,0.002395);
#21=CYLINDRICAL_SURFACE('',#795,0.002395);
#22=CYLINDRICAL_SURFACE('',#811,0.0138965517241379);
#23=CYLINDRICAL_SURFACE('',#812,0.0111);
#24=CYLINDRICAL_SURFACE('',#815,0.001625);
#25=CYLINDRICAL_SURFACE('',#819,0.003);
#26=CYLINDRICAL_SURFACE('',#825,0.0228187367929857);
#27=CYLINDRICAL_SURFACE('',#826,0.0025);
#28=CYLINDRICAL_SURFACE('',#829,0.0025);
#29=LINE('',#1052,#87);
#30=LINE('',#1057,#88);
#31=LINE('',#1067,#89);
#32=LINE('',#1072,#90);
#33=LINE('',#1074,#91);
#34=LINE('',#1076,#92);
#35=LINE('',#1079,#93);
#36=LINE('',#1081,#94);
#37=LINE('',#1083,#95);
#38=LINE('',#1084,#96);
#39=LINE('',#1087,#97);
#40=LINE('',#1089,#98);
#41=LINE('',#1091,#99);
#42=LINE('',#1093,#100);
#43=LINE('',#1095,#101);
#44=LINE('',#1097,#102);
#45=LINE('',#1099,#103);
#46=LINE('',#1100,#104);
#47=LINE('',#1101,#105);
#48=LINE('',#1103,#106);
#49=LINE('',#1105,#107);
#50=LINE('',#1107,#108);
#51=LINE('',#1109,#109);
#52=LINE('',#1110,#110);
#53=LINE('',#1120,#111);
#54=LINE('',#1122,#112);
#55=LINE('',#1124,#113);
#56=LINE('',#1126,#114);
#57=LINE('',#1135,#115);
#58=LINE('',#1136,#116);
#59=LINE('',#1143,#117);
#60=LINE('',#1145,#118);
#61=LINE('',#1147,#119);
#62=LINE('',#1149,#120);
#63=LINE('',#1151,#121);
#64=LINE('',#1153,#122);
#65=LINE('',#1155,#123);
#66=LINE('',#1157,#124);
#67=LINE('',#1174,#125);
#68=LINE('',#1177,#126);
#69=LINE('',#1179,#127);
#70=LINE('',#1181,#128);
#71=LINE('',#1186,#129);
#72=LINE('',#1191,#130);
#73=LINE('',#1199,#131);
#74=LINE('',#1204,#132);
#75=LINE('',#1208,#133);
#76=LINE('',#1209,#134);
#77=LINE('',#1212,#135);
#78=LINE('',#1214,#136);
#79=LINE('',#1223,#137);
#80=LINE('',#1225,#138);
#81=LINE('',#1227,#139);
#82=LINE('',#1229,#140);
#83=LINE('',#1231,#141);
#84=LINE('',#1233,#142);
#85=LINE('',#1235,#143);
#86=LINE('',#1237,#144);
#87=VECTOR('',#840,1.);
#88=VECTOR('',#843,1.);
#89=VECTOR('',#854,1.);
#90=VECTOR('',#857,1.);
#91=VECTOR('',#858,1.);
#92=VECTOR('',#861,1.);
#93=VECTOR('',#862,1.);
#94=VECTOR('',#863,1.);
#95=VECTOR('',#864,1.);
#96=VECTOR('',#865,1.);
#97=VECTOR('',#866,1.);
#98=VECTOR('',#867,1.);
#99=VECTOR('',#868,1.);
#100=VECTOR('',#871,1.);
#101=VECTOR('',#872,1.);
#102=VECTOR('',#873,1.);
#103=VECTOR('',#874,1.);
#104=VECTOR('',#875,1.);
#105=VECTOR('',#876,1.);
#106=VECTOR('',#877,1.);
#107=VECTOR('',#880,1.);
#108=VECTOR('',#881,1.);
#109=VECTOR('',#882,1.);
#110=VECTOR('',#883,1.);
#111=VECTOR('',#896,1.);
#112=VECTOR('',#897,1.);
#113=VECTOR('',#900,1.);
#114=VECTOR('',#901,1.);
#115=VECTOR('',#914,1.);
#116=VECTOR('',#915,1.);
#117=VECTOR('',#928,1.);
#118=VECTOR('',#929,1.);
#119=VECTOR('',#930,1.);
#120=VECTOR('',#933,1.);
#121=VECTOR('',#934,1.);
#122=VECTOR('',#937,1.);
#123=VECTOR('',#938,1.);
#124=VECTOR('',#941,1.);
#125=VECTOR('',#966,1.);
#126=VECTOR('',#967,1.);
#127=VECTOR('',#968,1.);
#128=VECTOR('',#969,1.);
#129=VECTOR('',#974,1.);
#130=VECTOR('',#977,1.);
#131=VECTOR('',#986,1.);
#132=VECTOR('',#989,1.);
#133=VECTOR('',#994,1.);
#134=VECTOR('',#995,1.);
#135=VECTOR('',#1000,1.);
#136=VECTOR('',#1003,1.);
#137=VECTOR('',#1016,1.);
#138=VECTOR('',#1017,1.);
#139=VECTOR('',#1018,1.);
#140=VECTOR('',#1021,1.);
#141=VECTOR('',#1022,1.);
#142=VECTOR('',#1025,1.);
#143=VECTOR('',#1026,1.);
#144=VECTOR('',#1029,1.);
#145=ORIENTED_EDGE('',*,*,#321,.F.);
#146=ORIENTED_EDGE('',*,*,#322,.F.);
#147=ORIENTED_EDGE('',*,*,#323,.F.);
#148=ORIENTED_EDGE('',*,*,#324,.T.);
#149=ORIENTED_EDGE('',*,*,#325,.T.);
#150=ORIENTED_EDGE('',*,*,#326,.T.);
#151=ORIENTED_EDGE('',*,*,#327,.F.);
#152=ORIENTED_EDGE('',*,*,#328,.F.);
#153=ORIENTED_EDGE('',*,*,#329,.T.);
#154=ORIENTED_EDGE('',*,*,#330,.T.);
#155=ORIENTED_EDGE('',*,*,#331,.T.);
#156=ORIENTED_EDGE('',*,*,#332,.F.);
#157=ORIENTED_EDGE('',*,*,#333,.F.);
#158=ORIENTED_EDGE('',*,*,#334,.F.);
#159=ORIENTED_EDGE('',*,*,#335,.F.);
#160=ORIENTED_EDGE('',*,*,#336,.F.);
#161=ORIENTED_EDGE('',*,*,#337,.F.);
#162=ORIENTED_EDGE('',*,*,#338,.T.);
#163=ORIENTED_EDGE('',*,*,#339,.T.);
#164=ORIENTED_EDGE('',*,*,#340,.T.);
#165=ORIENTED_EDGE('',*,*,#341,.T.);
#166=ORIENTED_EDGE('',*,*,#342,.T.);
#167=ORIENTED_EDGE('',*,*,#337,.T.);
#168=ORIENTED_EDGE('',*,*,#343,.F.);
#169=ORIENTED_EDGE('',*,*,#344,.T.);
#170=ORIENTED_EDGE('',*,*,#345,.F.);
#171=ORIENTED_EDGE('',*,*,#332,.T.);
#172=ORIENTED_EDGE('',*,*,#346,.F.);
#173=ORIENTED_EDGE('',*,*,#323,.T.);
#174=ORIENTED_EDGE('',*,*,#347,.T.);
#175=ORIENTED_EDGE('',*,*,#348,.T.);
#176=ORIENTED_EDGE('',*,*,#330,.F.);
#177=ORIENTED_EDGE('',*,*,#349,.T.);
#178=ORIENTED_EDGE('',*,*,#350,.F.);
#179=ORIENTED_EDGE('',*,*,#351,.F.);
#180=ORIENTED_EDGE('',*,*,#325,.F.);
#181=ORIENTED_EDGE('',*,*,#352,.T.);
#182=ORIENTED_EDGE('',*,*,#353,.F.);
#183=ORIENTED_EDGE('',*,*,#329,.F.);
#184=ORIENTED_EDGE('',*,*,#354,.F.);
#185=ORIENTED_EDGE('',*,*,#355,.T.);
#186=ORIENTED_EDGE('',*,*,#356,.T.);
#187=ORIENTED_EDGE('',*,*,#357,.T.);
#188=ORIENTED_EDGE('',*,*,#334,.T.);
#189=ORIENTED_EDGE('',*,*,#342,.F.);
#190=ORIENTED_EDGE('',*,*,#358,.F.);
#191=ORIENTED_EDGE('',*,*,#359,.F.);
#192=ORIENTED_EDGE('',*,*,#343,.T.);
#193=ORIENTED_EDGE('',*,*,#336,.T.);
#194=ORIENTED_EDGE('',*,*,#351,.T.);
#195=ORIENTED_EDGE('',*,*,#360,.T.);
#196=ORIENTED_EDGE('',*,*,#347,.F.);
#197=ORIENTED_EDGE('',*,*,#326,.F.);
#198=ORIENTED_EDGE('',*,*,#361,.F.);
#199=ORIENTED_EDGE('',*,*,#322,.T.);
#200=ORIENTED_EDGE('',*,*,#362,.F.);
#201=ORIENTED_EDGE('',*,*,#356,.F.);
#202=ORIENTED_EDGE('',*,*,#348,.F.);
#203=ORIENTED_EDGE('',*,*,#360,.F.);
#204=ORIENTED_EDGE('',*,*,#350,.T.);
#205=ORIENTED_EDGE('',*,*,#363,.T.);
#206=ORIENTED_EDGE('',*,*,#344,.F.);
#207=ORIENTED_EDGE('',*,*,#359,.T.);
#208=ORIENTED_EDGE('',*,*,#364,.T.);
#209=ORIENTED_EDGE('',*,*,#333,.T.);
#210=ORIENTED_EDGE('',*,*,#345,.T.);
#211=ORIENTED_EDGE('',*,*,#363,.F.);
#212=ORIENTED_EDGE('',*,*,#349,.F.);
#213=ORIENTED_EDGE('',*,*,#358,.T.);
#214=ORIENTED_EDGE('',*,*,#335,.T.);
#215=ORIENTED_EDGE('',*,*,#357,.F.);
#216=ORIENTED_EDGE('',*,*,#364,.F.);
#217=ORIENTED_EDGE('',*,*,#361,.T.);
#218=ORIENTED_EDGE('',*,*,#354,.T.);
#219=ORIENTED_EDGE('',*,*,#355,.F.);
#220=ORIENTED_EDGE('',*,*,#353,.T.);
#221=ORIENTED_EDGE('',*,*,#362,.T.);
#222=ORIENTED_EDGE('',*,*,#321,.T.);
#223=ORIENTED_EDGE('',*,*,#339,.F.);
#224=ORIENTED_EDGE('',*,*,#365,.F.);
#225=ORIENTED_EDGE('',*,*,#366,.T.);
#226=ORIENTED_EDGE('',*,*,#367,.T.);
#227=ORIENTED_EDGE('',*,*,#338,.F.);
#228=ORIENTED_EDGE('',*,*,#368,.F.);
#229=ORIENTED_EDGE('',*,*,#369,.T.);
#230=ORIENTED_EDGE('',*,*,#365,.T.);
#231=ORIENTED_EDGE('',*,*,#341,.F.);
#232=ORIENTED_EDGE('',*,*,#370,.F.);
#233=ORIENTED_EDGE('',*,*,#371,.T.);
#234=ORIENTED_EDGE('',*,*,#368,.T.);
#235=ORIENTED_EDGE('',*,*,#340,.F.);
#236=ORIENTED_EDGE('',*,*,#367,.F.);
#237=ORIENTED_EDGE('',*,*,#372,.T.);
#238=ORIENTED_EDGE('',*,*,#370,.T.);
#239=ORIENTED_EDGE('',*,*,#366,.F.);
#240=ORIENTED_EDGE('',*,*,#369,.F.);
#241=ORIENTED_EDGE('',*,*,#371,.F.);
#242=ORIENTED_EDGE('',*,*,#372,.F.);
#243=ORIENTED_EDGE('',*,*,#352,.F.);
#244=ORIENTED_EDGE('',*,*,#324,.F.);
#245=ORIENTED_EDGE('',*,*,#346,.T.);
#246=ORIENTED_EDGE('',*,*,#331,.F.);
#247=ORIENTED_EDGE('',*,*,#373,.F.);
#248=ORIENTED_EDGE('',*,*,#328,.T.);
#249=ORIENTED_EDGE('',*,*,#373,.T.);
#250=ORIENTED_EDGE('',*,*,#374,.F.);
#251=ORIENTED_EDGE('',*,*,#327,.T.);
#252=ORIENTED_EDGE('',*,*,#374,.T.);
#253=ORIENTED_EDGE('',*,*,#375,.F.);
#254=ORIENTED_EDGE('',*,*,#376,.F.);
#255=ORIENTED_EDGE('',*,*,#377,.T.);
#256=ORIENTED_EDGE('',*,*,#378,.T.);
#257=ORIENTED_EDGE('',*,*,#379,.F.);
#258=ORIENTED_EDGE('',*,*,#380,.F.);
#259=ORIENTED_EDGE('',*,*,#381,.F.);
#260=ORIENTED_EDGE('',*,*,#382,.F.);
#261=ORIENTED_EDGE('',*,*,#383,.F.);
#262=ORIENTED_EDGE('',*,*,#384,.T.);
#263=ORIENTED_EDGE('',*,*,#385,.T.);
#264=ORIENTED_EDGE('',*,*,#386,.T.);
#265=ORIENTED_EDGE('',*,*,#387,.F.);
#266=ORIENTED_EDGE('',*,*,#388,.F.);
#267=ORIENTED_EDGE('',*,*,#389,.F.);
#268=ORIENTED_EDGE('',*,*,#390,.T.);
#269=ORIENTED_EDGE('',*,*,#391,.T.);
#270=ORIENTED_EDGE('',*,*,#392,.F.);
#271=ORIENTED_EDGE('',*,*,#386,.F.);
#272=ORIENTED_EDGE('',*,*,#393,.T.);
#273=ORIENTED_EDGE('',*,*,#392,.T.);
#274=ORIENTED_EDGE('',*,*,#394,.F.);
#275=ORIENTED_EDGE('',*,*,#382,.T.);
#276=ORIENTED_EDGE('',*,*,#387,.T.);
#277=ORIENTED_EDGE('',*,*,#385,.F.);
#278=ORIENTED_EDGE('',*,*,#395,.T.);
#279=ORIENTED_EDGE('',*,*,#389,.T.);
#280=ORIENTED_EDGE('',*,*,#393,.F.);
#281=ORIENTED_EDGE('',*,*,#383,.T.);
#282=ORIENTED_EDGE('',*,*,#394,.T.);
#283=ORIENTED_EDGE('',*,*,#391,.F.);
#284=ORIENTED_EDGE('',*,*,#396,.F.);
#285=ORIENTED_EDGE('',*,*,#388,.T.);
#286=ORIENTED_EDGE('',*,*,#397,.F.);
#287=ORIENTED_EDGE('',*,*,#397,.T.);
#288=ORIENTED_EDGE('',*,*,#398,.F.);
#289=ORIENTED_EDGE('',*,*,#381,.T.);
#290=ORIENTED_EDGE('',*,*,#398,.T.);
#291=ORIENTED_EDGE('',*,*,#378,.F.);
#292=ORIENTED_EDGE('',*,*,#399,.F.);
#293=ORIENTED_EDGE('',*,*,#400,.T.);
#294=ORIENTED_EDGE('',*,*,#401,.T.);
#295=ORIENTED_EDGE('',*,*,#377,.F.);
#296=ORIENTED_EDGE('',*,*,#402,.F.);
#297=ORIENTED_EDGE('',*,*,#403,.T.);
#298=ORIENTED_EDGE('',*,*,#399,.T.);
#299=ORIENTED_EDGE('',*,*,#380,.T.);
#300=ORIENTED_EDGE('',*,*,#404,.F.);
#301=ORIENTED_EDGE('',*,*,#405,.F.);
#302=ORIENTED_EDGE('',*,*,#402,.T.);
#303=ORIENTED_EDGE('',*,*,#379,.T.);
#304=ORIENTED_EDGE('',*,*,#401,.F.);
#305=ORIENTED_EDGE('',*,*,#406,.F.);
#306=ORIENTED_EDGE('',*,*,#404,.T.);
#307=ORIENTED_EDGE('',*,*,#400,.F.);
#308=ORIENTED_EDGE('',*,*,#403,.F.);
#309=ORIENTED_EDGE('',*,*,#405,.T.);
#310=ORIENTED_EDGE('',*,*,#406,.T.);
#311=ORIENTED_EDGE('',*,*,#395,.F.);
#312=ORIENTED_EDGE('',*,*,#384,.F.);
#313=ORIENTED_EDGE('',*,*,#396,.T.);
#314=ORIENTED_EDGE('',*,*,#390,.F.);
#315=ORIENTED_EDGE('',*,*,#407,.F.);
#316=ORIENTED_EDGE('',*,*,#376,.T.);
#317=ORIENTED_EDGE('',*,*,#407,.T.);
#318=ORIENTED_EDGE('',*,*,#408,.F.);
#319=ORIENTED_EDGE('',*,*,#375,.T.);
#320=ORIENTED_EDGE('',*,*,#408,.T.);
#321=EDGE_CURVE('',#409,#409,#475,.T.);
#322=EDGE_CURVE('',#410,#410,#476,.T.);
#323=EDGE_CURVE('',#411,#412,#29,.T.);
#324=EDGE_CURVE('',#411,#413,#477,.T.);
#325=EDGE_CURVE('',#413,#414,#30,.T.);
#326=EDGE_CURVE('',#414,#412,#478,.T.);
#327=EDGE_CURVE('',#415,#415,#479,.T.);
#328=EDGE_CURVE('',#416,#416,#480,.T.);
#329=EDGE_CURVE('',#417,#417,#481,.F.);
#330=EDGE_CURVE('',#418,#419,#31,.T.);
#331=EDGE_CURVE('',#419,#420,#482,.T.);
#332=EDGE_CURVE('',#421,#420,#32,.T.);
#333=EDGE_CURVE('',#418,#421,#33,.T.);
#334=EDGE_CURVE('',#422,#423,#34,.T.);
#335=EDGE_CURVE('',#424,#422,#35,.T.);
#336=EDGE_CURVE('',#425,#424,#36,.T.);
#337=EDGE_CURVE('',#423,#425,#37,.T.);
#338=EDGE_CURVE('',#426,#427,#38,.T.);
#339=EDGE_CURVE('',#427,#428,#39,.T.);
#340=EDGE_CURVE('',#428,#429,#40,.T.);
#341=EDGE_CURVE('',#429,#426,#41,.T.);
#342=EDGE_CURVE('',#430,#423,#42,.T.);
#343=EDGE_CURVE('',#431,#425,#43,.T.);
#344=EDGE_CURVE('',#431,#432,#44,.T.);
#345=EDGE_CURVE('',#421,#432,#45,.T.);
#346=EDGE_CURVE('',#411,#420,#46,.T.);
#347=EDGE_CURVE('',#412,#433,#47,.T.);
#348=EDGE_CURVE('',#433,#430,#48,.T.);
#349=EDGE_CURVE('',#418,#434,#49,.T.);
#350=EDGE_CURVE('',#435,#434,#50,.T.);
#351=EDGE_CURVE('',#414,#435,#51,.T.);
#352=EDGE_CURVE('',#413,#419,#52,.T.);
#353=EDGE_CURVE('',#436,#436,#483,.T.);
#354=EDGE_CURVE('',#437,#437,#484,.T.);
#355=EDGE_CURVE('',#438,#438,#485,.T.);
#356=EDGE_CURVE('',#430,#439,#53,.T.);
#357=EDGE_CURVE('',#439,#422,#54,.T.);
#358=EDGE_CURVE('',#440,#424,#55,.T.);
#359=EDGE_CURVE('',#431,#440,#56,.T.);
#360=EDGE_CURVE('',#435,#433,#486,.T.);
#361=EDGE_CURVE('',#441,#441,#487,.T.);
#362=EDGE_CURVE('',#442,#442,#488,.T.);
#363=EDGE_CURVE('',#434,#432,#57,.T.);
#364=EDGE_CURVE('',#440,#439,#58,.T.);
#365=EDGE_CURVE('',#443,#427,#59,.T.);
#366=EDGE_CURVE('',#443,#444,#60,.T.);
#367=EDGE_CURVE('',#444,#428,#61,.T.);
#368=EDGE_CURVE('',#445,#426,#62,.T.);
#369=EDGE_CURVE('',#445,#443,#63,.T.);
#370=EDGE_CURVE('',#446,#429,#64,.T.);
#371=EDGE_CURVE('',#446,#445,#65,.T.);
#372=EDGE_CURVE('',#444,#446,#66,.T.);
#373=EDGE_CURVE('',#447,#447,#489,.T.);
#374=EDGE_CURVE('',#448,#448,#490,.T.);
#375=EDGE_CURVE('',#449,#449,#491,.T.);
#376=EDGE_CURVE('',#450,#450,#492,.T.);
#377=EDGE_CURVE('',#451,#452,#67,.T.);
#378=EDGE_CURVE('',#452,#453,#68,.T.);
#379=EDGE_CURVE('',#454,#453,#69,.T.);
#380=EDGE_CURVE('',#451,#454,#70,.T.);
#381=EDGE_CURVE('',#455,#455,#493,.F.);
#382=EDGE_CURVE('',#456,#456,#494,.T.);
#383=EDGE_CURVE('',#457,#458,#71,.T.);
#384=EDGE_CURVE('',#457,#459,#495,.T.);
#385=EDGE_CURVE('',#459,#460,#72,.T.);
#386=EDGE_CURVE('',#460,#458,#496,.T.);
#387=EDGE_CURVE('',#461,#461,#497,.T.);
#388=EDGE_CURVE('',#462,#462,#498,.T.);
#389=EDGE_CURVE('',#463,#464,#73,.T.);
#390=EDGE_CURVE('',#463,#465,#499,.T.);
#391=EDGE_CURVE('',#465,#466,#74,.T.);
#392=EDGE_CURVE('',#464,#466,#500,.T.);
#393=EDGE_CURVE('',#460,#464,#75,.T.);
#394=EDGE_CURVE('',#458,#466,#76,.T.);
#395=EDGE_CURVE('',#459,#463,#77,.T.);
#396=EDGE_CURVE('',#457,#465,#78,.T.);
#397=EDGE_CURVE('',#467,#467,#501,.T.);
#398=EDGE_CURVE('',#468,#468,#502,.T.);
#399=EDGE_CURVE('',#469,#452,#79,.T.);
#400=EDGE_CURVE('',#469,#470,#80,.T.);
#401=EDGE_CURVE('',#470,#453,#81,.T.);
#402=EDGE_CURVE('',#471,#451,#82,.T.);
#403=EDGE_CURVE('',#471,#469,#83,.T.);
#404=EDGE_CURVE('',#472,#454,#84,.T.);
#405=EDGE_CURVE('',#471,#472,#85,.T.);
#406=EDGE_CURVE('',#472,#470,#86,.T.);
#407=EDGE_CURVE('',#473,#473,#503,.T.);
#408=EDGE_CURVE('',#474,#474,#504,.T.);
#409=VERTEX_POINT('',#1049);
#410=VERTEX_POINT('',#1051);
#411=VERTEX_POINT('',#1053);
#412=VERTEX_POINT('',#1054);
#413=VERTEX_POINT('',#1056);
#414=VERTEX_POINT('',#1058);
#415=VERTEX_POINT('',#1062);
#416=VERTEX_POINT('',#1064);
#417=VERTEX_POINT('',#1066);
#418=VERTEX_POINT('',#1068);
#419=VERTEX_POINT('',#1069);
#420=VERTEX_POINT('',#1071);
#421=VERTEX_POINT('',#1073);
#422=VERTEX_POINT('',#1077);
#423=VERTEX_POINT('',#1078);
#424=VERTEX_POINT('',#1080);
#425=VERTEX_POINT('',#1082);
#426=VERTEX_POINT('',#1085);
#427=VERTEX_POINT('',#1086);
#428=VERTEX_POINT('',#1088);
#429=VERTEX_POINT('',#1090);
#430=VERTEX_POINT('',#1094);
#431=VERTEX_POINT('',#1096);
#432=VERTEX_POINT('',#1098);
#433=VERTEX_POINT('',#1102);
#434=VERTEX_POINT('',#1106);
#435=VERTEX_POINT('',#1108);
#436=VERTEX_POINT('',#1113);
#437=VERTEX_POINT('',#1116);
#438=VERTEX_POINT('',#1118);
#439=VERTEX_POINT('',#1121);
#440=VERTEX_POINT('',#1125);
#441=VERTEX_POINT('',#1131);
#442=VERTEX_POINT('',#1134);
#443=VERTEX_POINT('',#1144);
#444=VERTEX_POINT('',#1146);
#445=VERTEX_POINT('',#1150);
#446=VERTEX_POINT('',#1154);
#447=VERTEX_POINT('',#1162);
#448=VERTEX_POINT('',#1166);
#449=VERTEX_POINT('',#1171);
#450=VERTEX_POINT('',#1173);
#451=VERTEX_POINT('',#1175);
#452=VERTEX_POINT('',#1176);
#453=VERTEX_POINT('',#1178);
#454=VERTEX_POINT('',#1180);
#455=VERTEX_POINT('',#1183);
#456=VERTEX_POINT('',#1185);
#457=VERTEX_POINT('',#1187);
#458=VERTEX_POINT('',#1188);
#459=VERTEX_POINT('',#1190);
#460=VERTEX_POINT('',#1192);
#461=VERTEX_POINT('',#1196);
#462=VERTEX_POINT('',#1198);
#463=VERTEX_POINT('',#1200);
#464=VERTEX_POINT('',#1201);
#465=VERTEX_POINT('',#1203);
#466=VERTEX_POINT('',#1205);
#467=VERTEX_POINT('',#1217);
#468=VERTEX_POINT('',#1220);
#469=VERTEX_POINT('',#1224);
#470=VERTEX_POINT('',#1226);
#471=VERTEX_POINT('',#1230);
#472=VERTEX_POINT('',#1234);
#473=VERTEX_POINT('',#1242);
#474=VERTEX_POINT('',#1246);
#475=CIRCLE('',#756,0.0111);
#476=CIRCLE('',#757,0.00315);
#477=CIRCLE('',#758,0.0227609764393907);
#478=CIRCLE('',#759,0.0138965517241379);
#479=CIRCLE('',#761,0.002395);
#480=CIRCLE('',#762,0.002395);
#481=CIRCLE('',#763,0.003);
#482=CIRCLE('',#764,0.0227609764393907);
#483=CIRCLE('',#769,0.003);
#484=CIRCLE('',#771,0.001625);
#485=CIRCLE('',#772,0.001625);
#486=CIRCLE('',#776,0.0138965517241379);
#487=CIRCLE('',#778,0.00315);
#488=CIRCLE('',#780,0.0111);
#489=CIRCLE('',#793,0.002395);
#490=CIRCLE('',#796,0.002395);
#491=CIRCLE('',#800,0.0025);
#492=CIRCLE('',#801,0.0025);
#493=CIRCLE('',#802,0.003);
#494=CIRCLE('',#803,0.0111);
#495=CIRCLE('',#804,0.0228187367929857);
#496=CIRCLE('',#805,0.0138965517241379);
#497=CIRCLE('',#807,0.0111);
#498=CIRCLE('',#808,0.001625);
#499=CIRCLE('',#809,0.0228187367929857);
#500=CIRCLE('',#810,0.0138965517241379);
#501=CIRCLE('',#816,0.001625);
#502=CIRCLE('',#818,0.003);
#503=CIRCLE('',#827,0.0025);
#504=CIRCLE('',#830,0.0025);
#505=EDGE_LOOP('',(#145));
#506=EDGE_LOOP('',(#146));
#507=EDGE_LOOP('',(#147,#148,#149,#150));
#508=EDGE_LOOP('',(#151));
#509=EDGE_LOOP('',(#152));
#510=EDGE_LOOP('',(#153));
#511=EDGE_LOOP('',(#154,#155,#156,#157));
#512=EDGE_LOOP('',(#158,#159,#160,#161));
#513=EDGE_LOOP('',(#162,#163,#164,#165));
#514=EDGE_LOOP('',(#166,#167,#168,#169,#170,#171,#172,#173,#174,#175));
#515=EDGE_LOOP('',(#176,#177,#178,#179,#180,#181));
#516=EDGE_LOOP('',(#182));
#517=EDGE_LOOP('',(#183));
#518=EDGE_LOOP('',(#184));
#519=EDGE_LOOP('',(#185));
#520=EDGE_LOOP('',(#186,#187,#188,#189));
#521=EDGE_LOOP('',(#190,#191,#192,#193));
#522=EDGE_LOOP('',(#194,#195,#196,#197));
#523=EDGE_LOOP('',(#198));
#524=EDGE_LOOP('',(#199));
#525=EDGE_LOOP('',(#200));
#526=EDGE_LOOP('',(#201,#202,#203,#204,#205,#206,#207,#208));
#527=EDGE_LOOP('',(#209,#210,#211,#212));
#528=EDGE_LOOP('',(#213,#214,#215,#216));
#529=EDGE_LOOP('',(#217));
#530=EDGE_LOOP('',(#218));
#531=EDGE_LOOP('',(#219));
#532=EDGE_LOOP('',(#220));
#533=EDGE_LOOP('',(#221));
#534=EDGE_LOOP('',(#222));
#535=EDGE_LOOP('',(#223,#224,#225,#226));
#536=EDGE_LOOP('',(#227,#228,#229,#230));
#537=EDGE_LOOP('',(#231,#232,#233,#234));
#538=EDGE_LOOP('',(#235,#236,#237,#238));
#539=EDGE_LOOP('',(#239,#240,#241,#242));
#540=EDGE_LOOP('',(#243,#244,#245,#246));
#541=EDGE_LOOP('',(#247));
#542=EDGE_LOOP('',(#248));
#543=EDGE_LOOP('',(#249));
#544=EDGE_LOOP('',(#250));
#545=EDGE_LOOP('',(#251));
#546=EDGE_LOOP('',(#252));
#547=EDGE_LOOP('',(#253));
#548=EDGE_LOOP('',(#254));
#549=EDGE_LOOP('',(#255,#256,#257,#258));
#550=EDGE_LOOP('',(#259));
#551=EDGE_LOOP('',(#260));
#552=EDGE_LOOP('',(#261,#262,#263,#264));
#553=EDGE_LOOP('',(#265));
#554=EDGE_LOOP('',(#266));
#555=EDGE_LOOP('',(#267,#268,#269,#270));
#556=EDGE_LOOP('',(#271,#272,#273,#274));
#557=EDGE_LOOP('',(#275));
#558=EDGE_LOOP('',(#276));
#559=EDGE_LOOP('',(#277,#278,#279,#280));
#560=EDGE_LOOP('',(#281,#282,#283,#284));
#561=EDGE_LOOP('',(#285));
#562=EDGE_LOOP('',(#286));
#563=EDGE_LOOP('',(#287));
#564=EDGE_LOOP('',(#288));
#565=EDGE_LOOP('',(#289));
#566=EDGE_LOOP('',(#290));
#567=EDGE_LOOP('',(#291,#292,#293,#294));
#568=EDGE_LOOP('',(#295,#296,#297,#298));
#569=EDGE_LOOP('',(#299,#300,#301,#302));
#570=EDGE_LOOP('',(#303,#304,#305,#306));
#571=EDGE_LOOP('',(#307,#308,#309,#310));
#572=EDGE_LOOP('',(#311,#312,#313,#314));
#573=EDGE_LOOP('',(#315));
#574=EDGE_LOOP('',(#316));
#575=EDGE_LOOP('',(#317));
#576=EDGE_LOOP('',(#318));
#577=EDGE_LOOP('',(#319));
#578=EDGE_LOOP('',(#320));
#579=FACE_BOUND('',#505,.T.);
#580=FACE_BOUND('',#506,.T.);
#581=FACE_BOUND('',#507,.T.);
#582=FACE_BOUND('',#508,.T.);
#583=FACE_BOUND('',#509,.T.);
#584=FACE_BOUND('',#510,.T.);
#585=FACE_BOUND('',#511,.T.);
#586=FACE_BOUND('',#512,.T.);
#587=FACE_BOUND('',#513,.T.);
#588=FACE_BOUND('',#514,.T.);
#589=FACE_BOUND('',#515,.T.);
#590=FACE_BOUND('',#516,.T.);
#591=FACE_BOUND('',#517,.T.);
#592=FACE_BOUND('',#518,.T.);
#593=FACE_BOUND('',#519,.T.);
#594=FACE_BOUND('',#520,.T.);
#595=FACE_BOUND('',#521,.T.);
#596=FACE_BOUND('',#522,.T.);
#597=FACE_BOUND('',#523,.T.);
#598=FACE_BOUND('',#524,.T.);
#599=FACE_BOUND('',#525,.T.);
#600=FACE_BOUND('',#526,.T.);
#601=FACE_BOUND('',#527,.T.);
#602=FACE_BOUND('',#528,.T.);
#603=FACE_BOUND('',#529,.T.);
#604=FACE_BOUND('',#530,.T.);
#605=FACE_BOUND('',#531,.T.);
#606=FACE_BOUND('',#532,.T.);
#607=FACE_BOUND('',#533,.T.);
#608=FACE_BOUND('',#534,.T.);
#609=FACE_BOUND('',#535,.T.);
#610=FACE_BOUND('',#536,.T.);
#611=FACE_BOUND('',#537,.T.);
#612=FACE_BOUND('',#538,.T.);
#613=FACE_BOUND('',#539,.T.);
#614=FACE_BOUND('',#540,.T.);
#615=FACE_BOUND('',#541,.T.);
#616=FACE_BOUND('',#542,.T.);
#617=FACE_BOUND('',#543,.T.);
#618=FACE_BOUND('',#544,.T.);
#619=FACE_BOUND('',#545,.T.);
#620=FACE_BOUND('',#546,.T.);
#621=FACE_BOUND('',#547,.T.);
#622=FACE_BOUND('',#548,.T.);
#623=FACE_BOUND('',#549,.T.);
#624=FACE_BOUND('',#550,.T.);
#625=FACE_BOUND('',#551,.T.);
#626=FACE_BOUND('',#552,.T.);
#627=FACE_BOUND('',#553,.T.);
#628=FACE_BOUND('',#554,.T.);
#629=FACE_BOUND('',#555,.T.);
#630=FACE_BOUND('',#556,.T.);
#631=FACE_BOUND('',#557,.T.);
#632=FACE_BOUND('',#558,.T.);
#633=FACE_BOUND('',#559,.T.);
#634=FACE_BOUND('',#560,.T.);
#635=FACE_BOUND('',#561,.T.);
#636=FACE_BOUND('',#562,.T.);
#637=FACE_BOUND('',#563,.T.);
#638=FACE_BOUND('',#564,.T.);
#639=FACE_BOUND('',#565,.T.);
#640=FACE_BOUND('',#566,.T.);
#641=FACE_BOUND('',#567,.T.);
#642=FACE_BOUND('',#568,.T.);
#643=FACE_BOUND('',#569,.T.);
#644=FACE_BOUND('',#570,.T.);
#645=FACE_BOUND('',#571,.T.);
#646=FACE_BOUND('',#572,.T.);
#647=FACE_BOUND('',#573,.T.);
#648=FACE_BOUND('',#574,.T.);
#649=FACE_BOUND('',#575,.T.);
#650=FACE_BOUND('',#576,.T.);
#651=FACE_BOUND('',#577,.T.);
#652=FACE_BOUND('',#578,.T.);
#653=PLANE('',#755);
#654=PLANE('',#760);
#655=PLANE('',#765);
#656=PLANE('',#766);
#657=PLANE('',#767);
#658=PLANE('',#773);
#659=PLANE('',#774);
#660=PLANE('',#779);
#661=PLANE('',#781);
#662=PLANE('',#782);
#663=PLANE('',#783);
#664=PLANE('',#784);
#665=PLANE('',#786);
#666=PLANE('',#787);
#667=PLANE('',#788);
#668=PLANE('',#789);
#669=PLANE('',#790);
#670=PLANE('',#794);
#671=PLANE('',#797);
#672=PLANE('',#799);
#673=PLANE('',#806);
#674=PLANE('',#813);
#675=PLANE('',#814);
#676=PLANE('',#817);
#677=PLANE('',#820);
#678=PLANE('',#821);
#679=PLANE('',#822);
#680=PLANE('',#823);
#681=PLANE('',#824);
#682=PLANE('',#828);
#683=PLANE('',#831);
#684=ADVANCED_FACE('',(#579,#580,#581),#653,.T.);
#685=ADVANCED_FACE('',(#582,#583,#584,#585),#654,.T.);
#686=ADVANCED_FACE('',(#586,#587),#655,.T.);
#687=ADVANCED_FACE('',(#588),#656,.T.);
#688=ADVANCED_FACE('',(#589),#657,.F.);
#689=ADVANCED_FACE('',(#590,#591),#14,.F.);
#690=ADVANCED_FACE('',(#592,#593),#15,.F.);
#691=ADVANCED_FACE('',(#594),#658,.T.);
#692=ADVANCED_FACE('',(#595),#659,.F.);
#693=ADVANCED_FACE('',(#596),#16,.T.);
#694=ADVANCED_FACE('',(#597,#598),#17,.F.);
#695=ADVANCED_FACE('',(#599,#600),#660,.T.);
#696=ADVANCED_FACE('',(#601),#661,.F.);
#697=ADVANCED_FACE('',(#602),#662,.T.);
#698=ADVANCED_FACE('',(#603,#604),#663,.T.);
#699=ADVANCED_FACE('',(#605,#606),#664,.T.);
#700=ADVANCED_FACE('',(#607,#608),#18,.F.);
#701=ADVANCED_FACE('',(#609),#665,.T.);
#702=ADVANCED_FACE('',(#610),#666,.T.);
#703=ADVANCED_FACE('',(#611),#667,.T.);
#704=ADVANCED_FACE('',(#612),#668,.T.);
#705=ADVANCED_FACE('',(#613),#669,.T.);
#706=ADVANCED_FACE('',(#614),#19,.T.);
#707=ADVANCED_FACE('',(#615,#616),#20,.T.);
#708=ADVANCED_FACE('',(#617),#670,.T.);
#709=ADVANCED_FACE('',(#618,#619),#21,.T.);
#710=ADVANCED_FACE('',(#620),#671,.T.);
#711=ADVANCED_FACE('',(#621,#622,#623,#624,#625,#626),#672,.T.);
#712=ADVANCED_FACE('',(#627,#628,#629),#673,.T.);
#713=ADVANCED_FACE('',(#630),#22,.T.);
#714=ADVANCED_FACE('',(#631,#632),#23,.F.);
#715=ADVANCED_FACE('',(#633),#674,.F.);
#716=ADVANCED_FACE('',(#634),#675,.T.);
#717=ADVANCED_FACE('',(#635,#636),#24,.F.);
#718=ADVANCED_FACE('',(#637,#638),#676,.F.);
#719=ADVANCED_FACE('',(#639,#640),#25,.F.);
#720=ADVANCED_FACE('',(#641),#677,.T.);
#721=ADVANCED_FACE('',(#642),#678,.T.);
#722=ADVANCED_FACE('',(#643),#679,.F.);
#723=ADVANCED_FACE('',(#644),#680,.F.);
#724=ADVANCED_FACE('',(#645),#681,.T.);
#725=ADVANCED_FACE('',(#646),#26,.T.);
#726=ADVANCED_FACE('',(#647,#648),#27,.F.);
#727=ADVANCED_FACE('',(#649),#682,.T.);
#728=ADVANCED_FACE('',(#650,#651),#28,.F.);
#729=ADVANCED_FACE('',(#652),#683,.T.);
#730=CLOSED_SHELL('',(#684,#685,#686,#687,#688,#689,#690,#691,#692,#693,
#694,#695,#696,#697,#698,#699,#700,#701,#702,#703,#704,#705,#706,#707,#708,
#709,#710));
#731=CLOSED_SHELL('',(#711,#712,#713,#714,#715,#716,#717,#718,#719,#720,
#721,#722,#723,#724,#725,#726,#727,#728,#729));
#732=STYLED_ITEM('',(#734),#748);
#733=STYLED_ITEM('',(#735),#749);
#734=PRESENTATION_STYLE_ASSIGNMENT((#736));
#735=PRESENTATION_STYLE_ASSIGNMENT((#737));
#736=SURFACE_STYLE_USAGE(.BOTH.,#738);
#737=SURFACE_STYLE_USAGE(.BOTH.,#739);
#738=SURFACE_SIDE_STYLE('',(#740));
#739=SURFACE_SIDE_STYLE('',(#741));
#740=SURFACE_STYLE_FILL_AREA(#742);
#741=SURFACE_STYLE_FILL_AREA(#743);
#742=FILL_AREA_STYLE('',(#744));
#743=FILL_AREA_STYLE('',(#745));
#744=FILL_AREA_STYLE_COLOUR('',#746);
#745=FILL_AREA_STYLE_COLOUR('',#747);
#746=COLOUR_RGB('',0.133333333333333,0.250980392156863,0.686274509803922);
#747=COLOUR_RGB('',0.231372549019608,0.380392156862745,0.705882352941177);
#748=MANIFOLD_SOLID_BREP('Part 1',#730);
#749=MANIFOLD_SOLID_BREP('Part 2',#731);
#750=SHAPE_DEFINITION_REPRESENTATION(#1260,#752);
#751=SHAPE_DEFINITION_REPRESENTATION(#1261,#753);
#752=SHAPE_REPRESENTATION('Part 1',(#754),#1250);
#753=SHAPE_REPRESENTATION('Part 2',(#798),#1251);
#754=AXIS2_PLACEMENT_3D('',#1046,#832,#833);
#755=AXIS2_PLACEMENT_3D('',#1047,#834,#835);
#756=AXIS2_PLACEMENT_3D('',#1048,#836,#837);
#757=AXIS2_PLACEMENT_3D('',#1050,#838,#839);
#758=AXIS2_PLACEMENT_3D('',#1055,#841,#842);
#759=AXIS2_PLACEMENT_3D('',#1059,#844,#845);
#760=AXIS2_PLACEMENT_3D('',#1060,#846,#847);
#761=AXIS2_PLACEMENT_3D('',#1061,#848,#849);
#762=AXIS2_PLACEMENT_3D('',#1063,#850,#851);
#763=AXIS2_PLACEMENT_3D('',#1065,#852,#853);
#764=AXIS2_PLACEMENT_3D('',#1070,#855,#856);
#765=AXIS2_PLACEMENT_3D('',#1075,#859,#860);
#766=AXIS2_PLACEMENT_3D('',#1092,#869,#870);
#767=AXIS2_PLACEMENT_3D('',#1104,#878,#879);
#768=AXIS2_PLACEMENT_3D('',#1111,#884,#885);
#769=AXIS2_PLACEMENT_3D('',#1112,#886,#887);
#770=AXIS2_PLACEMENT_3D('',#1114,#888,#889);
#771=AXIS2_PLACEMENT_3D('',#1115,#890,#891);
#772=AXIS2_PLACEMENT_3D('',#1117,#892,#893);
#773=AXIS2_PLACEMENT_3D('',#1119,#894,#895);
#774=AXIS2_PLACEMENT_3D('',#1123,#898,#899);
#775=AXIS2_PLACEMENT_3D('',#1127,#902,#903);
#776=AXIS2_PLACEMENT_3D('',#1128,#904,#905);
#777=AXIS2_PLACEMENT_3D('',#1129,#906,#907);
#778=AXIS2_PLACEMENT_3D('',#1130,#908,#909);
#779=AXIS2_PLACEMENT_3D('',#1132,#910,#911);
#780=AXIS2_PLACEMENT_3D('',#1133,#912,#913);
#781=AXIS2_PLACEMENT_3D('',#1137,#916,#917);
#782=AXIS2_PLACEMENT_3D('',#1138,#918,#919);
#783=AXIS2_PLACEMENT_3D('',#1139,#920,#921);
#784=AXIS2_PLACEMENT_3D('',#1140,#922,#923);
#785=AXIS2_PLACEMENT_3D('',#1141,#924,#925);
#786=AXIS2_PLACEMENT_3D('',#1142,#926,#927);
#787=AXIS2_PLACEMENT_3D('',#1148,#931,#932);
#788=AXIS2_PLACEMENT_3D('',#1152,#935,#936);
#789=AXIS2_PLACEMENT_3D('',#1156,#939,#940);
#790=AXIS2_PLACEMENT_3D('',#1158,#942,#943);
#791=AXIS2_PLACEMENT_3D('',#1159,#944,#945);
#792=AXIS2_PLACEMENT_3D('',#1160,#946,#947);
#793=AXIS2_PLACEMENT_3D('',#1161,#948,#949);
#794=AXIS2_PLACEMENT_3D('',#1163,#950,#951);
#795=AXIS2_PLACEMENT_3D('',#1164,#952,#953);
#796=AXIS2_PLACEMENT_3D('',#1165,#954,#955);
#797=AXIS2_PLACEMENT_3D('',#1167,#956,#957);
#798=AXIS2_PLACEMENT_3D('',#1168,#958,#959);
#799=AXIS2_PLACEMENT_3D('',#1169,#960,#961);
#800=AXIS2_PLACEMENT_3D('',#1170,#962,#963);
#801=AXIS2_PLACEMENT_3D('',#1172,#964,#965);
#802=AXIS2_PLACEMENT_3D('',#1182,#970,#971);
#803=AXIS2_PLACEMENT_3D('',#1184,#972,#973);
#804=AXIS2_PLACEMENT_3D('',#1189,#975,#976);
#805=AXIS2_PLACEMENT_3D('',#1193,#978,#979);
#806=AXIS2_PLACEMENT_3D('',#1194,#980,#981);
#807=AXIS2_PLACEMENT_3D('',#1195,#982,#983);
#808=AXIS2_PLACEMENT_3D('',#1197,#984,#985);
#809=AXIS2_PLACEMENT_3D('',#1202,#987,#988);
#810=AXIS2_PLACEMENT_3D('',#1206,#990,#991);
#811=AXIS2_PLACEMENT_3D('',#1207,#992,#993);
#812=AXIS2_PLACEMENT_3D('',#1210,#996,#997);
#813=AXIS2_PLACEMENT_3D('',#1211,#998,#999);
#814=AXIS2_PLACEMENT_3D('',#1213,#1001,#1002);
#815=AXIS2_PLACEMENT_3D('',#1215,#1004,#1005);
#816=AXIS2_PLACEMENT_3D('',#1216,#1006,#1007);
#817=AXIS2_PLACEMENT_3D('',#1218,#1008,#1009);
#818=AXIS2_PLACEMENT_3D('',#1219,#1010,#1011);
#819=AXIS2_PLACEMENT_3D('',#1221,#1012,#1013);
#820=AXIS2_PLACEMENT_3D('',#1222,#1014,#1015);
#821=AXIS2_PLACEMENT_3D('',#1228,#1019,#1020);
#822=AXIS2_PLACEMENT_3D('',#1232,#1023,#1024);
#823=AXIS2_PLACEMENT_3D('',#1236,#1027,#1028);
#824=AXIS2_PLACEMENT_3D('',#1238,#1030,#1031);
#825=AXIS2_PLACEMENT_3D('',#1239,#1032,#1033);
#826=AXIS2_PLACEMENT_3D('',#1240,#1034,#1035);
#827=AXIS2_PLACEMENT_3D('',#1241,#1036,#1037);
#828=AXIS2_PLACEMENT_3D('',#1243,#1038,#1039);
#829=AXIS2_PLACEMENT_3D('',#1244,#1040,#1041);
#830=AXIS2_PLACEMENT_3D('',#1245,#1042,#1043);
#831=AXIS2_PLACEMENT_3D('',#1247,#1044,#1045);
#832=DIRECTION('',(0.,0.,1.));
#833=DIRECTION('',(1.,0.,0.));
#834=DIRECTION('',(0.,-1.,0.));
#835=DIRECTION('',(1.,0.,0.));
#836=DIRECTION('',(0.,-1.,0.));
#837=DIRECTION('',(0.,0.,-1.));
#838=DIRECTION('',(0.,-1.,0.));
#839=DIRECTION('',(0.,0.,-1.));
#840=DIRECTION('',(1.,0.,0.));
#841=DIRECTION('',(0.,-1.,0.));
#842=DIRECTION('',(0.,0.,-1.));
#843=DIRECTION('',(1.,0.,3.1336940211194E-16));
#844=DIRECTION('',(0.,-1.,0.));
#845=DIRECTION('',(0.,0.,-1.));
#846=DIRECTION('',(0.,1.,0.));
#847=DIRECTION('',(0.,0.,1.));
#848=DIRECTION('',(0.,1.,0.));
#849=DIRECTION('',(0.,0.,1.));
#850=DIRECTION('',(0.,1.,0.));
#851=DIRECTION('',(0.,0.,1.));
#852=DIRECTION('',(0.,1.,0.));
#853=DIRECTION('',(0.,0.,1.));
#854=DIRECTION('',(-1.,0.,-3.1336940211194E-16));
#855=DIRECTION('',(0.,1.,0.));
#856=DIRECTION('',(0.,0.,1.));
#857=DIRECTION('',(-1.,0.,0.));
#858=DIRECTION('',(0.,0.,1.));
#859=DIRECTION('',(0.,1.,0.));
#860=DIRECTION('',(0.,0.,1.));
#861=DIRECTION('',(0.,0.,1.));
#862=DIRECTION('',(1.,0.,0.));
#863=DIRECTION('',(0.,0.,-1.));
#864=DIRECTION('',(-1.,0.,0.));
#865=DIRECTION('',(0.,0.,1.));
#866=DIRECTION('',(-1.,0.,0.));
#867=DIRECTION('',(0.,0.,-1.));
#868=DIRECTION('',(1.,0.,0.));
#869=DIRECTION('',(0.,0.,1.));
#870=DIRECTION('',(1.,0.,0.));
#871=DIRECTION('',(0.,1.,0.));
#872=DIRECTION('',(0.,1.,0.));
#873=DIRECTION('',(-1.,-1.02798428206033E-16,0.));
#874=DIRECTION('',(0.,-1.,0.));
#875=DIRECTION('',(0.,1.,0.));
#876=DIRECTION('',(0.,1.,0.));
#877=DIRECTION('',(-1.,-1.02798428206033E-16,0.));
#878=DIRECTION('',(-3.1336940211194E-16,0.,1.));
#879=DIRECTION('',(1.,0.,3.1336940211194E-16));
#880=DIRECTION('',(0.,-1.,0.));
#881=DIRECTION('',(-1.,-1.02798428206033E-16,-3.1336940211194E-16));
#882=DIRECTION('',(0.,1.,0.));
#883=DIRECTION('',(0.,1.,0.));
#884=DIRECTION('',(0.,1.,0.));
#885=DIRECTION('',(0.,0.,1.));
#886=DIRECTION('',(0.,1.,0.));
#887=DIRECTION('',(0.,0.,1.));
#888=DIRECTION('',(0.,1.,0.));
#889=DIRECTION('',(0.,0.,1.));
#890=DIRECTION('',(0.,1.,0.));
#891=DIRECTION('',(0.,0.,1.));
#892=DIRECTION('',(0.,1.,0.));
#893=DIRECTION('',(0.,0.,1.));
#894=DIRECTION('',(1.,0.,0.));
#895=DIRECTION('',(0.,0.,-1.));
#896=DIRECTION('',(0.,0.,-1.));
#897=DIRECTION('',(0.,1.,0.));
#898=DIRECTION('',(1.,0.,0.));
#899=DIRECTION('',(0.,0.,-1.));
#900=DIRECTION('',(0.,1.,0.));
#901=DIRECTION('',(0.,0.,-1.));
#902=DIRECTION('',(0.,1.,0.));
#903=DIRECTION('',(0.,0.,1.));
#904=DIRECTION('',(0.,-1.,0.));
#905=DIRECTION('',(0.,0.,-1.));
#906=DIRECTION('',(0.,-1.,0.));
#907=DIRECTION('',(0.,0.,-1.));
#908=DIRECTION('',(0.,-1.,0.));
#909=DIRECTION('',(0.,0.,-1.));
#910=DIRECTION('',(-1.02798428206033E-16,1.,0.));
#911=DIRECTION('',(-1.,-1.02798428206033E-16,0.));
#912=DIRECTION('',(-1.02798428206033E-16,1.,0.));
#913=DIRECTION('',(-1.,-1.02798428206033E-16,0.));
#914=DIRECTION('',(0.,0.,1.));
#915=DIRECTION('',(1.,0.,0.));
#916=DIRECTION('',(-1.,0.,0.));
#917=DIRECTION('',(0.,0.,1.));
#918=DIRECTION('',(0.,0.,-1.));
#919=DIRECTION('',(-1.,0.,0.));
#920=DIRECTION('',(0.,-1.,0.));
#921=DIRECTION('',(1.,0.,0.));
#922=DIRECTION('',(0.,1.,0.));
#923=DIRECTION('',(-1.,0.,0.));
#924=DIRECTION('',(0.,-1.,0.));
#925=DIRECTION('',(0.,0.,-1.));
#926=DIRECTION('',(0.,0.,-1.));
#927=DIRECTION('',(-1.,0.,0.));
#928=DIRECTION('',(0.,1.,0.));
#929=DIRECTION('',(-1.,0.,0.));
#930=DIRECTION('',(0.,1.,0.));
#931=DIRECTION('',(-1.,0.,0.));
#932=DIRECTION('',(0.,0.,1.));
#933=DIRECTION('',(0.,1.,0.));
#934=DIRECTION('',(0.,0.,1.));
#935=DIRECTION('',(0.,0.,1.));
#936=DIRECTION('',(1.,0.,0.));
#937=DIRECTION('',(0.,1.,0.));
#938=DIRECTION('',(1.,0.,0.));
#939=DIRECTION('',(1.,0.,0.));
#940=DIRECTION('',(0.,0.,-1.));
#941=DIRECTION('',(0.,0.,-1.));
#942=DIRECTION('',(0.,1.,0.));
#943=DIRECTION('',(-1.,0.,0.));
#944=DIRECTION('',(0.,-1.,0.));
#945=DIRECTION('',(0.,0.,-1.));
#946=DIRECTION('',(0.,-1.,0.));
#947=DIRECTION('',(0.,0.,-1.));
#948=DIRECTION('',(0.,1.,0.));
#949=DIRECTION('',(0.,0.,1.));
#950=DIRECTION('',(0.,1.,0.));
#951=DIRECTION('',(-1.,0.,0.));
#952=DIRECTION('',(0.,-1.,0.));
#953=DIRECTION('',(0.,0.,-1.));
#954=DIRECTION('',(0.,1.,0.));
#955=DIRECTION('',(0.,0.,1.));
#956=DIRECTION('',(0.,1.,0.));
#957=DIRECTION('',(-1.,0.,0.));
#958=DIRECTION('',(0.,0.,1.));
#959=DIRECTION('',(1.,0.,0.));
#960=DIRECTION('',(0.,-1.,0.));
#961=DIRECTION('',(0.,0.,-1.));
#962=DIRECTION('',(0.,-1.,0.));
#963=DIRECTION('',(0.,0.,-1.));
#964=DIRECTION('',(0.,-1.,0.));
#965=DIRECTION('',(0.,0.,-1.));
#966=DIRECTION('',(-1.,0.,0.));
#967=DIRECTION('',(0.,0.,1.));
#968=DIRECTION('',(-1.,0.,0.));
#969=DIRECTION('',(0.,0.,1.));
#970=DIRECTION('',(0.,1.,0.));
#971=DIRECTION('',(0.,0.,1.));
#972=DIRECTION('',(0.,-1.,0.));
#973=DIRECTION('',(0.,0.,-1.));
#974=DIRECTION('',(1.,0.,0.));
#975=DIRECTION('',(0.,-1.,0.));
#976=DIRECTION('',(0.,0.,-1.));
#977=DIRECTION('',(1.,0.,3.1336940211194E-16));
#978=DIRECTION('',(0.,-1.,0.));
#979=DIRECTION('',(0.,0.,-1.));
#980=DIRECTION('',(0.,1.,0.));
#981=DIRECTION('',(-1.,0.,0.));
#982=DIRECTION('',(0.,1.,0.));
#983=DIRECTION('',(0.,0.,1.));
#984=DIRECTION('',(0.,1.,0.));
#985=DIRECTION('',(0.,0.,1.));
#986=DIRECTION('',(1.,0.,3.1336940211194E-16));
#987=DIRECTION('',(0.,1.,0.));
#988=DIRECTION('',(0.,0.,1.));
#989=DIRECTION('',(1.,0.,0.));
#990=DIRECTION('',(0.,-1.,0.));
#991=DIRECTION('',(0.,0.,-1.));
#992=DIRECTION('',(0.,1.,0.));
#993=DIRECTION('',(0.,0.,1.));
#994=DIRECTION('',(0.,1.,0.));
#995=DIRECTION('',(0.,1.,0.));
#996=DIRECTION('',(0.,-1.,0.));
#997=DIRECTION('',(0.,0.,-1.));
#998=DIRECTION('',(-3.1336940211194E-16,0.,1.));
#999=DIRECTION('',(1.,0.,3.1336940211194E-16));
#1000=DIRECTION('',(0.,1.,0.));
#1001=DIRECTION('',(0.,0.,1.));
#1002=DIRECTION('',(1.,0.,0.));
#1003=DIRECTION('',(0.,1.,0.));
#1004=DIRECTION('',(0.,-1.,0.));
#1005=DIRECTION('',(0.,0.,-1.));
#1006=DIRECTION('',(0.,1.,0.));
#1007=DIRECTION('',(0.,0.,1.));
#1008=DIRECTION('',(0.,1.,0.));
#1009=DIRECTION('',(-1.,0.,0.));
#1010=DIRECTION('',(0.,1.,0.));
#1011=DIRECTION('',(0.,0.,1.));
#1012=DIRECTION('',(0.,1.,0.));
#1013=DIRECTION('',(0.,0.,1.));
#1014=DIRECTION('',(-1.,0.,0.));
#1015=DIRECTION('',(0.,0.,1.));
#1016=DIRECTION('',(0.,1.,0.));
#1017=DIRECTION('',(0.,0.,1.));
#1018=DIRECTION('',(0.,1.,0.));
#1019=DIRECTION('',(0.,0.,-1.));
#1020=DIRECTION('',(-1.,0.,0.));
#1021=DIRECTION('',(0.,1.,0.));
#1022=DIRECTION('',(-1.,0.,0.));
#1023=DIRECTION('',(-1.,0.,0.));
#1024=DIRECTION('',(0.,0.,1.));
#1025=DIRECTION('',(0.,1.,0.));
#1026=DIRECTION('',(0.,0.,1.));
#1027=DIRECTION('',(0.,0.,-1.));
#1028=DIRECTION('',(-1.,0.,0.));
#1029=DIRECTION('',(-1.,0.,0.));
#1030=DIRECTION('',(0.,-1.,0.));
#1031=DIRECTION('',(1.,0.,0.));
#1032=DIRECTION('',(0.,-1.,0.));
#1033=DIRECTION('',(0.,0.,-1.));
#1034=DIRECTION('',(0.,-1.,0.));
#1035=DIRECTION('',(0.,0.,-1.));
#1036=DIRECTION('',(0.,-1.,0.));
#1037=DIRECTION('',(0.,0.,-1.));
#1038=DIRECTION('',(0.,-1.,0.));
#1039=DIRECTION('',(1.,0.,0.));
#1040=DIRECTION('',(0.,-1.,0.));
#1041=DIRECTION('',(0.,0.,-1.));
#1042=DIRECTION('',(0.,-1.,0.));
#1043=DIRECTION('',(0.,0.,-1.));
#1044=DIRECTION('',(0.,-1.,0.));
#1045=DIRECTION('',(1.,0.,0.));
#1046=CARTESIAN_POINT('',(0.,0.,0.));
#1047=CARTESIAN_POINT('',(-0.0191673744238656,-0.032,-0.00320998897429173));
#1048=CARTESIAN_POINT('',(0.0583326255761344,-0.032,-0.00320998897429171));
#1049=CARTESIAN_POINT('',(0.0583326255761344,-0.032,-0.0143099889742917));
#1050=CARTESIAN_POINT('',(-0.0966673744238656,-0.032,-0.00320998897429173));
#1051=CARTESIAN_POINT('',(-0.0966673744238656,-0.032,-0.00635998897429173));
#1052=CARTESIAN_POINT('',(-0.0191673744238656,-0.032,0.0106865627498462));
#1053=CARTESIAN_POINT('',(-0.0966673744238656,-0.032,0.0106865627498462));
#1054=CARTESIAN_POINT('',(0.0583326255761344,-0.032,0.0106865627498462));
#1055=CARTESIAN_POINT('',(-0.0786410631358384,-0.032,-0.00320998897429172));
#1056=CARTESIAN_POINT('',(-0.0966673744238656,-0.032,-0.0171065406984297));
#1057=CARTESIAN_POINT('',(-0.0191673744238656,-0.032,-0.0171065406984297));
#1058=CARTESIAN_POINT('',(0.0583326255761344,-0.032,-0.0171065406984296));
#1059=CARTESIAN_POINT('',(0.0583326255761344,-0.032,-0.00320998897429171));
#1060=CARTESIAN_POINT('',(0.0128176185488701,-0.005,0.00179001102570829));
#1061=CARTESIAN_POINT('',(-0.0916673744238656,-0.005,0.00568656274984621));
#1062=CARTESIAN_POINT('',(-0.0916673744238656,-0.005,0.00808156274984621));
#1063=CARTESIAN_POINT('',(-0.0916673744238656,-0.005,-0.0121065406984297));
#1064=CARTESIAN_POINT('',(-0.0916673744238656,-0.005,-0.00971154069842966));
#1065=CARTESIAN_POINT('',(-0.0966673744238656,-0.005,-0.00320998897429173));
#1066=CARTESIAN_POINT('',(-0.0966673744238656,-0.005,-0.00020998897429173));
#1067=CARTESIAN_POINT('',(-0.0191673744238656,-0.005,-0.0171065406984297));
#1068=CARTESIAN_POINT('',(-0.0866673744238656,-0.005,-0.0171065406984297));
#1069=CARTESIAN_POINT('',(-0.0966673744238656,-0.005,-0.0171065406984297));
#1070=CARTESIAN_POINT('',(-0.0786410631358384,-0.005,-0.00320998897429172));
#1071=CARTESIAN_POINT('',(-0.0966673744238656,-0.005,0.0106865627498462));
#1072=CARTESIAN_POINT('',(-0.0191673744238656,-0.005,0.0106865627498462));
#1073=CARTESIAN_POINT('',(-0.0866673744238656,-0.005,0.0106865627498462));
#1074=CARTESIAN_POINT('',(-0.0866673744238656,-0.005,-0.0393134372501538));
#1075=CARTESIAN_POINT('',(0.0128176185488701,-0.005,0.00179001102570829));
#1076=CARTESIAN_POINT('',(0.0128176185488701,-0.005,-0.00320998897429172));
#1077=CARTESIAN_POINT('',(0.0128176185488701,-0.005,-0.00710654069842964));
#1078=CARTESIAN_POINT('',(0.0128176185488701,-0.005,0.0106865627498462));
#1079=CARTESIAN_POINT('',(-0.0121823814511299,-0.005,-0.00710654069842964));
#1080=CARTESIAN_POINT('',(0.00781761854887009,-0.005,-0.00710654069842964));
#1081=CARTESIAN_POINT('',(0.00781761854887009,-0.005,-0.00320998897429171));
#1082=CARTESIAN_POINT('',(0.00781761854887009,-0.005,0.0106865627498462));
#1083=CARTESIAN_POINT('',(-0.0191673744238656,-0.005,0.0106865627498462));
#1084=CARTESIAN_POINT('',(0.0118176185488701,-0.005,0.00179001102570829));
#1085=CARTESIAN_POINT('',(0.0118176185488701,-0.005,-0.00610654069842964));
#1086=CARTESIAN_POINT('',(0.0118176185488701,-0.005,0.00968656274984621));
#1087=CARTESIAN_POINT('',(0.0103176185488701,-0.005,0.00968656274984621));
#1088=CARTESIAN_POINT('',(0.00881761854887009,-0.005,0.00968656274984621));
#1089=CARTESIAN_POINT('',(0.00881761854887009,-0.005,0.00179001102570829));
#1090=CARTESIAN_POINT('',(0.00881761854887009,-0.005,-0.00610654069842964));
#1091=CARTESIAN_POINT('',(0.0103176185488701,-0.005,-0.00610654069842964));
#1092=CARTESIAN_POINT('',(-0.0191673744238656,-0.03,0.0106865627498462));
#1093=CARTESIAN_POINT('',(0.0128176185488701,-0.028,0.0106865627498462));
#1094=CARTESIAN_POINT('',(0.0128176185488701,-0.025,0.0106865627498462));
#1095=CARTESIAN_POINT('',(0.00781761854887009,-0.028,0.0106865627498462));
#1096=CARTESIAN_POINT('',(0.00781761854887009,-0.025,0.0106865627498462));
#1097=CARTESIAN_POINT('',(-0.0191673744238656,-0.025,0.0106865627498462));
#1098=CARTESIAN_POINT('',(-0.0866673744238656,-0.025,0.0106865627498462));
#1099=CARTESIAN_POINT('',(-0.0866673744238656,-0.015,0.0106865627498462));
#1100=CARTESIAN_POINT('',(-0.0966673744238656,-0.03,0.0106865627498462));
#1101=CARTESIAN_POINT('',(0.0583326255761344,-0.03,0.0106865627498462));
#1102=CARTESIAN_POINT('',(0.0583326255761344,-0.025,0.0106865627498462));
#1103=CARTESIAN_POINT('',(-0.0191673744238656,-0.025,0.0106865627498462));
#1104=CARTESIAN_POINT('',(-0.0191673744238656,-0.03,-0.0171065406984297));
#1105=CARTESIAN_POINT('',(-0.0866673744238656,-0.03,-0.0171065406984297));
#1106=CARTESIAN_POINT('',(-0.0866673744238656,-0.025,-0.0171065406984297));
#1107=CARTESIAN_POINT('',(-0.0191673744238656,-0.025,-0.0171065406984297));
#1108=CARTESIAN_POINT('',(0.0583326255761344,-0.025,-0.0171065406984297));
#1109=CARTESIAN_POINT('',(0.0583326255761344,-0.03,-0.0171065406984296));
#1110=CARTESIAN_POINT('',(-0.0966673744238656,-0.03,-0.0171065406984297));
#1111=CARTESIAN_POINT('',(-0.0966673744238656,-0.0145,-0.00320998897429173));
#1112=CARTESIAN_POINT('',(-0.0966673744238656,-0.0145,-0.00320998897429173));
#1113=CARTESIAN_POINT('',(-0.0966673744238656,-0.0145,-0.00020998897429173));
#1114=CARTESIAN_POINT('',(-0.0966673744238656,-0.0275,-0.00320998897429173));
#1115=CARTESIAN_POINT('',(-0.0966673744238656,-0.0275,-0.00320998897429173));
#1116=CARTESIAN_POINT('',(-0.0966673744238656,-0.0275,-0.00158498897429173));
#1117=CARTESIAN_POINT('',(-0.0966673744238656,-0.0145,-0.00320998897429173));
#1118=CARTESIAN_POINT('',(-0.0966673744238656,-0.0145,-0.00158498897429173));
#1119=CARTESIAN_POINT('',(0.0128176185488701,-0.028,-0.00320998897429172));
#1120=CARTESIAN_POINT('',(0.0128176185488701,-0.025,-0.0393134372501538));
#1121=CARTESIAN_POINT('',(0.0128176185488701,-0.025,-0.00710654069842964));
#1122=CARTESIAN_POINT('',(0.0128176185488701,-0.015,-0.00710654069842964));
#1123=CARTESIAN_POINT('',(0.00781761854887009,-0.028,-0.00320998897429171));
#1124=CARTESIAN_POINT('',(0.00781761854887009,-0.028,-0.00710654069842964));
#1125=CARTESIAN_POINT('',(0.00781761854887009,-0.025,-0.00710654069842964));
#1126=CARTESIAN_POINT('',(0.00781761854887009,-0.025,-0.0393134372501538));
#1127=CARTESIAN_POINT('',(0.0583326255761344,-0.03,-0.00320998897429171));
#1128=CARTESIAN_POINT('',(0.0583326255761344,-0.025,-0.00320998897429171));
#1129=CARTESIAN_POINT('',(-0.0966673744238656,-0.02,-0.00320998897429173));
#1130=CARTESIAN_POINT('',(-0.0966673744238656,-0.0275,-0.00320998897429173));
#1131=CARTESIAN_POINT('',(-0.0966673744238656,-0.0275,-0.00635998897429173));
#1132=CARTESIAN_POINT('',(-0.0191673744238656,-0.025,-0.0393134372501538));
#1133=CARTESIAN_POINT('',(0.0583326255761344,-0.025,-0.00320998897429171));
#1134=CARTESIAN_POINT('',(0.0472326255761344,-0.025,-0.00320998897429171));
#1135=CARTESIAN_POINT('',(-0.0866673744238656,-0.025,-0.0393134372501538));
#1136=CARTESIAN_POINT('',(-0.0121823814511299,-0.025,-0.00710654069842964));
#1137=CARTESIAN_POINT('',(-0.0866673744238656,-0.015,-0.0393134372501538));
#1138=CARTESIAN_POINT('',(-0.0121823814511299,-0.015,-0.00710654069842964));
#1139=CARTESIAN_POINT('',(-0.0191673744238656,-0.0275,-0.00320998897429173));
#1140=CARTESIAN_POINT('',(-0.0191673744238656,-0.0145,-0.00320998897429173));
#1141=CARTESIAN_POINT('',(0.0583326255761344,0.03,-0.00320998897429171));
#1142=CARTESIAN_POINT('',(0.0103176185488701,-0.02,0.00968656274984621));
#1143=CARTESIAN_POINT('',(0.0118176185488701,-0.02,0.00968656274984621));
#1144=CARTESIAN_POINT('',(0.0118176185488701,-0.02,0.00968656274984621));
#1145=CARTESIAN_POINT('',(0.0103176185488701,-0.02,0.00968656274984621));
#1146=CARTESIAN_POINT('',(0.00881761854887009,-0.02,0.00968656274984621));
#1147=CARTESIAN_POINT('',(0.00881761854887009,-0.02,0.00968656274984621));
#1148=CARTESIAN_POINT('',(0.0118176185488701,-0.02,0.00179001102570829));
#1149=CARTESIAN_POINT('',(0.0118176185488701,-0.02,-0.00610654069842964));
#1150=CARTESIAN_POINT('',(0.0118176185488701,-0.02,-0.00610654069842964));
#1151=CARTESIAN_POINT('',(0.0118176185488701,-0.02,0.00179001102570829));
#1152=CARTESIAN_POINT('',(0.0103176185488701,-0.02,-0.00610654069842964));
#1153=CARTESIAN_POINT('',(0.00881761854887009,-0.02,-0.00610654069842964));
#1154=CARTESIAN_POINT('',(0.00881761854887009,-0.02,-0.00610654069842964));
#1155=CARTESIAN_POINT('',(0.0103176185488701,-0.02,-0.00610654069842964));
#1156=CARTESIAN_POINT('',(0.00881761854887009,-0.02,0.00179001102570829));
#1157=CARTESIAN_POINT('',(0.00881761854887009,-0.02,0.00179001102570829));
#1158=CARTESIAN_POINT('',(0.0103176185488701,-0.02,0.00179001102570829));
#1159=CARTESIAN_POINT('',(-0.0786410631358384,0.968,-0.00320998897429172));
#1160=CARTESIAN_POINT('',(-0.0916673744238656,-0.000199999999999993,-0.0121065406984297));
#1161=CARTESIAN_POINT('',(-0.0916673744238656,-0.000199999999999993,-0.0121065406984297));
#1162=CARTESIAN_POINT('',(-0.0916673744238656,-0.000199999999999993,-0.00971154069842966));
#1163=CARTESIAN_POINT('',(-0.0903648744238656,-0.000199999999999993,-0.00320998897429173));
#1164=CARTESIAN_POINT('',(-0.0916673744238656,-0.000199999999999993,0.00568656274984621));
#1165=CARTESIAN_POINT('',(-0.0916673744238656,-0.000199999999999993,0.00568656274984621));
#1166=CARTESIAN_POINT('',(-0.0916673744238656,-0.000199999999999993,0.00808156274984621));
#1167=CARTESIAN_POINT('',(-0.0903648744238656,-0.000199999999999993,-0.00320998897429173));
#1168=CARTESIAN_POINT('',(0.,0.,0.));
#1169=CARTESIAN_POINT('',(-0.0191673744238656,0.012,-0.0393134372501538));
#1170=CARTESIAN_POINT('',(-0.0916569234172312,0.012,0.00568656274984623));
#1171=CARTESIAN_POINT('',(-0.0916569234172312,0.012,0.00318656274984623));
#1172=CARTESIAN_POINT('',(-0.0916569234172312,0.012,-0.0121065406984297));
#1173=CARTESIAN_POINT('',(-0.0916569234172312,0.012,-0.0146065406984297));
#1174=CARTESIAN_POINT('',(0.0101981605361663,0.012,-0.00630654069842964));
#1175=CARTESIAN_POINT('',(0.0120126255761344,0.012,-0.00630654069842964));
#1176=CARTESIAN_POINT('',(0.00838369549619814,0.012,-0.00630654069842964));
#1177=CARTESIAN_POINT('',(0.00838369549619814,0.012,0.00179001102570829));
#1178=CARTESIAN_POINT('',(0.00838369549619814,0.012,0.00988656274984621));
#1179=CARTESIAN_POINT('',(0.0101981605361663,0.012,0.00988656274984621));
#1180=CARTESIAN_POINT('',(0.0120126255761344,0.012,0.00988656274984621));
#1181=CARTESIAN_POINT('',(0.0120126255761344,0.012,0.00179001102570829));
#1182=CARTESIAN_POINT('',(-0.0966673744238656,0.012,-0.00320998897429173));
#1183=CARTESIAN_POINT('',(-0.0966673744238656,0.012,-0.00020998897429173));
#1184=CARTESIAN_POINT('',(0.0583326255761344,0.012,-0.00320998897429171));
#1185=CARTESIAN_POINT('',(0.0583326255761344,0.012,-0.0143099889742917));
#1186=CARTESIAN_POINT('',(-0.0191673744238656,0.012,0.0106865627498462));
#1187=CARTESIAN_POINT('',(-0.0966673744238656,0.012,0.0106865627498462));
#1188=CARTESIAN_POINT('',(0.0583326255761344,0.012,0.0106865627498462));
#1189=CARTESIAN_POINT('',(-0.0785681866242455,0.012,-0.00320998897429172));
#1190=CARTESIAN_POINT('',(-0.0966673744238656,0.012,-0.0171065406984297));
#1191=CARTESIAN_POINT('',(-0.0191673744238656,0.012,-0.0171065406984297));
#1192=CARTESIAN_POINT('',(0.0583326255761344,0.012,-0.0171065406984296));
#1193=CARTESIAN_POINT('',(0.0583326255761344,0.012,-0.00320998897429171));
#1194=CARTESIAN_POINT('',(-0.0191673744238656,0.019,-0.00320998897429173));
#1195=CARTESIAN_POINT('',(0.0583326255761344,0.019,-0.00320998897429171));
#1196=CARTESIAN_POINT('',(0.0583326255761344,0.019,0.0078900110257083));
#1197=CARTESIAN_POINT('',(-0.0966673744238656,0.019,-0.00320998897429173));
#1198=CARTESIAN_POINT('',(-0.0966673744238656,0.019,-0.00158498897429173));
#1199=CARTESIAN_POINT('',(-0.0191673744238656,0.019,-0.0171065406984297));
#1200=CARTESIAN_POINT('',(-0.0966673744238656,0.019,-0.0171065406984297));
#1201=CARTESIAN_POINT('',(0.0583326255761344,0.019,-0.0171065406984296));
#1202=CARTESIAN_POINT('',(-0.0785681866242455,0.019,-0.00320998897429172));
#1203=CARTESIAN_POINT('',(-0.0966673744238656,0.019,0.0106865627498462));
#1204=CARTESIAN_POINT('',(-0.0191673744238656,0.019,0.0106865627498462));
#1205=CARTESIAN_POINT('',(0.0583326255761344,0.019,0.0106865627498462));
#1206=CARTESIAN_POINT('',(0.0583326255761344,0.019,-0.00320998897429171));
#1207=CARTESIAN_POINT('',(0.0583326255761344,-0.013,-0.00320998897429171));
#1208=CARTESIAN_POINT('',(0.0583326255761344,-0.013,-0.0171065406984296));
#1209=CARTESIAN_POINT('',(0.0583326255761344,-0.013,0.0106865627498462));
#1210=CARTESIAN_POINT('',(0.0583326255761344,0.047,-0.00320998897429171));
#1211=CARTESIAN_POINT('',(-0.0191673744238656,-0.013,-0.0171065406984297));
#1212=CARTESIAN_POINT('',(-0.0966673744238656,-0.013,-0.0171065406984297));
#1213=CARTESIAN_POINT('',(-0.0191673744238656,-0.013,0.0106865627498462));
#1214=CARTESIAN_POINT('',(-0.0966673744238656,-0.013,0.0106865627498462));
#1215=CARTESIAN_POINT('',(-0.0966673744238656,0.019,-0.00320998897429173));
#1216=CARTESIAN_POINT('',(-0.0966673744238656,0.017,-0.00320998897429173));
#1217=CARTESIAN_POINT('',(-0.0966673744238656,0.017,-0.00158498897429173));
#1218=CARTESIAN_POINT('',(-0.0191673744238656,0.017,-0.00320998897429173));
#1219=CARTESIAN_POINT('',(-0.0966673744238656,0.017,-0.00320998897429173));
#1220=CARTESIAN_POINT('',(-0.0966673744238656,0.017,-0.00020998897429173));
#1221=CARTESIAN_POINT('',(-0.0966673744238656,0.0025,-0.00320998897429173));
#1222=CARTESIAN_POINT('',(0.00838369549619814,-0.0028,0.00179001102570829));
#1223=CARTESIAN_POINT('',(0.00838369549619814,-0.0028,-0.00630654069842964));
#1224=CARTESIAN_POINT('',(0.00838369549619814,-0.0028,-0.00630654069842964));
#1225=CARTESIAN_POINT('',(0.00838369549619814,-0.0028,0.00179001102570829));
#1226=CARTESIAN_POINT('',(0.00838369549619814,-0.0028,0.00988656274984621));
#1227=CARTESIAN_POINT('',(0.00838369549619814,-0.0028,0.00988656274984621));
#1228=CARTESIAN_POINT('',(0.0101981605361663,-0.0028,-0.00630654069842964));
#1229=CARTESIAN_POINT('',(0.0120126255761344,-0.0028,-0.00630654069842964));
#1230=CARTESIAN_POINT('',(0.0120126255761344,-0.0028,-0.00630654069842964));
#1231=CARTESIAN_POINT('',(0.0101981605361663,-0.0028,-0.00630654069842964));
#1232=CARTESIAN_POINT('',(0.0120126255761344,-0.0028,0.00179001102570829));
#1233=CARTESIAN_POINT('',(0.0120126255761344,-0.0028,0.00988656274984621));
#1234=CARTESIAN_POINT('',(0.0120126255761344,-0.0028,0.00988656274984621));
#1235=CARTESIAN_POINT('',(0.0120126255761344,-0.0028,0.00179001102570829));
#1236=CARTESIAN_POINT('',(0.0101981605361663,-0.0028,0.00988656274984621));
#1237=CARTESIAN_POINT('',(0.0101981605361663,-0.0028,0.00988656274984621));
#1238=CARTESIAN_POINT('',(-0.0191673744238656,-0.0028,-0.00320998897429173));
#1239=CARTESIAN_POINT('',(-0.0785681866242455,0.037,-0.00320998897429172));
#1240=CARTESIAN_POINT('',(-0.0916569234172312,0.017,-0.0121065406984297));
#1241=CARTESIAN_POINT('',(-0.0916569234172312,0.017,-0.0121065406984297));
#1242=CARTESIAN_POINT('',(-0.0916569234172312,0.017,-0.0146065406984297));
#1243=CARTESIAN_POINT('',(-0.0940219234172311,0.017,-0.00320998897429173));
#1244=CARTESIAN_POINT('',(-0.0916569234172312,0.017,0.00568656274984623));
#1245=CARTESIAN_POINT('',(-0.0916569234172312,0.017,0.00568656274984623));
#1246=CARTESIAN_POINT('',(-0.0916569234172312,0.017,0.00318656274984623));
#1247=CARTESIAN_POINT('',(-0.0940219234172311,0.017,-0.00320998897429173));
#1248=MECHANICAL_DESIGN_GEOMETRIC_PRESENTATION_REPRESENTATION('',(#732),
#1250);
#1249=MECHANICAL_DESIGN_GEOMETRIC_PRESENTATION_REPRESENTATION('',(#733),
#1251);
#1250=(
GEOMETRIC_REPRESENTATION_CONTEXT(3)
GLOBAL_UNCERTAINTY_ASSIGNED_CONTEXT((#1252))
GLOBAL_UNIT_ASSIGNED_CONTEXT((#1258,#1256,#1254))
REPRESENTATION_CONTEXT('Part 1','TOP_LEVEL_ASSEMBLY_PART')
);
#1251=(
GEOMETRIC_REPRESENTATION_CONTEXT(3)
GLOBAL_UNCERTAINTY_ASSIGNED_CONTEXT((#1253))
GLOBAL_UNIT_ASSIGNED_CONTEXT((#1259,#1257,#1255))
REPRESENTATION_CONTEXT('Part 2','TOP_LEVEL_ASSEMBLY_PART')
);
#1252=UNCERTAINTY_MEASURE_WITH_UNIT(LENGTH_MEASURE(1.E-8),#1258,
'DISTANCE_ACCURACY_VALUE','Maximum Tolerance applied to model');
#1253=UNCERTAINTY_MEASURE_WITH_UNIT(LENGTH_MEASURE(1.E-8),#1259,
'DISTANCE_ACCURACY_VALUE','Maximum Tolerance applied to model');
#1254=(
NAMED_UNIT(*)
SI_UNIT($,.STERADIAN.)
SOLID_ANGLE_UNIT()
);
#1255=(
NAMED_UNIT(*)
SI_UNIT($,.STERADIAN.)
SOLID_ANGLE_UNIT()
);
#1256=(
NAMED_UNIT(*)
PLANE_ANGLE_UNIT()
SI_UNIT($,.RADIAN.)
);
#1257=(
NAMED_UNIT(*)
PLANE_ANGLE_UNIT()
SI_UNIT($,.RADIAN.)
);
#1258=(
LENGTH_UNIT()
NAMED_UNIT(*)
SI_UNIT($,.METRE.)
);
#1259=(
LENGTH_UNIT()
NAMED_UNIT(*)
SI_UNIT($,.METRE.)
);
#1260=PRODUCT_DEFINITION_SHAPE('','',#1262);
#1261=PRODUCT_DEFINITION_SHAPE('','',#1263);
#1262=PRODUCT_DEFINITION('','',#1266,#1264);
#1263=PRODUCT_DEFINITION('','',#1267,#1265);
#1264=PRODUCT_DEFINITION_CONTEXT('',#1278,'design');
#1265=PRODUCT_DEFINITION_CONTEXT('',#1279,'design');
#1266=PRODUCT_DEFINITION_FORMATION_WITH_SPECIFIED_SOURCE('','',#1270,
 .NOT_KNOWN.);
#1267=PRODUCT_DEFINITION_FORMATION_WITH_SPECIFIED_SOURCE('','',#1271,
 .NOT_KNOWN.);
#1268=PRODUCT_RELATED_PRODUCT_CATEGORY('','',(#1270));
#1269=PRODUCT_RELATED_PRODUCT_CATEGORY('','',(#1271));
#1270=PRODUCT('Part 1','Part 1','Part 1',(#1274));
#1271=PRODUCT('Part 2','Part 2','Part 2',(#1275));
#1272=PRODUCT_CATEGORY('','');
#1273=PRODUCT_CATEGORY('','');
#1274=PRODUCT_CONTEXT('',#1278,'mechanical');
#1275=PRODUCT_CONTEXT('',#1279,'mechanical');
#1276=APPLICATION_PROTOCOL_DEFINITION('international standard',
'ap242_managed_model_based_3d_engineering',2020,#1278);
#1277=APPLICATION_PROTOCOL_DEFINITION('international standard',
'ap242_managed_model_based_3d_engineering',2020,#1279);
#1278=APPLICATION_CONTEXT('managed model based 3d engineering');
#1279=APPLICATION_CONTEXT('managed model based 3d engineering');
ENDSEC;
END-ISO-10303-21;
